<svg width="40" height="24" viewBox="0 0 40 24" fill="none" xmlns="http://www.w3.org/2000/svg">
<path d="M19.3335 5.20239C21.8464 5.20248 24.1809 5.93592 26.1177 7.19165C26.2482 9.43538 25.7424 11.754 24.5337 13.8723L23.9615 13.0715C23.6582 12.6473 23.1153 12.4671 22.6187 12.6262C22.1221 12.7854 21.7849 13.2474 21.7847 13.7688V17.1829C21.0313 17.8193 20.2124 18.3586 19.3462 18.7903L19.3335 18.8118L19.3199 18.7893C17.2558 17.7604 15.4506 16.133 14.1968 13.9885C12.9403 11.8394 12.4155 9.47597 12.5484 7.19165C14.4852 5.93585 16.8205 5.20239 19.3335 5.20239ZM22.8326 13.2922C23.0393 13.2261 23.2658 13.3022 23.3921 13.4788L24.1363 14.5217C23.9418 14.8189 23.7366 15.1051 23.521 15.3801L23.4849 15.3293V15.427C23.1715 15.823 22.8377 16.1958 22.4849 16.5442V13.7688C22.4851 13.5516 22.6257 13.3585 22.8326 13.2922ZM17.9605 9.14673C17.6287 9.14673 17.3599 9.34389 17.3599 9.58716V13.1106C17.3599 13.3539 17.6287 13.551 17.9605 13.551C18.2922 13.551 18.5611 13.3539 18.5611 13.1106V9.58716C18.5611 9.34389 18.2922 9.14673 17.9605 9.14673ZM20.7632 9.14673C20.4315 9.14679 20.1626 9.34392 20.1626 9.58716V13.1106C20.1626 13.3538 20.4315 13.551 20.7632 13.551C21.0949 13.551 21.3638 13.3539 21.3638 13.1106V9.58716C21.3638 9.34389 21.0949 9.14673 20.7632 9.14673Z" fill="white"/>
<path fill-rule="evenodd" clip-rule="evenodd" d="M22.8328 13.2932C23.0398 13.2268 23.2659 13.3019 23.3923 13.4788L24.8791 15.561L26.3658 13.4788C26.4922 13.3019 26.7183 13.2268 26.9253 13.2932C27.1323 13.3595 27.2728 13.5519 27.2728 13.7693V17.558C27.2728 17.8342 27.0489 18.058 26.7728 18.058C26.4966 18.058 26.2728 17.8342 26.2728 17.558V15.33L25.286 16.712C25.1921 16.8434 25.0406 16.9214 24.8791 16.9214C24.7176 16.9214 24.566 16.8434 24.4721 16.712L23.4854 15.33V17.558C23.4854 17.8342 23.2615 18.058 22.9854 18.058C22.7092 18.058 22.4854 17.8342 22.4854 17.558V13.7693C22.4854 13.5519 22.6258 13.3595 22.8328 13.2932Z" fill="white"/>
</svg>
