<svg width="40" height="24" viewBox="0 0 40 24" fill="none" xmlns="http://www.w3.org/2000/svg">
<path d="M19.3333 5.20239C21.8463 5.2024 24.1807 5.93594 26.1175 7.19165C26.248 9.43531 25.743 11.754 24.5345 13.8723L23.9622 13.0715C23.6591 12.6472 23.1161 12.4673 22.6194 12.6262C22.1229 12.7854 21.7857 13.2474 21.7855 13.7688V17.1829C21.032 17.8195 20.2123 18.3585 19.346 18.7903L19.3333 18.8118L19.3206 18.7893C17.2563 17.7604 15.4505 16.1332 14.1966 13.9885C12.9401 11.8393 12.4163 9.47598 12.5491 7.19165C14.486 5.93596 16.8204 5.20239 19.3333 5.20239ZM22.8333 13.2922C23.04 13.2264 23.2667 13.3022 23.3929 13.4788L24.137 14.5208C23.9425 14.8182 23.7375 15.1049 23.5218 15.3801L23.4857 15.3293V15.427C23.1724 15.8228 22.8383 16.195 22.4857 16.5432V13.7688C22.4859 13.5516 22.6265 13.3585 22.8333 13.2922ZM17.9603 9.14673C17.6287 9.14689 17.3597 9.34399 17.3597 9.58716V13.1106C17.3597 13.3538 17.6287 13.5509 17.9603 13.551C18.292 13.551 18.5618 13.3539 18.5618 13.1106V9.58716C18.5618 9.34389 18.292 9.14673 17.9603 9.14673ZM20.764 9.14673C20.4322 9.14673 20.1634 9.34389 20.1634 9.58716V13.1106C20.1634 13.3539 20.4322 13.551 20.764 13.551C21.0955 13.5509 21.3646 13.3538 21.3646 13.1106V9.58716C21.3646 9.34398 21.0955 9.14689 20.764 9.14673Z" fill="black"/>
<path fill-rule="evenodd" clip-rule="evenodd" d="M22.8328 13.2932C23.0398 13.2268 23.2659 13.3019 23.3923 13.4788L24.8791 15.561L26.3658 13.4788C26.4922 13.3019 26.7183 13.2268 26.9253 13.2932C27.1323 13.3595 27.2728 13.5519 27.2728 13.7693V17.558C27.2728 17.8342 27.0489 18.058 26.7728 18.058C26.4966 18.058 26.2728 17.8342 26.2728 17.558V15.33L25.286 16.712C25.1921 16.8434 25.0406 16.9214 24.8791 16.9214C24.7176 16.9214 24.566 16.8434 24.4721 16.712L23.4854 15.33V17.558C23.4854 17.8342 23.2615 18.058 22.9854 18.058C22.7092 18.058 22.4854 17.8342 22.4854 17.558V13.7693C22.4854 13.5519 22.6258 13.3595 22.8328 13.2932Z" fill="black"/>
</svg>
