<svg width="300" height="255" viewBox="0 0 300 255" fill="none" xmlns="http://www.w3.org/2000/svg">
<g clip-path="url(#clip0_22854_19521)">
<path d="M127.063 248.784C127.063 248.784 10.4973 238.877 0.383789 172.137C0.383789 108.98 24.6442 104.916 76.6004 83.3882C128.557 61.8947 110.332 47.3972 177.938 35.1152C245.532 22.8333 323.216 72.1096 293.651 186.27C273.527 263.979 127.063 248.784 127.063 248.784Z" fill="#EFFAF1"/>
<path d="M217.693 42.9532H217.686L146.935 30.0339C143.105 29.2887 137.753 31.5319 137.177 38.0714L120.129 211.985C119.524 217.193 122.855 222.212 127.987 223.239C127.987 223.239 190.032 234.371 197.905 235.998C204.582 237.382 208.057 232.5 208.503 228.128L225.551 54.2149C226.089 48.5346 222.584 43.8353 217.701 42.9609L217.693 42.9532Z" fill="#EAEEEF"/>
<path d="M143.56 30.1327C143.56 30.1327 159.063 26.8553 161.539 27.3572L230.079 39.9344C234.689 40.8165 238.02 45.8579 237.528 51.1884C237.528 51.1884 237.528 51.196 237.528 51.2188L219.518 222.934C219.011 227.725 208.648 236.28 198.806 236.12C201.199 234.052 205.029 228.288 205.044 228.136L222.403 56.8002C223.47 46.4282 221.835 46.6564 203.545 42.6871C182.198 38.0562 143.605 30.1327 143.56 30.1479H143.575L143.56 30.1327Z" fill="#91A1A0"/>
<path d="M217.338 47.3027C217.338 47.3027 217.285 47.2874 217.255 47.2874L206.876 45.394H206.883L217.262 47.295C217.308 47.3027 217.353 47.3179 217.406 47.3255C217.376 47.3255 217.353 47.3103 217.323 47.3027H217.338ZM225.597 53.7129C225.597 53.7129 225.597 53.6597 225.597 53.6369C225.635 52.7472 225.567 51.8651 225.392 51.0135C225.385 50.9678 225.377 50.9222 225.37 50.8842C225.37 50.8689 225.362 50.8614 225.362 50.8462C225.324 50.6865 225.294 50.5344 225.249 50.3747C225.249 50.3595 225.249 50.3519 225.249 50.3443C225.218 50.253 225.196 50.1542 225.165 50.0629C225.105 49.8652 225.044 49.6751 224.976 49.485C224.953 49.4318 224.938 49.371 224.915 49.3178C224.908 49.2949 224.9 49.2798 224.885 49.257C224.87 49.2189 224.855 49.1809 224.84 49.1505C224.787 49.0212 224.741 48.892 224.681 48.7703C224.62 48.6182 224.552 48.4813 224.492 48.352C224.476 48.3216 224.461 48.2988 224.446 48.2684C224.393 48.1619 224.34 48.0554 224.28 47.949C224.272 47.9338 224.264 47.9186 224.257 47.911C224.219 47.835 224.174 47.7665 224.128 47.6905C224.09 47.622 224.045 47.5536 224 47.4852C223.962 47.4319 223.939 47.3711 223.901 47.3179C223.81 47.1658 223.704 47.0061 223.591 46.8617C223.492 46.7096 223.386 46.565 223.265 46.4282C223.227 46.3825 223.19 46.337 223.152 46.2913C223.076 46.2001 223 46.1013 222.925 46.0176C222.909 46.0024 222.894 45.9795 222.879 45.9719C222.856 45.9415 222.834 45.9187 222.811 45.8959C222.728 45.8047 222.652 45.7058 222.561 45.6222C222.538 45.5918 222.516 45.569 222.486 45.5462C222.289 45.3409 222.084 45.1507 221.872 44.9682C221.774 44.8846 221.675 44.8085 221.577 44.7325C221.494 44.664 221.418 44.6108 221.335 44.5576C221.289 44.5196 221.244 44.4891 221.191 44.4511C221.1 44.3903 221.017 44.3142 220.918 44.2534C220.843 44.2078 220.775 44.1622 220.699 44.1166C220.669 44.1014 220.638 44.0785 220.608 44.0633C220.601 44.0557 220.585 44.0481 220.57 44.0481C220.419 43.9568 220.267 43.8732 220.116 43.7896L220.101 43.782C220.048 43.7515 219.987 43.7211 219.927 43.6907C219.866 43.6603 219.806 43.6299 219.745 43.5995C219.609 43.5386 219.48 43.4778 219.344 43.4246C219.208 43.379 219.071 43.3257 218.935 43.2801C218.837 43.2496 218.738 43.2117 218.632 43.1813C218.534 43.1509 218.435 43.128 218.322 43.0976C218.224 43.0672 218.118 43.0444 218.012 43.0216C217.906 42.9987 217.8 42.976 217.694 42.9608L174.672 35.1057L147.049 30.0642L146.928 30.0414C146.928 30.0414 146.882 30.0338 146.852 30.0262C146.731 30.0034 146.61 29.9881 146.496 29.9729C146.269 29.9425 146.05 29.9273 145.823 29.9197C145.702 29.9197 145.58 29.9121 145.467 29.9121C141.803 29.9121 138.639 32.4367 137.548 36.1931C137.374 36.7938 137.246 37.425 137.185 38.0865L136.928 40.7175L120.137 211.984C120.008 213.292 120.122 214.577 120.432 215.794C120.463 215.923 120.501 216.053 120.538 216.174V216.182C120.712 216.745 120.924 217.3 121.174 217.817C121.174 217.817 121.174 217.824 121.182 217.824C121.303 218.068 121.424 218.311 121.568 218.539C121.651 218.684 121.742 218.828 121.833 218.965C121.969 219.178 122.105 219.376 122.257 219.573C122.264 219.589 122.272 219.604 122.287 219.619C122.295 219.634 122.317 219.665 122.317 219.665V219.672C122.37 219.741 122.423 219.817 122.484 219.878C122.552 219.961 122.628 220.052 122.703 220.136C122.772 220.212 122.832 220.281 122.908 220.357C122.946 220.402 122.991 220.448 123.037 220.493C123.074 220.539 123.12 220.585 123.165 220.63C123.264 220.729 123.37 220.828 123.476 220.927C123.476 220.927 123.476 220.927 123.483 220.934C123.506 220.95 123.529 220.973 123.551 220.995C123.846 221.261 124.157 221.505 124.475 221.733C124.702 221.893 124.937 222.045 125.186 222.189C125.308 222.258 125.436 222.326 125.557 222.394C125.686 222.463 125.815 222.524 125.951 222.585C125.966 222.585 125.981 222.6 125.989 222.6C126.065 222.63 126.133 222.661 126.208 222.691C126.246 222.706 126.284 222.729 126.314 222.744C126.352 222.759 126.39 222.775 126.42 222.782C126.511 222.82 126.602 222.851 126.7 222.889H126.708C126.753 222.904 126.806 222.919 126.852 222.934C127.208 223.056 127.579 223.147 127.95 223.216L176.595 232.097L197.867 235.983L198.715 236.135C199.487 236.28 200.244 236.31 200.979 236.234C201.07 236.226 201.153 236.219 201.244 236.203H201.251C201.804 236.135 202.341 235.998 202.849 235.816C203.023 235.755 203.182 235.686 203.348 235.618C203.378 235.603 203.416 235.588 203.447 235.58C203.477 235.565 203.507 235.55 203.537 235.534C203.636 235.489 203.734 235.443 203.833 235.382C203.901 235.352 203.969 235.314 204.03 235.276C204.045 235.268 204.06 235.261 204.075 235.245C204.143 235.207 204.211 235.162 204.287 235.116C204.294 235.116 204.302 235.116 204.31 235.101C204.453 235.01 204.605 234.918 204.749 234.804C204.756 234.804 204.764 234.804 204.779 234.789C204.839 234.751 204.9 234.705 204.961 234.66C205.021 234.614 205.082 234.569 205.142 234.515C205.286 234.409 205.422 234.287 205.551 234.166C205.642 234.09 205.725 234.006 205.816 233.915C205.831 233.899 205.854 233.884 205.861 233.869C205.899 233.839 205.93 233.801 205.96 233.77C206.028 233.702 206.096 233.626 206.157 233.55C206.263 233.428 206.361 233.314 206.467 233.192C206.512 233.139 206.55 233.078 206.596 233.017C206.641 232.957 206.687 232.903 206.732 232.842C206.838 232.706 206.929 232.561 207.027 232.417L207.058 232.371C207.126 232.257 207.201 232.135 207.27 232.021C207.27 232.021 207.277 232.006 207.285 231.998C207.307 231.96 207.33 231.915 207.353 231.869C207.474 231.641 207.587 231.413 207.686 231.185C207.716 231.116 207.739 231.048 207.769 230.979C207.815 230.873 207.868 230.767 207.905 230.652C208.208 229.862 208.405 229.01 208.496 228.105L213.56 176.458L220.896 101.664L225.551 54.2072C225.567 54.0399 225.567 53.8726 225.582 53.7053H225.597V53.7129ZM209.109 180.732L205.877 213.733L204.537 227.398C204.241 230.325 201.842 232.31 199.162 231.824L193.068 230.713L185.452 229.322L178.329 228.021L141.402 221.277L128.411 218.904C128.093 218.851 127.798 218.76 127.503 218.638C127.359 218.585 127.223 218.516 127.087 218.448C127.079 218.448 127.071 218.448 127.064 218.44C126.996 218.41 126.935 218.372 126.875 218.334C126.473 218.106 126.095 217.809 125.762 217.475C125.603 217.307 125.444 217.132 125.3 216.942C125.255 216.881 125.209 216.821 125.164 216.752C125.118 216.684 125.073 216.623 125.027 216.547C124.891 216.349 124.778 216.129 124.672 215.916C124.672 215.916 124.672 215.916 124.664 215.901C124.573 215.703 124.482 215.498 124.407 215.285C124.111 214.479 123.99 213.597 124.081 212.692L125.262 200.639L140.062 49.7512L140.092 49.4774L141.137 38.7861C141.197 38.2082 141.334 37.6607 141.546 37.1664C142.401 35.1666 144.369 33.9651 146.519 34.3529L177.678 40.0408L206.899 45.3712H206.906L217.285 47.2722C217.33 47.2798 217.376 47.2951 217.429 47.3027C217.572 47.3407 217.716 47.3711 217.853 47.4167C217.913 47.4319 217.974 47.4547 218.027 47.4699C218.118 47.5079 218.208 47.5384 218.299 47.5764C218.398 47.6144 218.496 47.6677 218.594 47.7133C218.7 47.7665 218.806 47.835 218.912 47.8958C218.943 47.911 218.973 47.9262 219.003 47.949C219.094 48.0098 219.193 48.0783 219.283 48.1467C219.291 48.1467 219.298 48.1467 219.298 48.1619C219.389 48.2228 219.48 48.2988 219.563 48.3673C219.586 48.3825 219.609 48.4052 219.632 48.4204C219.73 48.5041 219.821 48.5954 219.912 48.6867C220.018 48.7931 220.131 48.9147 220.23 49.0364C220.283 49.0972 220.336 49.1581 220.373 49.2189C220.426 49.2797 220.472 49.3482 220.517 49.409C220.707 49.6752 220.873 49.9565 221.017 50.2531C221.055 50.3215 221.085 50.3823 221.108 50.4508C221.176 50.5952 221.236 50.7473 221.289 50.8994C221.577 51.6902 221.691 52.5647 221.607 53.4468L220.381 66.0163L216.8 102.531L216.55 105.063L209.139 180.686H209.124L209.109 180.732ZM217.421 47.3255C217.421 47.3255 217.368 47.3103 217.338 47.3027C217.307 47.2951 217.285 47.2874 217.255 47.2874L206.876 45.394H206.883L217.262 47.295C217.308 47.3027 217.353 47.3179 217.406 47.3255H217.421Z" fill="#CBD3D2"/>
<path d="M176.625 232.12L197.897 235.998C196.255 234.257 194.65 232.493 193.075 230.713L185.46 229.322L178.336 228.021L141.409 221.277L128.419 218.904C128.101 218.851 127.805 218.76 127.51 218.638C127.366 218.585 127.23 218.516 127.094 218.448C127.086 218.448 127.079 218.448 127.071 218.433C127.003 218.402 126.943 218.364 126.882 218.326C126.481 218.098 126.102 217.802 125.769 217.467C125.61 217.3 125.451 217.125 125.307 216.935C125.262 216.874 125.217 216.813 125.171 216.745C124.982 216.478 124.823 216.205 124.679 215.916C124.679 215.916 124.679 215.916 124.671 215.9C124.21 214.935 123.99 213.832 124.096 212.699L125.277 200.647L140.062 49.7511L140.092 49.4774C139.199 47.3026 138.366 45.0975 137.624 42.8771C137.389 42.1471 137.155 41.4323 136.935 40.7023C136.935 40.6947 136.928 40.6719 136.928 40.6719L120.137 211.962C120.001 213.406 120.152 214.828 120.546 216.144C120.546 216.144 120.546 216.151 120.546 216.159C120.72 216.722 120.932 217.277 121.182 217.794C121.182 217.794 121.182 217.802 121.189 217.809C121.31 218.052 121.431 218.296 121.575 218.524C121.659 218.668 121.749 218.813 121.84 218.95C121.976 219.163 122.113 219.36 122.264 219.558C122.279 219.589 122.31 219.619 122.332 219.649V219.657C122.385 219.725 122.438 219.801 122.499 219.862C122.635 220.03 122.771 220.189 122.915 220.349C122.998 220.44 123.089 220.531 123.18 220.623C123.279 220.722 123.385 220.828 123.483 220.919C123.483 220.919 123.528 220.972 123.559 220.988C123.854 221.254 124.164 221.497 124.482 221.725C124.709 221.885 124.944 222.037 125.186 222.181C125.307 222.25 125.436 222.318 125.565 222.387C125.777 222.493 125.996 222.6 126.223 222.683C126.261 222.699 126.299 222.721 126.329 222.737C126.329 222.737 126.405 222.767 126.435 222.775C126.526 222.813 126.625 222.851 126.731 222.881C126.776 222.896 126.829 222.919 126.874 222.927C127.23 223.048 127.601 223.14 127.972 223.208L176.618 232.09L176.625 232.12Z" fill="#D6DEDE"/>
<path d="M177.671 40.0864L206.876 45.4016L217.247 47.295C219.92 47.7817 221.873 50.5648 221.577 53.4924L220.351 66.062L216.778 102.577C217.467 103.771 218.156 104.972 218.837 106.158C219.299 106.964 219.768 107.77 220.215 108.584L225.552 54.2072C226.082 48.892 222.554 43.8504 217.694 42.9684L174.673 35.1133C175.619 36.809 176.626 38.4667 177.678 40.0864H177.671Z" fill="#D6DEDE"/>
<path d="M176.625 232.12L197.897 235.998C196.255 234.257 194.65 232.493 193.075 230.713L185.46 229.322L178.336 228.021L141.409 221.277L128.419 218.904C128.101 218.851 127.805 218.76 127.51 218.638C127.366 218.585 127.23 218.516 127.094 218.448C127.086 218.448 127.079 218.448 127.071 218.433C127.003 218.402 126.943 218.364 126.882 218.326C126.481 218.098 126.102 217.802 125.769 217.467C125.61 217.3 125.451 217.125 125.307 216.935C125.262 216.874 125.217 216.813 125.171 216.745C124.982 216.478 124.823 216.205 124.679 215.916C124.679 215.916 124.679 215.916 124.671 215.9C124.21 214.935 123.99 213.832 124.096 212.699L125.277 200.647L140.062 49.7511L140.092 49.4774C139.199 47.3026 138.366 45.0975 137.624 42.8771C137.389 42.1471 137.155 41.4323 136.935 40.7023C136.935 40.6947 136.928 40.6719 136.928 40.6719L120.137 211.962C120.001 213.406 120.152 214.828 120.546 216.144C120.546 216.144 120.546 216.151 120.546 216.159C120.72 216.722 120.932 217.277 121.182 217.794C121.182 217.794 121.182 217.802 121.189 217.809C121.31 218.052 121.431 218.296 121.575 218.524C121.659 218.668 121.749 218.813 121.84 218.95C121.976 219.163 122.113 219.36 122.264 219.558C122.279 219.589 122.31 219.619 122.332 219.649V219.657C122.385 219.725 122.438 219.801 122.499 219.862C122.635 220.03 122.771 220.189 122.915 220.349C122.998 220.44 123.089 220.531 123.18 220.623C123.279 220.722 123.385 220.828 123.483 220.919C123.483 220.919 123.528 220.972 123.559 220.988C123.854 221.254 124.164 221.497 124.482 221.725C124.709 221.885 124.944 222.037 125.186 222.181C125.307 222.25 125.436 222.318 125.565 222.387C125.777 222.493 125.996 222.6 126.223 222.683C126.261 222.699 126.299 222.721 126.329 222.737C126.329 222.737 126.405 222.767 126.435 222.775C126.526 222.813 126.625 222.851 126.731 222.881C126.776 222.896 126.829 222.919 126.874 222.927C127.23 223.048 127.601 223.14 127.972 223.208L176.618 232.09L176.625 232.12Z" fill="#D6DEDE"/>
<path d="M178.859 35.8737L218.004 43.0291C218.11 43.0443 218.209 43.0747 218.315 43.1052C218.421 43.1356 218.519 43.1584 218.625 43.1888C218.724 43.2192 218.822 43.2496 218.928 43.2876C219.064 43.3333 219.2 43.3865 219.337 43.4322C219.473 43.4854 219.602 43.5386 219.738 43.6071C219.814 43.6375 219.882 43.6755 219.957 43.7135C220.003 43.7363 220.056 43.7591 220.101 43.7895C220.389 43.934 220.669 44.0937 220.942 44.2762C221.161 44.4207 221.381 44.5728 221.585 44.7401C221.683 44.8237 221.782 44.8998 221.88 44.9758C222.092 45.1583 222.297 45.3484 222.493 45.5537C222.516 45.5842 222.539 45.5993 222.569 45.6298C222.63 45.6906 222.69 45.7514 222.751 45.8199C222.895 45.9796 223.031 46.1392 223.167 46.3065C223.319 46.489 223.462 46.6791 223.606 46.8845C223.69 47.0061 223.773 47.1202 223.848 47.2418C223.886 47.2951 223.924 47.3635 223.954 47.4167C224.242 47.873 224.492 48.352 224.704 48.8539C224.742 48.9603 224.787 49.0667 224.833 49.1732C224.848 49.2112 224.863 49.2493 224.878 49.2797C224.908 49.3557 224.931 49.4318 224.961 49.5078C224.992 49.5915 225.022 49.6751 225.052 49.7587C225.188 50.177 225.31 50.6104 225.385 51.0439C225.423 51.2188 225.453 51.3784 225.476 51.5533C225.506 51.7282 225.521 51.9107 225.544 52.0932C225.559 52.2681 225.575 52.4506 225.582 52.6331C225.597 52.8916 225.605 53.1578 225.59 53.4163C225.59 53.4924 225.59 53.576 225.59 53.6596C225.59 53.6977 225.59 53.7281 225.59 53.7585C225.582 53.9106 225.567 54.0626 225.552 54.2147L220.873 101.55L216.505 105.938L219.428 75.6355L220.351 66.062L221.577 53.4924C221.638 52.8688 221.6 52.2605 221.479 51.6674C221.441 51.5077 221.396 51.348 221.35 51.1883C221.328 51.1123 221.305 51.0363 221.275 50.9602C221.191 50.7321 221.101 50.504 220.995 50.2911C220.926 50.1466 220.851 50.0097 220.767 49.8728V49.8652C220.684 49.7283 220.593 49.5914 220.503 49.4622C220.457 49.3937 220.404 49.3329 220.359 49.2721C220.313 49.2112 220.268 49.1504 220.215 49.0896C220.01 48.8462 219.791 48.6181 219.549 48.4204C219.488 48.3672 219.428 48.3216 219.367 48.276C219.337 48.2456 219.306 48.2228 219.269 48.2076C219.178 48.1391 219.079 48.0707 218.989 48.0098C218.958 47.987 218.928 47.9718 218.898 47.9566C218.792 47.8881 218.686 47.8273 218.58 47.7741C218.534 47.7437 218.481 47.7209 218.436 47.7057C218.39 47.6752 218.337 47.6601 218.292 47.6373C218.201 47.5916 218.11 47.5536 218.02 47.5308C217.967 47.508 217.906 47.4851 217.845 47.4775C217.686 47.4167 217.512 47.3711 217.346 47.3407C217.315 47.3331 217.293 47.3255 217.262 47.3255L206.884 45.4321L177.663 40.1016L174.824 39.5845C176.777 38.0028 177.262 37.5314 178.874 35.9117H178.867L178.859 35.8737Z" fill="#D6DEDE"/>
<path d="M217.701 42.9606C217.701 42.9606 152.015 30.9386 147.057 30.0565C142.098 29.1744 137.677 32.2388 137.193 38.0788L120.145 211.977C119.524 217.931 123.529 222.448 127.988 223.231L198.746 236.15C205.794 237.177 208.314 231.086 208.511 228.12L225.559 54.2222C226.104 47.9793 222.062 43.7287 217.701 42.9606ZM204.537 227.405C204.242 230.333 201.842 232.318 199.162 231.831L128.411 218.912C126.784 218.547 123.733 216.265 124.074 212.707L141.122 38.8088C141.584 35.3794 144.354 33.9878 146.504 34.3832L217.27 47.3025C220.722 47.9337 221.751 51.8498 221.6 53.4923L204.544 227.405H204.537Z" fill="#CBD3D2"/>
<path opacity="0.4" d="M141.576 67.765L134.294 142.186C134.218 143.076 134.793 143.867 135.679 144.004C152.129 146.969 183.045 152.748 206.536 156.961C207.497 157.136 208.421 156.429 208.489 155.463L215.703 81.7945C215.847 80.4714 214.954 79.2928 213.644 79.0419C195.203 75.544 156.474 68.5483 143.537 66.267C142.575 66.0922 141.69 66.7689 141.584 67.765H141.576Z" fill="#CBD3D2"/>
<path opacity="0.4" d="M133.363 149.821L132.477 158.817C132.409 159.706 132.977 160.497 133.863 160.634C150.312 163.6 181.191 169.379 204.719 173.591C205.68 173.766 206.604 173.051 206.672 172.093L207.452 163.851C207.596 162.527 206.672 161.349 205.393 161.106C194.416 159.068 147.186 150.399 135.324 148.293C134.362 148.186 133.476 148.863 133.37 149.829L133.363 149.821Z" fill="#CBD3D2"/>
<path opacity="0.4" d="M131.553 166.884L130.668 175.88C130.6 176.77 131.167 177.561 132.053 177.697C148.503 180.663 179.419 186.442 202.91 190.655C203.871 190.83 204.794 190.123 204.863 189.157L205.642 180.914C205.786 179.591 204.893 178.412 203.583 178.169C185.142 174.671 146.414 167.675 133.476 165.386C132.553 165.212 131.629 165.888 131.553 166.884Z" fill="#CBD3D2"/>
<path opacity="0.4" d="M130.024 183.408L129.138 192.404C129.07 193.293 129.638 194.084 130.524 194.221C146.974 197.187 177.852 202.966 201.38 207.179C202.342 207.353 203.265 206.639 203.333 205.681L204.113 197.438C204.257 196.115 203.333 194.936 202.054 194.693C191.077 192.655 143.847 183.986 131.985 181.88C131.023 181.735 130.1 182.45 130.032 183.416L130.024 183.408Z" fill="#CBD3D2"/>
<path opacity="0.4" d="M143.317 51.3101L142.431 60.3057C142.363 61.1953 142.931 61.9862 143.817 62.1231C160.267 65.0887 191.183 70.8678 214.673 75.0805C215.635 75.2553 216.558 74.5482 216.626 73.5825L217.406 65.3396C217.55 64.0165 216.657 62.8454 215.347 62.5945C196.906 59.0966 158.177 52.1009 145.24 49.8121C144.316 49.6372 143.431 50.3519 143.317 51.3101Z" fill="#CBD3D2"/>
<path d="M191.494 51.0515L167.769 46.74C166.709 46.5499 165.975 45.6526 166.126 44.7401L166.172 44.4664C166.316 43.5539 167.292 42.9684 168.352 43.1661L192.077 47.4775C193.137 47.6677 193.871 48.5649 193.719 49.4774L193.674 49.7512C193.53 50.6637 192.554 51.2492 191.494 51.0515Z" fill="#B8C1C0"/>
<path d="M190.147 96.442C188.256 118.433 183.831 173.267 121.132 201.823C117.766 203.206 117.002 203.434 113.953 204.688C108.764 199.787 104.081 194.544 99.8823 189.103C70.7421 151.276 64.622 102.848 64.5312 81.6622C67.1866 80.4692 68.4726 79.9221 71.7104 78.7974C90.9784 71.3581 113.704 70.0359 132.2 72.8019C150.689 75.5451 172.612 83.5011 190.147 96.442Z" fill="#CACFBE"/>
<path opacity="0.45" d="M190.148 96.442C188.257 118.433 183.831 173.267 121.133 201.823C117.766 203.206 117.002 203.434 113.954 204.688C108.764 199.794 104.081 194.544 99.8828 189.103C128.736 157.674 182.969 99.3068 182.969 99.3068L190.148 96.442Z" fill="#C0C0AA"/>
<path d="M64.4938 81.6242C62.6025 103.615 57.6626 158.35 113.953 204.658C176.652 176.063 181.07 121.268 182.969 99.2764C165.463 86.3659 143.51 78.4098 125.013 75.6438C106.487 72.9082 83.7239 74.1925 64.4938 81.6394V81.6242Z" fill="#D7DBCA"/>
<path d="M114.37 197.181C66.93 156.192 68.1177 109.474 69.9408 86.2976C79.0415 83.2428 89.3979 81.3735 100.14 80.8872C108.03 80.53 116.11 80.9176 123.539 82.0118C141.687 84.717 160.947 92.2475 175.79 102.422C173.679 125.227 167.234 171.2 114.37 197.181Z" fill="#62AD74"/>
<path fill-rule="evenodd" clip-rule="evenodd" d="M138.347 122.412C139.684 124.527 139.285 127.62 137.455 129.32L123.485 142.298C118.639 147.219 116.02 146.881 112.401 140.87L105.978 130.789C104.634 128.68 105.024 125.586 106.85 123.879C108.676 122.171 111.245 122.497 112.589 124.606L118.855 134.44L132.611 121.662C134.441 119.961 137.009 120.298 138.347 122.412Z" fill="white"/>
</g>
<defs>
<clipPath id="clip0_22854_19521">
<rect width="300" height="255" fill="white"/>
</clipPath>
</defs>
</svg>
