<svg width="300" height="255" viewBox="0 0 300 255" fill="none" xmlns="http://www.w3.org/2000/svg">
<g clip-path="url(#clip0_22854_19606)">
<path d="M126.658 247.465C126.658 247.465 10.4947 237.666 0.416016 171.651C0.416016 109.181 24.5928 105.162 76.3698 83.868C128.147 62.6082 109.985 48.2684 177.357 36.1199C244.718 23.9715 322.135 72.7121 292.672 185.631C272.617 262.495 126.658 247.465 126.658 247.465Z" fill="#EFFAF1"/>
<g filter="url(#filter0_d_22854_19606)">
<g clip-path="url(#clip1_22854_19606)">
<g filter="url(#filter1_ddii_22854_19606)">
<path fill-rule="evenodd" clip-rule="evenodd" d="M252.834 136.373C252.834 135.262 252.834 134.15 252.827 133.038C252.822 132.101 252.811 131.165 252.785 130.229C252.73 128.189 252.61 126.131 252.247 124.113C251.879 122.067 251.278 120.162 250.331 118.302C249.4 116.474 248.184 114.802 246.733 113.352C245.282 111.902 243.609 110.687 241.781 109.756C239.919 108.809 238.013 108.208 235.964 107.84C233.946 107.478 231.888 107.358 229.847 107.303C228.91 107.277 227.974 107.267 227.037 107.261C225.924 107.254 224.812 107.255 223.7 107.255L210.784 107.208H201.124L188.437 107.255C187.322 107.255 186.208 107.254 185.093 107.261C184.154 107.267 183.216 107.277 182.277 107.303C180.232 107.358 178.169 107.478 176.147 107.841C174.095 108.209 172.185 108.809 170.321 109.756C168.489 110.686 166.812 111.902 165.358 113.352C163.905 114.802 162.687 116.474 161.754 118.301C160.804 120.162 160.202 122.068 159.833 124.116C159.47 126.132 159.35 128.19 159.294 130.229C159.269 131.165 159.258 132.102 159.252 133.038C159.246 134.15 159.188 135.531 159.188 136.643L159.189 149.154L159.188 158.918L159.246 171.695C159.246 172.808 159.246 173.921 159.252 175.035C159.258 175.972 159.269 176.91 159.294 177.847C159.35 179.89 159.47 181.951 159.834 183.971C160.203 186.021 160.805 187.928 161.753 189.79C162.686 191.621 163.905 193.295 165.358 194.748C166.812 196.2 168.488 197.417 170.32 198.348C172.185 199.297 174.096 199.898 176.149 200.267C178.171 200.63 180.233 200.75 182.277 200.805C183.216 200.83 184.154 200.841 185.093 200.847C186.208 200.854 187.322 200.853 188.437 200.853L201.239 200.854H210.923L223.7 200.853C224.812 200.853 225.924 200.854 227.037 200.847C227.974 200.841 228.91 200.83 229.847 200.805C231.888 200.75 233.947 200.629 235.966 200.266C238.014 199.898 239.92 199.297 241.78 198.349C243.609 197.417 245.282 196.2 246.733 194.748C248.184 193.296 249.4 191.621 250.331 189.791C251.279 187.928 251.879 186.02 252.248 183.969C252.61 181.95 252.73 179.89 252.786 177.847C252.811 176.91 252.822 175.972 252.827 175.035C252.834 173.921 252.834 172.808 252.834 171.695C252.834 171.695 252.833 159.143 252.833 158.918V149.144C252.833 148.977 252.834 136.373 252.834 136.373Z" fill="white"/>
</g>
<path d="M205.667 120.583C218.447 120.583 230.32 124.348 240.17 130.798C240.846 142.529 238.179 154.667 231.789 165.705C230.812 167.393 229.768 169.017 228.664 170.579L226.035 166.897C224.804 165.173 222.599 164.442 220.582 165.089C218.565 165.735 217.196 167.611 217.196 169.729V182.906C213.627 185.832 209.778 188.327 205.732 190.363L205.667 190.475L205.603 190.363C195.104 185.079 185.923 176.72 179.546 165.705C173.156 154.667 170.489 142.529 171.165 130.798C181.015 124.348 192.887 120.583 205.667 120.583ZM221.483 167.902C222.278 167.648 223.145 167.936 223.63 168.615L226.81 173.068C225.99 174.115 225.145 175.131 224.271 176.114L223.987 175.717V176.427C222.758 177.79 221.478 179.09 220.151 180.325V169.729C220.151 168.895 220.689 168.157 221.483 167.902ZM216.556 145.931C215.497 144.753 213.779 144.749 212.717 145.924L204.736 154.75L199.785 149.274C198.723 148.1 197.004 148.104 195.946 149.282C194.888 150.46 194.891 152.367 195.953 153.542L201.028 159.155C203.916 162.519 205.668 162.519 208.444 159.155L216.549 150.191C217.611 149.017 217.614 147.11 216.556 145.931Z" fill="url(#paint0_linear_22854_19606)"/>
<path fill-rule="evenodd" clip-rule="evenodd" d="M221.484 167.903C222.278 167.648 223.146 167.936 223.631 168.615L229.334 176.603L235.038 168.615C235.523 167.936 236.39 167.648 237.184 167.903C237.979 168.157 238.517 168.895 238.517 169.729V184.264C238.517 185.323 237.659 186.182 236.599 186.182C235.54 186.182 234.681 185.323 234.681 184.264V175.717L230.895 181.018C230.535 181.522 229.954 181.822 229.334 181.822C228.715 181.822 228.133 181.522 227.773 181.018L223.988 175.717V184.264C223.988 185.323 223.129 186.182 222.07 186.182C221.01 186.182 220.151 185.323 220.151 184.264V169.729C220.151 168.895 220.69 168.157 221.484 167.903Z" fill="#3D3D3D"/>
</g>
<g clip-path="url(#clip2_22854_19606)">
<g filter="url(#filter2_ddii_22854_19606)">
<path fill-rule="evenodd" clip-rule="evenodd" d="M131.804 89.8234C131.804 88.7117 131.805 87.5999 131.798 86.4881C131.792 85.5515 131.782 84.6152 131.756 83.6791C131.701 81.6388 131.581 79.581 131.218 77.5634C130.85 75.5167 130.249 73.6119 129.302 71.7523C128.371 69.9245 127.155 68.252 125.704 66.802C124.253 65.3519 122.58 64.1366 120.752 63.2062C118.89 62.2589 116.983 61.6582 114.934 61.2903C112.917 60.928 110.858 60.8079 108.818 60.7528C107.881 60.7274 106.944 60.7167 106.007 60.711C104.895 60.7041 103.783 60.7047 102.67 60.7047L89.7546 60.6584H80.0946L67.4075 60.7047C66.293 60.7047 65.1785 60.7041 64.0639 60.711C63.125 60.7167 62.1865 60.7274 61.2479 60.7528C59.2028 60.8079 57.1398 60.9281 55.1172 61.2909C53.0656 61.6587 51.1559 62.2592 49.2919 63.2057C47.4595 64.1363 45.7829 65.3517 44.3291 66.802C42.8756 68.2519 41.6572 69.9241 40.7245 71.7515C39.7749 73.612 39.1728 75.518 38.8039 77.5658C38.4407 79.5825 38.3203 81.6397 38.265 83.6791C38.2398 84.6153 38.2288 85.5516 38.2232 86.4881C38.2163 87.6 38.1592 88.9811 38.1592 90.0929L38.1595 102.604L38.1592 112.368L38.2169 125.145C38.2169 126.258 38.2165 127.371 38.2232 128.485C38.2288 129.423 38.2398 130.36 38.2651 131.298C38.3203 133.34 38.4409 135.401 38.8045 137.422C39.1732 139.471 39.7752 141.378 40.7241 143.24C41.6569 145.071 42.8755 146.746 44.3291 148.198C45.7828 149.65 47.459 150.867 49.2909 151.798C51.1561 152.747 53.0667 153.348 55.1196 153.717C57.1413 154.08 59.2036 154.2 61.2479 154.255C62.1865 154.28 63.1251 154.291 64.064 154.297C65.1786 154.304 66.293 154.303 67.4075 154.303L80.2093 154.304H89.8932L102.67 154.303C103.783 154.303 104.895 154.304 106.007 154.297C106.944 154.291 107.881 154.28 108.818 154.255C110.859 154.2 112.918 154.079 114.937 153.716C116.984 153.348 118.89 152.747 120.751 151.799C122.58 150.867 124.253 149.65 125.704 148.198C127.155 146.746 128.371 145.071 129.302 143.241C130.249 141.378 130.85 139.47 131.218 137.419C131.581 135.4 131.701 133.34 131.756 131.298C131.782 130.36 131.792 129.422 131.798 128.485C131.805 127.371 131.804 126.258 131.804 125.145C131.804 125.145 131.804 112.593 131.804 112.368V102.594C131.804 102.427 131.804 89.8234 131.804 89.8234Z" fill="white"/>
</g>
<path fill-rule="evenodd" clip-rule="evenodd" d="M84.6372 72.2245C73.7249 72.2245 60.5619 74.7268 49.7256 80.2345C49.7256 92.1297 49.576 121.764 84.6372 142.013C119.699 121.764 119.55 92.1297 119.55 80.2345C108.713 74.7268 95.5503 72.2245 84.6372 72.2245Z" fill="#68BC71"/>
<path d="M84.6377 72.2245V142.012L84.6367 142.013C49.5759 121.764 49.7256 92.1294 49.7256 80.2343C60.5618 74.7266 73.7246 72.2246 84.6367 72.2245H84.6377Z" fill="#67B279"/>
<path fill-rule="evenodd" clip-rule="evenodd" d="M84.3302 117.088L104.588 90.2607C103.104 89.0916 101.802 89.9167 101.085 90.5555L101.059 90.5576L84.1676 107.823L77.8036 100.297C74.7675 96.8509 70.64 99.4799 69.6758 100.175L84.3302 117.088Z" fill="white"/>
</g>
<path d="M136.98 59.3169C136.371 59.5218 136.043 60.1818 136.248 60.791C136.453 61.4001 137.113 61.7278 137.722 61.5229L137.351 60.4199L136.98 59.3169ZM208.43 99.4387C209.006 99.7243 209.704 99.4889 209.99 98.9131L214.643 89.5295C214.928 88.9537 214.693 88.2555 214.117 87.97C213.541 87.6844 212.843 87.9198 212.557 88.4956L208.422 96.8365L200.081 92.7008C199.505 92.4153 198.807 92.6506 198.521 93.2264C198.236 93.8023 198.471 94.5005 199.047 94.786L208.43 99.4387ZM137.351 60.4199L137.722 61.5229C146.334 58.6253 160.21 57.004 173.742 61.5668C187.208 66.1075 200.442 76.8053 207.845 98.7678L208.947 98.3961L210.05 98.0244C202.422 75.3923 188.66 64.1407 174.486 59.3614C160.378 54.6042 145.97 56.2921 136.98 59.3169L137.351 60.4199Z" fill="#67B279"/>
<path d="M242.67 86.5337L239.179 99.9168" stroke="#67B279" stroke-width="2.32749" stroke-linecap="round"/>
<path d="M262.453 87.6974L249.651 102.244" stroke="#67B279" stroke-width="2.32749" stroke-linecap="round"/>
<path d="M267.689 104.572L256.634 109.227" stroke="#67B279" stroke-width="2.32749" stroke-linecap="round"/>
<path d="M160.22 223.891L163.712 214.051H165.171V215.879H164.646L162.061 223.891H160.22ZM161.98 221.347L162.436 219.99H166.95L167.407 221.347H161.98ZM167.346 223.891L164.762 215.879V214.051H165.689L169.187 223.891H167.346ZM172.978 224.013C172.36 224.013 171.821 223.859 171.362 223.55C170.903 223.236 170.549 222.791 170.298 222.213C170.048 221.636 169.923 220.956 169.923 220.174V220.161C169.923 219.37 170.046 218.688 170.292 218.115C170.542 217.538 170.894 217.095 171.349 216.785C171.808 216.472 172.351 216.315 172.978 216.315C173.319 216.315 173.637 216.369 173.933 216.479C174.228 216.583 174.488 216.733 174.71 216.929C174.938 217.124 175.115 217.356 175.242 217.624H175.365V213.553H177.056V223.891H175.365V222.725H175.242C175.106 222.993 174.926 223.225 174.703 223.42C174.485 223.611 174.231 223.759 173.94 223.863C173.649 223.963 173.328 224.013 172.978 224.013ZM173.51 222.581C173.897 222.581 174.228 222.486 174.506 222.295C174.788 222.1 175.003 221.822 175.153 221.463C175.308 221.099 175.385 220.67 175.385 220.174V220.161C175.385 219.661 175.308 219.231 175.153 218.872C175.003 218.513 174.788 218.236 174.506 218.04C174.228 217.845 173.897 217.747 173.51 217.747C173.128 217.747 172.796 217.845 172.515 218.04C172.237 218.231 172.024 218.508 171.874 218.872C171.724 219.231 171.649 219.661 171.649 220.161V220.174C171.649 220.674 171.724 221.104 171.874 221.463C172.024 221.822 172.237 222.1 172.515 222.295C172.792 222.486 173.124 222.581 173.51 222.581ZM183.582 224.136C182.868 224.136 182.227 224.018 181.659 223.782C181.09 223.541 180.604 223.195 180.199 222.745C179.799 222.295 179.493 221.754 179.279 221.122C179.065 220.486 178.958 219.77 178.958 218.974V218.961C178.958 217.911 179.147 217.001 179.524 216.233C179.902 215.46 180.434 214.863 181.12 214.44C181.811 214.017 182.622 213.806 183.554 213.806C184.313 213.806 184.991 213.942 185.586 214.215C186.186 214.483 186.677 214.86 187.059 215.347C187.441 215.829 187.684 216.39 187.789 217.031L187.802 217.099H186.057L186.036 217.031C185.877 216.49 185.582 216.072 185.15 215.776C184.718 215.476 184.186 215.326 183.554 215.326C182.982 215.326 182.484 215.474 182.061 215.769C181.643 216.065 181.32 216.483 181.093 217.024C180.865 217.565 180.752 218.206 180.752 218.947V218.961C180.752 219.524 180.818 220.031 180.949 220.481C181.081 220.931 181.27 221.315 181.515 221.634C181.765 221.952 182.066 222.195 182.416 222.363C182.77 222.531 183.168 222.616 183.609 222.616C184.109 222.616 184.548 222.518 184.925 222.322C185.307 222.127 185.604 221.854 185.818 221.504C186.036 221.154 186.15 220.747 186.159 220.283V220.079H183.8V218.736H187.877V219.963C187.877 220.599 187.777 221.174 187.577 221.688C187.377 222.202 187.089 222.641 186.711 223.004C186.339 223.368 185.886 223.647 185.354 223.843C184.827 224.038 184.236 224.136 183.582 224.136ZM192.221 224.041C191.666 224.041 191.2 223.934 190.823 223.72C190.446 223.502 190.162 223.186 189.971 222.772C189.78 222.354 189.684 221.85 189.684 221.259V216.438H191.382V220.87C191.382 221.447 191.496 221.881 191.723 222.172C191.951 222.463 192.321 222.609 192.835 222.609C193.107 222.609 193.348 222.568 193.557 222.486C193.771 222.4 193.948 222.277 194.089 222.118C194.23 221.959 194.337 221.768 194.41 221.545C194.483 221.318 194.519 221.063 194.519 220.781V216.438H196.217V223.891H194.519V222.759H194.403C194.289 223.022 194.13 223.252 193.926 223.447C193.721 223.638 193.476 223.786 193.189 223.891C192.903 223.991 192.58 224.041 192.221 224.041ZM200.322 224.013C199.854 224.013 199.433 223.922 199.06 223.741C198.692 223.559 198.401 223.302 198.187 222.97C197.978 222.634 197.874 222.238 197.874 221.784V221.77C197.874 221.329 197.983 220.949 198.201 220.631C198.419 220.308 198.74 220.056 199.163 219.874C199.585 219.693 200.099 219.586 200.704 219.554L203.458 219.383V220.502L200.942 220.665C200.465 220.693 200.113 220.793 199.885 220.965C199.658 221.138 199.544 221.379 199.544 221.688V221.702C199.544 222.02 199.665 222.268 199.906 222.445C200.151 222.622 200.463 222.711 200.84 222.711C201.181 222.711 201.486 222.643 201.754 222.506C202.022 222.37 202.233 222.186 202.388 221.954C202.542 221.718 202.62 221.452 202.62 221.156V218.797C202.62 218.424 202.502 218.14 202.265 217.945C202.029 217.745 201.679 217.645 201.215 217.645C200.829 217.645 200.513 217.713 200.267 217.849C200.022 217.981 199.856 218.17 199.769 218.415L199.763 218.442H198.16L198.167 218.381C198.222 217.963 198.385 217.597 198.658 217.283C198.931 216.97 199.292 216.726 199.742 216.554C200.192 216.381 200.71 216.294 201.297 216.294C201.942 216.294 202.488 216.394 202.933 216.594C203.379 216.79 203.718 217.076 203.949 217.454C204.181 217.826 204.297 218.274 204.297 218.797V223.891H202.62V222.868H202.504C202.367 223.104 202.19 223.309 201.972 223.481C201.758 223.654 201.513 223.786 201.235 223.877C200.958 223.968 200.654 224.013 200.322 224.013ZM206.336 223.891V216.438H208.034V217.583H208.15C208.277 217.183 208.504 216.872 208.832 216.649C209.164 216.426 209.575 216.315 210.066 216.315C210.193 216.315 210.318 216.324 210.441 216.342C210.568 216.356 210.673 216.374 210.755 216.397V217.917C210.618 217.886 210.48 217.863 210.339 217.849C210.202 217.831 210.059 217.822 209.909 217.822C209.532 217.822 209.202 217.892 208.92 218.033C208.638 218.174 208.42 218.376 208.266 218.64C208.111 218.899 208.034 219.206 208.034 219.561V223.891H206.336ZM214.641 224.013C214.023 224.013 213.484 223.859 213.025 223.55C212.566 223.236 212.212 222.791 211.962 222.213C211.711 221.636 211.586 220.956 211.586 220.174V220.161C211.586 219.37 211.709 218.688 211.955 218.115C212.205 217.538 212.557 217.095 213.012 216.785C213.471 216.472 214.014 216.315 214.641 216.315C214.982 216.315 215.3 216.369 215.596 216.479C215.891 216.583 216.151 216.733 216.373 216.929C216.601 217.124 216.778 217.356 216.905 217.624H217.028V213.553H218.719V223.891H217.028V222.725H216.905C216.769 222.993 216.589 223.225 216.366 223.42C216.148 223.611 215.894 223.759 215.603 223.863C215.312 223.963 214.991 224.013 214.641 224.013ZM215.173 222.581C215.56 222.581 215.891 222.486 216.169 222.295C216.451 222.1 216.666 221.822 216.817 221.463C216.971 221.099 217.048 220.67 217.048 220.174V220.161C217.048 219.661 216.971 219.231 216.817 218.872C216.666 218.513 216.451 218.236 216.169 218.04C215.891 217.845 215.56 217.747 215.173 217.747C214.791 217.747 214.459 217.845 214.178 218.04C213.9 218.231 213.687 218.508 213.537 218.872C213.387 219.231 213.312 219.661 213.312 220.161V220.174C213.312 220.674 213.387 221.104 213.537 221.463C213.687 221.822 213.9 222.1 214.178 222.295C214.455 222.486 214.787 222.581 215.173 222.581ZM224.76 223.891V214.051H226.779L229.738 221.627H229.854L232.807 214.051H234.825V223.891H233.243V216.895H232.384L234.129 214.324L230.393 223.891H229.193L225.463 214.324L227.208 216.895H226.342V223.891H224.76ZM237.096 223.891V216.438H238.787V223.891H237.096ZM237.948 215.19C237.671 215.19 237.432 215.092 237.232 214.897C237.032 214.701 236.932 214.467 236.932 214.194C236.932 213.912 237.032 213.676 237.232 213.485C237.432 213.29 237.671 213.192 237.948 213.192C238.225 213.192 238.462 213.29 238.657 213.485C238.857 213.676 238.957 213.912 238.957 214.194C238.957 214.467 238.857 214.701 238.657 214.897C238.462 215.092 238.225 215.19 237.948 215.19ZM240.88 223.891V216.438H242.578V217.583H242.694C242.871 217.179 243.139 216.863 243.499 216.635C243.858 216.408 244.305 216.294 244.842 216.294C245.674 216.294 246.31 216.535 246.751 217.017C247.192 217.499 247.413 218.183 247.413 219.07V223.891H245.715V219.465C245.715 218.883 245.592 218.447 245.346 218.156C245.106 217.865 244.728 217.72 244.215 217.72C243.878 217.72 243.587 217.795 243.342 217.945C243.096 218.095 242.908 218.306 242.776 218.579C242.644 218.852 242.578 219.174 242.578 219.547V223.891H240.88ZM249.438 223.891V216.438H251.129V223.891H249.438ZM250.29 215.19C250.013 215.19 249.774 215.092 249.574 214.897C249.374 214.701 249.274 214.467 249.274 214.194C249.274 213.912 249.374 213.676 249.574 213.485C249.774 213.29 250.013 213.192 250.29 213.192C250.567 213.192 250.804 213.29 250.999 213.485C251.199 213.676 251.299 213.912 251.299 214.194C251.299 214.467 251.199 214.701 250.999 214.897C250.804 215.092 250.567 215.19 250.29 215.19Z" fill="#3D3D3D"/>
<path d="M51.9949 177.341L55.4861 167.501H56.9453V169.329H56.4203L53.836 177.341H51.9949ZM53.7541 174.797L54.211 173.44H58.7251L59.1819 174.797H53.7541ZM59.1205 177.341L56.5362 169.329V167.501H57.4636L60.9616 177.341H59.1205ZM64.7529 177.464C64.1347 177.464 63.596 177.309 63.1368 177C62.6777 176.686 62.3231 176.241 62.0731 175.663C61.8231 175.086 61.6981 174.406 61.6981 173.625V173.611C61.6981 172.82 61.8208 172.138 62.0663 171.565C62.3163 170.988 62.6686 170.545 63.1232 170.236C63.5823 169.922 64.1256 169.765 64.7529 169.765C65.0938 169.765 65.412 169.82 65.7075 169.929C66.003 170.033 66.2621 170.183 66.4849 170.379C66.7122 170.574 66.8895 170.806 67.0167 171.074H67.1395V167.003H68.8306V177.341H67.1395V176.175H67.0167C66.8804 176.443 66.7008 176.675 66.4781 176.87C66.2599 177.061 66.0053 177.209 65.7143 177.314C65.4234 177.414 65.1029 177.464 64.7529 177.464ZM65.2848 176.032C65.6712 176.032 66.003 175.936 66.2803 175.745C66.5622 175.55 66.7781 175.272 66.9281 174.913C67.0827 174.55 67.1599 174.12 67.1599 173.625V173.611C67.1599 173.111 67.0827 172.681 66.9281 172.322C66.7781 171.963 66.5622 171.686 66.2803 171.49C66.003 171.295 65.6712 171.197 65.2848 171.197C64.9029 171.197 64.5711 171.295 64.2892 171.49C64.0119 171.681 63.7983 171.958 63.6482 172.322C63.4982 172.681 63.4232 173.111 63.4232 173.611V173.625C63.4232 174.125 63.4982 174.554 63.6482 174.913C63.7983 175.272 64.0119 175.55 64.2892 175.745C64.5665 175.936 64.8984 176.032 65.2848 176.032ZM75.3562 177.586C74.6425 177.586 74.0015 177.468 73.4333 177.232C72.865 176.991 72.3786 176.645 71.974 176.195C71.574 175.745 71.2671 175.204 71.0535 174.572C70.8398 173.936 70.733 173.22 70.733 172.424V172.411C70.733 171.361 70.9217 170.452 71.299 169.683C71.6763 168.91 72.2081 168.313 72.8946 167.89C73.5855 167.467 74.397 167.256 75.3289 167.256C76.0881 167.256 76.7654 167.392 77.3609 167.665C77.961 167.933 78.4519 168.31 78.8338 168.797C79.2156 169.279 79.4588 169.84 79.5634 170.481L79.577 170.549H77.8314L77.8109 170.481C77.6518 169.94 77.3564 169.522 76.9245 169.226C76.4926 168.926 75.9608 168.776 75.3289 168.776C74.7561 168.776 74.2583 168.924 73.8356 169.22C73.4173 169.515 73.0946 169.933 72.8673 170.474C72.64 171.015 72.5264 171.656 72.5264 172.397V172.411C72.5264 172.975 72.5923 173.481 72.7241 173.931C72.8559 174.381 73.0446 174.766 73.2901 175.084C73.5401 175.402 73.8401 175.645 74.1901 175.813C74.5447 175.982 74.9425 176.066 75.3834 176.066C75.8835 176.066 76.3222 175.968 76.6995 175.772C77.0813 175.577 77.3791 175.304 77.5927 174.954C77.8109 174.604 77.9246 174.197 77.9337 173.734V173.529H75.5744V172.186H79.652V173.413C79.652 174.05 79.552 174.625 79.352 175.138C79.152 175.652 78.8633 176.091 78.486 176.454C78.1132 176.818 77.6609 177.098 77.1291 177.293C76.6017 177.489 76.0108 177.586 75.3562 177.586ZM83.9956 177.491C83.441 177.491 82.9751 177.384 82.5978 177.17C82.2204 176.952 81.9363 176.636 81.7454 176.223C81.5545 175.804 81.459 175.3 81.459 174.709V169.888H83.1569V174.32C83.1569 174.897 83.2705 175.332 83.4978 175.622C83.7251 175.913 84.0956 176.059 84.6093 176.059C84.8821 176.059 85.123 176.018 85.3321 175.936C85.5458 175.85 85.7231 175.727 85.864 175.568C86.0049 175.409 86.1117 175.218 86.1845 174.995C86.2572 174.768 86.2936 174.513 86.2936 174.231V169.888H87.9914V177.341H86.2936V176.209H86.1776C86.064 176.473 85.9049 176.702 85.7003 176.898C85.4958 177.089 85.2503 177.236 84.9639 177.341C84.6775 177.441 84.3547 177.491 83.9956 177.491ZM92.0964 177.464C91.6282 177.464 91.2077 177.373 90.8349 177.191C90.4667 177.009 90.1757 176.752 89.9621 176.42C89.753 176.084 89.6484 175.688 89.6484 175.234V175.22C89.6484 174.779 89.7575 174.4 89.9757 174.081C90.1939 173.759 90.5144 173.506 90.9372 173.325C91.3599 173.143 91.8736 173.036 92.4782 173.004L95.233 172.834V173.952L92.7169 174.116C92.2396 174.143 91.8873 174.243 91.66 174.416C91.4327 174.588 91.319 174.829 91.319 175.138V175.152C91.319 175.47 91.4395 175.718 91.6804 175.895C91.9259 176.073 92.2373 176.161 92.6146 176.161C92.9556 176.161 93.2601 176.093 93.5283 175.957C93.7965 175.82 94.0079 175.636 94.1625 175.404C94.317 175.168 94.3943 174.902 94.3943 174.606V172.247C94.3943 171.874 94.2761 171.59 94.0397 171.395C93.8034 171.195 93.4533 171.095 92.9896 171.095C92.6032 171.095 92.2873 171.163 92.0418 171.299C91.7964 171.431 91.6304 171.62 91.5441 171.865L91.5372 171.893H89.9348L89.9416 171.831C89.9962 171.413 90.1598 171.047 90.4326 170.733C90.7053 170.42 91.0667 170.177 91.5168 170.004C91.9668 169.831 92.4851 169.745 93.0715 169.745C93.717 169.745 94.2625 169.845 94.708 170.045C95.1535 170.24 95.4922 170.527 95.724 170.904C95.9558 171.277 96.0718 171.724 96.0718 172.247V177.341H94.3943V176.318H94.2784C94.142 176.554 93.9647 176.759 93.7465 176.932C93.5329 177.104 93.2874 177.236 93.0101 177.327C92.7328 177.418 92.4282 177.464 92.0964 177.464ZM98.1106 177.341V169.888H99.8085V171.033H99.9244C100.052 170.633 100.279 170.322 100.606 170.099C100.938 169.876 101.35 169.765 101.84 169.765C101.968 169.765 102.093 169.774 102.216 169.792C102.343 169.806 102.447 169.824 102.529 169.847V171.368C102.393 171.336 102.254 171.313 102.113 171.299C101.977 171.281 101.834 171.272 101.684 171.272C101.306 171.272 100.977 171.343 100.695 171.483C100.413 171.624 100.195 171.827 100.04 172.09C99.8857 172.349 99.8085 172.656 99.8085 173.011V177.341H98.1106ZM106.416 177.464C105.798 177.464 105.259 177.309 104.8 177C104.341 176.686 103.986 176.241 103.736 175.663C103.486 175.086 103.361 174.406 103.361 173.625V173.611C103.361 172.82 103.484 172.138 103.729 171.565C103.979 170.988 104.332 170.545 104.786 170.236C105.245 169.922 105.789 169.765 106.416 169.765C106.757 169.765 107.075 169.82 107.371 169.929C107.666 170.033 107.925 170.183 108.148 170.379C108.375 170.574 108.552 170.806 108.68 171.074H108.802V167.003H110.494V177.341H108.802V176.175H108.68C108.543 176.443 108.364 176.675 108.141 176.87C107.923 177.061 107.668 177.209 107.377 177.314C107.086 177.414 106.766 177.464 106.416 177.464ZM106.948 176.032C107.334 176.032 107.666 175.936 107.943 175.745C108.225 175.55 108.441 175.272 108.591 174.913C108.746 174.55 108.823 174.12 108.823 173.625V173.611C108.823 173.111 108.746 172.681 108.591 172.322C108.441 171.963 108.225 171.686 107.943 171.49C107.666 171.295 107.334 171.197 106.948 171.197C106.566 171.197 106.234 171.295 105.952 171.49C105.675 171.681 105.461 171.958 105.311 172.322C105.161 172.681 105.086 173.111 105.086 173.611V173.625C105.086 174.125 105.161 174.554 105.311 174.913C105.461 175.272 105.675 175.55 105.952 175.745C106.23 175.936 106.561 176.032 106.948 176.032ZM53.3382 195.341V189.204H52.1176V187.888H53.3382V187.151C53.3382 186.651 53.4223 186.238 53.5905 185.91C53.7632 185.583 54.0292 185.34 54.3883 185.181C54.7474 185.017 55.202 184.935 55.752 184.935C55.9339 184.935 56.1021 184.942 56.2566 184.956C56.4112 184.965 56.5544 184.981 56.6862 185.003V186.19C56.6226 186.181 56.5408 186.174 56.4407 186.17C56.3407 186.16 56.2316 186.156 56.1134 186.156C55.7134 186.156 55.4293 186.249 55.2611 186.435C55.0929 186.617 55.0088 186.888 55.0088 187.247V187.888H56.6249V189.204H55.0361V195.341H53.3382ZM61.2071 195.491C60.4661 195.491 59.8274 195.336 59.291 195.027C58.7546 194.713 58.3409 194.268 58.05 193.691C57.7636 193.113 57.6204 192.422 57.6204 191.618V191.604C57.6204 190.809 57.7659 190.122 58.0568 189.545C58.3477 188.963 58.7591 188.517 59.291 188.208C59.8274 187.899 60.4661 187.745 61.2071 187.745C61.9481 187.745 62.5845 187.899 63.1164 188.208C63.6528 188.517 64.0665 188.961 64.3574 189.538C64.6483 190.115 64.7938 190.804 64.7938 191.604V191.618C64.7938 192.422 64.6483 193.113 64.3574 193.691C64.071 194.268 63.6596 194.713 63.1232 195.027C62.5913 195.336 61.9526 195.491 61.2071 195.491ZM61.2071 194.113C61.5981 194.113 61.9299 194.016 62.2027 193.82C62.48 193.62 62.6913 193.336 62.8368 192.968C62.9823 192.595 63.055 192.147 63.055 191.625V191.611C63.055 191.084 62.9823 190.636 62.8368 190.268C62.6913 189.895 62.48 189.611 62.2027 189.415C61.9299 189.215 61.5981 189.115 61.2071 189.115C60.8162 189.115 60.482 189.215 60.2047 189.415C59.9274 189.611 59.7161 189.895 59.5706 190.268C59.4251 190.636 59.3524 191.084 59.3524 191.611V191.625C59.3524 192.147 59.4251 192.595 59.5706 192.968C59.7161 193.341 59.9252 193.625 60.1979 193.82C60.4752 194.016 60.8116 194.113 61.2071 194.113ZM66.4985 195.341V187.888H68.1964V189.033H68.3123C68.4396 188.633 68.6669 188.322 68.9942 188.099C69.3261 187.876 69.7375 187.765 70.2284 187.765C70.3557 187.765 70.4807 187.774 70.6034 187.792C70.7307 187.806 70.8353 187.824 70.9171 187.847V189.368C70.7807 189.336 70.6421 189.313 70.5012 189.299C70.3648 189.281 70.2216 189.272 70.0716 189.272C69.6943 189.272 69.3647 189.343 69.0828 189.483C68.801 189.624 68.5828 189.827 68.4282 190.09C68.2737 190.349 68.1964 190.656 68.1964 191.011V195.341H66.4985ZM79.6111 195.586C78.8474 195.586 78.1837 195.468 77.62 195.232C77.0609 194.995 76.6199 194.666 76.2972 194.243C75.9744 193.82 75.7926 193.327 75.7517 192.763L75.7448 192.668H77.4495L77.4564 192.736C77.4836 193.013 77.5927 193.254 77.7837 193.459C77.9791 193.663 78.2383 193.825 78.561 193.943C78.8838 194.057 79.252 194.113 79.6657 194.113C80.0612 194.113 80.4112 194.052 80.7158 193.929C81.0203 193.807 81.259 193.638 81.4317 193.425C81.6045 193.207 81.6909 192.957 81.6909 192.675V192.668C81.6909 192.313 81.5522 192.025 81.2749 191.802C80.9976 191.575 80.5407 191.393 79.9043 191.256L78.8474 191.038C77.8382 190.824 77.1041 190.484 76.6449 190.015C76.1903 189.543 75.963 188.94 75.963 188.208V188.202C75.963 187.615 76.1176 187.101 76.4267 186.66C76.7404 186.22 77.17 185.876 77.7155 185.631C78.2655 185.381 78.8951 185.256 79.6043 185.256C80.3316 185.256 80.9612 185.379 81.4931 185.624C82.025 185.865 82.4432 186.195 82.7478 186.613C83.0523 187.031 83.2228 187.504 83.2592 188.031L83.266 188.12H81.5886L81.5749 188.038C81.534 187.779 81.4272 187.554 81.2544 187.363C81.0863 187.167 80.8612 187.013 80.5794 186.899C80.2975 186.785 79.968 186.729 79.5907 186.729C79.2315 186.729 78.911 186.785 78.6292 186.899C78.3474 187.008 78.1246 187.163 77.961 187.363C77.8019 187.563 77.7223 187.804 77.7223 188.086V188.092C77.7223 188.438 77.8564 188.724 78.1246 188.952C78.3974 189.179 78.8406 189.356 79.4543 189.483L80.5112 189.708C81.2022 189.854 81.7636 190.047 82.1954 190.288C82.6273 190.529 82.9432 190.829 83.1433 191.188C83.3478 191.543 83.4501 191.97 83.4501 192.47V192.477C83.4501 193.113 83.2933 193.663 82.9796 194.127C82.6705 194.591 82.2273 194.95 81.6499 195.204C81.0772 195.459 80.3975 195.586 79.6111 195.586ZM87.2141 195.464C86.7459 195.464 86.3254 195.373 85.9526 195.191C85.5844 195.009 85.2935 194.752 85.0798 194.42C84.8707 194.084 84.7661 193.688 84.7661 193.234V193.22C84.7661 192.779 84.8752 192.4 85.0934 192.081C85.3116 191.759 85.6321 191.506 86.0549 191.325C86.4777 191.143 86.9914 191.036 87.596 191.004L90.3508 190.834V191.952L87.8346 192.116C87.3573 192.143 87.005 192.243 86.7777 192.416C86.5504 192.588 86.4368 192.829 86.4368 193.138V193.152C86.4368 193.47 86.5572 193.718 86.7982 193.895C87.0436 194.073 87.355 194.161 87.7323 194.161C88.0733 194.161 88.3778 194.093 88.6461 193.957C88.9143 193.82 89.1256 193.636 89.2802 193.404C89.4348 193.168 89.512 192.902 89.512 192.606V190.247C89.512 189.874 89.3939 189.59 89.1575 189.395C88.9211 189.195 88.571 189.095 88.1074 189.095C87.721 189.095 87.405 189.163 87.1595 189.299C86.9141 189.431 86.7481 189.62 86.6618 189.865L86.655 189.893H85.0525L85.0594 189.831C85.1139 189.413 85.2776 189.047 85.5503 188.733C85.8231 188.42 86.1845 188.177 86.6345 188.004C87.0845 187.831 87.6028 187.745 88.1892 187.745C88.8347 187.745 89.3802 187.845 89.8257 188.045C90.2712 188.24 90.6099 188.527 90.8417 188.904C91.0736 189.277 91.1895 189.724 91.1895 190.247V195.341H89.512V194.318H89.3961C89.2597 194.554 89.0825 194.759 88.8643 194.932C88.6506 195.104 88.4051 195.236 88.1278 195.327C87.8505 195.418 87.5459 195.464 87.2141 195.464ZM93.7738 195.341V189.204H92.5532V187.888H93.7738V187.151C93.7738 186.651 93.8579 186.238 94.0261 185.91C94.1988 185.583 94.4648 185.34 94.8239 185.181C95.183 185.017 95.6376 184.935 96.1877 184.935C96.3695 184.935 96.5377 184.942 96.6923 184.956C96.8468 184.965 96.99 184.981 97.1219 185.003V186.19C97.0582 186.181 96.9764 186.174 96.8764 186.17C96.7764 186.16 96.6673 186.156 96.5491 186.156C96.149 186.156 95.8649 186.249 95.6967 186.435C95.5285 186.617 95.4444 186.888 95.4444 187.247V187.888H97.0605V189.204H95.4717V195.341H93.7738ZM100.497 195.464C100.029 195.464 99.6085 195.373 99.2357 195.191C98.8675 195.009 98.5765 194.752 98.3629 194.42C98.1538 194.084 98.0492 193.688 98.0492 193.234V193.22C98.0492 192.779 98.1583 192.4 98.3765 192.081C98.5947 191.759 98.9152 191.506 99.338 191.325C99.7607 191.143 100.274 191.036 100.879 191.004L103.634 190.834V191.952L101.118 192.116C100.64 192.143 100.288 192.243 100.061 192.416C99.8335 192.588 99.7198 192.829 99.7198 193.138V193.152C99.7198 193.47 99.8403 193.718 100.081 193.895C100.327 194.073 100.638 194.161 101.015 194.161C101.356 194.161 101.661 194.093 101.929 193.957C102.197 193.82 102.409 193.636 102.563 193.404C102.718 193.168 102.795 192.902 102.795 192.606V190.247C102.795 189.874 102.677 189.59 102.441 189.395C102.204 189.195 101.854 189.095 101.39 189.095C101.004 189.095 100.688 189.163 100.443 189.299C100.197 189.431 100.031 189.62 99.9448 189.865L99.938 189.893H98.3356L98.3424 189.831C98.397 189.413 98.5606 189.047 98.8334 188.733C99.1061 188.42 99.4675 188.177 99.9176 188.004C100.368 187.831 100.886 187.745 101.472 187.745C102.118 187.745 102.663 187.845 103.109 188.045C103.554 188.24 103.893 188.527 104.125 188.904C104.357 189.277 104.473 189.724 104.473 190.247V195.341H102.795V194.318H102.679C102.543 194.554 102.366 194.759 102.147 194.932C101.934 195.104 101.688 195.236 101.411 195.327C101.134 195.418 100.829 195.464 100.497 195.464ZM106.511 195.341V187.888H108.209V189.033H108.325C108.452 188.633 108.68 188.322 109.007 188.099C109.339 187.876 109.75 187.765 110.241 187.765C110.369 187.765 110.494 187.774 110.616 187.792C110.744 187.806 110.848 187.824 110.93 187.847V189.368C110.794 189.336 110.655 189.313 110.514 189.299C110.378 189.281 110.234 189.272 110.084 189.272C109.707 189.272 109.378 189.343 109.096 189.483C108.814 189.624 108.596 189.827 108.441 190.09C108.287 190.349 108.209 190.656 108.209 191.011V195.341H106.511ZM112.328 195.341V187.888H114.019V195.341H112.328ZM113.18 186.64C112.903 186.64 112.664 186.542 112.464 186.347C112.264 186.151 112.164 185.917 112.164 185.644C112.164 185.363 112.264 185.126 112.464 184.935C112.664 184.74 112.903 184.642 113.18 184.642C113.457 184.642 113.694 184.74 113.889 184.935C114.089 185.126 114.189 185.363 114.189 185.644C114.189 185.917 114.089 186.151 113.889 186.347C113.694 186.542 113.457 186.64 113.18 186.64Z" fill="#3D3D3D"/>
</g>
</g>
<defs>
<filter id="filter0_d_22854_19606" x="13.8269" y="0.416382" width="263.339" height="261.482" filterUnits="userSpaceOnUse" color-interpolation-filters="sRGB">
<feFlood flood-opacity="0" result="BackgroundImageFix"/>
<feColorMatrix in="SourceAlpha" type="matrix" values="0 0 0 0 0 0 0 0 0 0 0 0 0 0 0 0 0 0 127 0" result="hardAlpha"/>
<feOffset dy="3.65749"/>
<feGaussianBlur stdDeviation="1.82874"/>
<feComposite in2="hardAlpha" operator="out"/>
<feColorMatrix type="matrix" values="0 0 0 0 0 0 0 0 0 0 0 0 0 0 0 0 0 0 0.25 0"/>
<feBlend mode="normal" in2="BackgroundImageFix" result="effect1_dropShadow_22854_19606"/>
<feBlend mode="normal" in="SourceGraphic" in2="effect1_dropShadow_22854_19606" result="shape"/>
</filter>
<filter id="filter1_ddii_22854_19606" x="145.534" y="96.9674" width="120.955" height="120.954" filterUnits="userSpaceOnUse" color-interpolation-filters="sRGB">
<feFlood flood-opacity="0" result="BackgroundImageFix"/>
<feColorMatrix in="SourceAlpha" type="matrix" values="0 0 0 0 0 0 0 0 0 0 0 0 0 0 0 0 0 0 127 0" result="hardAlpha"/>
<feOffset dy="1.13647"/>
<feGaussianBlur stdDeviation="0.568235"/>
<feColorMatrix type="matrix" values="0 0 0 0 0 0 0 0 0 0 0 0 0 0 0 0 0 0 0.3 0"/>
<feBlend mode="normal" in2="BackgroundImageFix" result="effect1_dropShadow_22854_19606"/>
<feColorMatrix in="SourceAlpha" type="matrix" values="0 0 0 0 0 0 0 0 0 0 0 0 0 0 0 0 0 0 127 0" result="hardAlpha"/>
<feOffset dy="3.41365"/>
<feGaussianBlur stdDeviation="6.82731"/>
<feComposite in2="hardAlpha" operator="out"/>
<feColorMatrix type="matrix" values="0 0 0 0 0.403922 0 0 0 0 0.698039 0 0 0 0 0.47451 0 0 0 0.3 0"/>
<feBlend mode="normal" in2="effect1_dropShadow_22854_19606" result="effect2_dropShadow_22854_19606"/>
<feBlend mode="normal" in="SourceGraphic" in2="effect2_dropShadow_22854_19606" result="shape"/>
<feColorMatrix in="SourceAlpha" type="matrix" values="0 0 0 0 0 0 0 0 0 0 0 0 0 0 0 0 0 0 127 0" result="hardAlpha"/>
<feOffset dy="0.454588"/>
<feGaussianBlur stdDeviation="0.113647"/>
<feComposite in2="hardAlpha" operator="arithmetic" k2="-1" k3="1"/>
<feColorMatrix type="matrix" values="0 0 0 0 1 0 0 0 0 1 0 0 0 0 1 0 0 0 1 0"/>
<feBlend mode="normal" in2="shape" result="effect3_innerShadow_22854_19606"/>
<feColorMatrix in="SourceAlpha" type="matrix" values="0 0 0 0 0 0 0 0 0 0 0 0 0 0 0 0 0 0 127 0" result="hardAlpha"/>
<feOffset dy="-0.340941"/>
<feGaussianBlur stdDeviation="0.227294"/>
<feComposite in2="hardAlpha" operator="arithmetic" k2="-1" k3="1"/>
<feColorMatrix type="matrix" values="0 0 0 0 0 0 0 0 0 0 0 0 0 0 0 0 0 0 0.25 0"/>
<feBlend mode="normal" in2="effect3_innerShadow_22854_19606" result="effect4_innerShadow_22854_19606"/>
</filter>
<filter id="filter2_ddii_22854_19606" x="24.5046" y="50.4175" width="120.955" height="120.954" filterUnits="userSpaceOnUse" color-interpolation-filters="sRGB">
<feFlood flood-opacity="0" result="BackgroundImageFix"/>
<feColorMatrix in="SourceAlpha" type="matrix" values="0 0 0 0 0 0 0 0 0 0 0 0 0 0 0 0 0 0 127 0" result="hardAlpha"/>
<feOffset dy="1.13647"/>
<feGaussianBlur stdDeviation="0.568235"/>
<feColorMatrix type="matrix" values="0 0 0 0 0 0 0 0 0 0 0 0 0 0 0 0 0 0 0.3 0"/>
<feBlend mode="normal" in2="BackgroundImageFix" result="effect1_dropShadow_22854_19606"/>
<feColorMatrix in="SourceAlpha" type="matrix" values="0 0 0 0 0 0 0 0 0 0 0 0 0 0 0 0 0 0 127 0" result="hardAlpha"/>
<feOffset dy="3.41365"/>
<feGaussianBlur stdDeviation="6.82731"/>
<feComposite in2="hardAlpha" operator="out"/>
<feColorMatrix type="matrix" values="0 0 0 0 0.403922 0 0 0 0 0.698039 0 0 0 0 0.47451 0 0 0 0.3 0"/>
<feBlend mode="normal" in2="effect1_dropShadow_22854_19606" result="effect2_dropShadow_22854_19606"/>
<feBlend mode="normal" in="SourceGraphic" in2="effect2_dropShadow_22854_19606" result="shape"/>
<feColorMatrix in="SourceAlpha" type="matrix" values="0 0 0 0 0 0 0 0 0 0 0 0 0 0 0 0 0 0 127 0" result="hardAlpha"/>
<feOffset dy="0.454588"/>
<feGaussianBlur stdDeviation="0.113647"/>
<feComposite in2="hardAlpha" operator="arithmetic" k2="-1" k3="1"/>
<feColorMatrix type="matrix" values="0 0 0 0 1 0 0 0 0 1 0 0 0 0 1 0 0 0 1 0"/>
<feBlend mode="normal" in2="shape" result="effect3_innerShadow_22854_19606"/>
<feColorMatrix in="SourceAlpha" type="matrix" values="0 0 0 0 0 0 0 0 0 0 0 0 0 0 0 0 0 0 127 0" result="hardAlpha"/>
<feOffset dy="-0.340941"/>
<feGaussianBlur stdDeviation="0.227294"/>
<feComposite in2="hardAlpha" operator="arithmetic" k2="-1" k3="1"/>
<feColorMatrix type="matrix" values="0 0 0 0 0 0 0 0 0 0 0 0 0 0 0 0 0 0 0.25 0"/>
<feBlend mode="normal" in2="effect3_innerShadow_22854_19606" result="effect4_innerShadow_22854_19606"/>
</filter>
<linearGradient id="paint0_linear_22854_19606" x1="205.667" y1="120.583" x2="205.667" y2="190.475" gradientUnits="userSpaceOnUse">
<stop stop-color="#67B279"/>
<stop offset="1" stop-color="#589968"/>
</linearGradient>
<clipPath id="clip0_22854_19606">
<rect width="300" height="255" fill="white"/>
</clipPath>
<clipPath id="clip1_22854_19606">
<rect width="116.375" height="116.375" fill="white" transform="translate(147.824 95.8436)"/>
</clipPath>
<clipPath id="clip2_22854_19606">
<rect width="116.375" height="116.375" fill="white" transform="translate(26.7939 49.2937)"/>
</clipPath>
</defs>
</svg>
