<?xml version="1.0" encoding="UTF-8"?>
<svg width="108px" height="108px" viewBox="0 0 108 108" version="1.1" xmlns="http://www.w3.org/2000/svg" xmlns:xlink="http://www.w3.org/1999/xlink">
    <title>Group 17</title>
    <g id="Illustrations" stroke="none" stroke-width="1" fill="none" fill-rule="evenodd">
        <g id="Group-17" transform="translate(0.722030, 0.700000)">
            <g id="Group-14">
                <g id="Group" transform="translate(0.900000, 0.200000)" fill="#878787" fill-opacity="0.01">
                    <g id="Atoms/Plates/Transperent">
                        <rect id="Rectangle" style="mix-blend-mode: screen;" x="0" y="0" width="106" height="106"></rect>
                    </g>
                </g>
                <path d="M39.1,95 L68.7,95 C71.6,95 73.9,97.3 73.9,100.2 L73.9,100.2 C73.9,103.1 71.6,105.4 68.7,105.4 L39.1,105.4 C36.2,105.4 33.9,103.1 33.9,100.2 L33.9,100.2 C33.9,97.3 36.2,95 39.1,95 Z" id="Rectangle-8" fill="#99EAA8"></path>
                <circle id="Oval-2" fill="#CCCCCC" cx="29" cy="65.6" r="1.6"></circle>
                <circle id="Oval-2_1_" fill="#CCCCCC" cx="87.4" cy="50.1" r="1.6"></circle>
                <circle id="Oval-4_1_" stroke="#CCCCCC" stroke-width="2.4" cx="97.4" cy="31.6" r="2.6"></circle>
                <line x1="29.5" y1="40.2" x2="78.7" y2="40.2" id="Line" stroke="#CCCCCC" stroke-width="2.4"></line>
                <path d="M47,58.3 C47,58.2 47.2,58.6 47,59.3 L47,87.5 C47,88.6 47.9,89.5 49,89.5 C49.4,89.5 49.8,89.4 50.1,89.2 L59.6,83.1 C60.2,82.7 60.5,82.1 60.5,81.4 L60.5,59.3 C60.3,58.6 60.5,58.2 60.5,58.3 L84.9,34.7 C85.7,33.9 85.7,32.7 84.9,31.9 C84.5,31.5 84,31.3 83.5,31.3 L24,31.3 C22.9,31.3 22,32.2 22,33.3 C22,33.8 22.2,34.4 22.6,34.7 L47,58.3 Z" id="Shape" stroke="#CCCCCC" stroke-width="2.4"></path>
            </g>
            <g id="empty-filters_white" transform="translate(21.277970, 4.300000)" stroke="#CCCCCC" stroke-width="2.4">
                <ellipse id="Oval-4" cx="61.72203" cy="8" rx="7.7" ry="7.9"></ellipse>
            </g>
        </g>
    </g>
</svg>