<?xml version="1.0" encoding="UTF-8"?>
<svg width="107px" height="108px" viewBox="0 0 107 108" version="1.1" xmlns="http://www.w3.org/2000/svg" xmlns:xlink="http://www.w3.org/1999/xlink">
    <title>Group 13</title>
    <g id="Illustrations" stroke="none" stroke-width="1" fill="none" fill-rule="evenodd">
        <g id="Group-13" transform="translate(0.622030, 0.900000)">
            <g id="Group" fill="#878787" fill-opacity="0.01">
                <g id="Atoms/Plates/Transperent">
                    <rect id="Rectangle" style="mix-blend-mode: screen;" x="0" y="0" width="106" height="106"></rect>
                </g>
            </g>
            <g id="empty-filters" transform="translate(20.377970, 4.100000)">
                <path d="M17.82203,90.7 L47.42203,90.7 C50.32203,90.7 52.62203,93 52.62203,95.9 L52.62203,95.9 C52.62203,98.8 50.32203,101.1 47.42203,101.1 L17.82203,101.1 C14.92203,101.1 12.62203,98.8 12.62203,95.9 L12.62203,95.9 C12.62203,93 14.92203,90.7 17.82203,90.7 Z" id="Rectangle-8" fill="#99EAA8"></path>
                <circle id="Oval-2" fill="#3B3B3B" cx="7.72203" cy="61.3" r="1.6"></circle>
                <circle id="Oval-2_1_" fill="#3B3B3B" cx="66.12203" cy="45.8" r="1.6"></circle>
                <ellipse id="Oval-4" stroke="#3B3B3B" stroke-width="2.4" cx="61.72203" cy="8" rx="7.7" ry="7.9"></ellipse>
                <circle id="Oval-4_1_" stroke="#3B3B3B" stroke-width="2.4" cx="76.12203" cy="27.3" r="2.6"></circle>
                <line x1="8.22203" y1="35.9" x2="57.42203" y2="35.9" id="Line" stroke="#3B3B3B" stroke-width="2.4" stroke-linecap="square"></line>
                <path d="M25.72203,54 C25.72203,53.9 25.92203,54.3 25.72203,55 L25.72203,83.2 C25.72203,84.3 26.62203,85.2 27.72203,85.2 C28.12203,85.2 28.52203,85.1 28.82203,84.9 L38.32203,78.8 C38.92203,78.4 39.22203,77.8 39.22203,77.1 L39.22203,55 C39.02203,54.3 39.22203,53.9 39.22203,54 L63.62203,30.4 C64.42203,29.6 64.42203,28.4 63.62203,27.6 C63.22203,27.2 62.72203,27 62.22203,27 L2.72203,27 C1.62203,27 0.72203,27.9 0.72203,29 C0.72203,29.5 0.92203,30.1 1.32203,30.4 L25.72203,54 Z" id="Shape" stroke="#3B3B3B" stroke-width="2.4"></path>
            </g>
        </g>
    </g>
</svg>