<svg viewBox="0 0 228 244" xmlns="http://www.w3.org/2000/svg" xmlns:xlink="http://www.w3.org/1999/xlink"><defs><path d="M19 0h30c10.493 0 19 8.507 19 19v21c0 10.493-8.507 19-19 19H19C8.507 59 0 50.493 0 40V19C0 8.507 8.507 0 19 0z" id="a"/></defs><g transform="translate(0 -1)" fill="none" fill-rule="evenodd"><g opacity=".4" transform="translate(0 16)"><path d="M0 31h195v131a6 6 0 0 1-6 6H6a6 6 0 0 1-6-6V31zm19 11a6 6 0 0 0-6 6v18a6 6 0 0 0 6 6h157a6 6 0 0 0 6-6V48a6 6 0 0 0-6-6H19zm0 42a6 6 0 0 0-6 6v18a6 6 0 0 0 6 6h157a6 6 0 0 0 6-6V90a6 6 0 0 0-6-6H19zm0 42a6 6 0 0 0-6 6v18a6 6 0 0 0 6 6h157a6 6 0 0 0 6-6v-18a6 6 0 0 0-6-6H19z" fill="#888" opacity=".3"/><path d="M6 0h183a6 6 0 0 1 6 6v25H0V6a6 6 0 0 1 6-6z" fill="#D8D8D8" opacity=".3"/><circle fill="#4D4D4D" opacity=".5" cx="15" cy="15" r="4"/><circle fill="#4D4D4D" opacity=".5" cx="28" cy="15" r="4"/><circle fill="#4D4D4D" opacity=".5" cx="41" cy="15" r="4"/></g><g transform="translate(162 16)"><ellipse fill="#000" opacity=".2" cx="21" cy="224" rx="14" ry="2"/><path d="M21.098 7.238V223.25A5.4 5.4 0 0 1 15 217.895V12.593a5.4 5.4 0 0 1 6.098-5.355z" fill="#97A198" fill-rule="nonzero"/><path d="M47.637 59.169C43.585 45.53 30.954 35.584 16 35.584A32.865 32.865 0 0 0 1.363 39 33.006 33.006 0 0 1 0 29.584c0-3.271.476-6.432 1.363-9.415A32.865 32.865 0 0 0 16 23.584c14.954 0 27.585-9.946 31.637-23.584C58.52 5.394 66 16.616 66 29.584c0 12.969-7.48 24.19-18.363 29.585z" fill="silver"/><circle fill="#97A198" cx="27" cy="29" r="7"/><path d="M6.81 36.881A32.775 32.775 0 0 0 1.362 39 33.006 33.006 0 0 1 0 29.584c0-3.271.476-6.432 1.363-9.415a32.775 32.775 0 0 0 5.446 2.119A33.11 33.11 0 0 0 6 29.584c0 2.508.28 4.95.81 7.297zm39.768 19.271C54.719 50.142 60 40.48 60 29.584 60 18.69 54.72 9.026 46.578 3.017c.4-.983.754-1.99 1.06-3.017C58.518 5.394 66 16.616 66 29.584c0 12.969-7.48 24.19-18.363 29.585a32.748 32.748 0 0 0-1.059-3.017z" fill="#D8D8D8"/><path d="M21 7.238a5.4 5.4 0 0 1 6.098 5.355v205.302A5.4 5.4 0 0 1 21 223.25V7.238z" fill="#B4BFB5" fill-rule="nonzero"/><path d="M15 18.584h12a3 3 0 0 1 3 3v17a3 3 0 0 1-3 3H15a3 3 0 0 1-3-3v-17a3 3 0 0 1 3-3z" fill="#66B279"/><path d="M20 18.584h7a3 3 0 0 1 3 3v17a3 3 0 0 1-3 3h-7a3 3 0 0 1-3-3v-17a3 3 0 0 1 3-3z" fill="#68BC71"/></g><g transform="translate(16)"><ellipse fill="#000" opacity=".2" cx="81" cy="241" rx="56" ry="4"/><g transform="translate(96.938 83.328)" fill-rule="nonzero"><path d="M16.235 23.545a12.87 12.87 0 0 1 .003 0h-.003zm.484-.174c1.375-.086 3.204-.331 5.327-.727 4.67-.872 10.239-2.368 15.61-4.227C48.613 14.626 56.92 9.76 57.849 7.872 60.916 1.626 68.466-.95 74.712 2.118c6.246 3.068 8.822 10.619 5.754 16.865-4.892 9.96-17.5 17.342-34.568 23.248-14.534 5.03-28.77 7.685-36.257 5.636C2.93 46.03-1.022 39.099.815 32.387c1.778-6.497 8.33-10.408 14.835-8.984.253.005.617-.003 1.069-.032z" fill="#CDCDCD"/><path d="M79.041 5.608c-4.829.991-9.148 3.96-11.497 8.44-1.238 2.361-12.317 8.44-26.926 13.176-7.163 2.323-14.589 4.193-20.817 5.282-2.83.495-5.27.8-7.103.909a18.95 18.95 0 0 1-1.426.04A17.753 17.753 0 0 0 .411 34.65c.064-.752.198-1.509.404-2.263 1.778-6.497 8.33-10.408 14.835-8.984.253.005.617-.003 1.069-.032 1.375-.086 3.204-.331 5.327-.727 4.67-.872 10.239-2.368 15.61-4.227C48.613 14.626 56.92 9.76 57.849 7.872 60.916 1.626 68.466-.95 74.712 2.118a12.55 12.55 0 0 1 4.33 3.49z" fill="#FFF" opacity=".278"/></g><path d="M149.128 95.328c4.588-2.394 8.791-6.033 10.183-8.948h9.345a5.043 5.043 0 0 1 5.043 5.043v.572a5.043 5.043 0 0 1-5.043 5.043 5.043 5.043 0 0 1 5.043 5.043v.572a5.043 5.043 0 0 1-5.043 5.043 5.043 5.043 0 0 1 5.043 5.043v.572a5.043 5.043 0 0 1-5.043 5.043h-15.744a5.043 5.043 0 0 1-5.043-5.043v-.572a5.043 5.043 0 0 1 5.043-5.043 5.043 5.043 0 0 1-5.043-5.043v-.572a5.043 5.043 0 0 1 5.043-5.043 5.03 5.03 0 0 1-3.784-1.71z" fill="#3D3D3D" opacity=".188"/><g transform="rotate(-180 91.619 56.608)"><path d="M5.043 0h21.804a5.043 5.043 0 0 1 5.043 5.043v.572a5.043 5.043 0 0 1-5.043 5.043H5.043A5.043 5.043 0 0 1 0 5.615v-.572A5.043 5.043 0 0 1 5.043 0z" fill="#E0D9BA"/><path d="M11.103 0h15.744a5.043 5.043 0 0 1 5.043 5.043v.572a5.043 5.043 0 0 1-5.043 5.043H11.103A5.043 5.043 0 0 1 6.06 5.615v-.572A5.043 5.043 0 0 1 11.103 0z" fill="#F8F0CF"/><g transform="translate(0 10.658)"><path d="M5.043 0h21.804a5.043 5.043 0 0 1 5.043 5.043v.572a5.043 5.043 0 0 1-5.043 5.043H5.043A5.043 5.043 0 0 1 0 5.615v-.572A5.043 5.043 0 0 1 5.043 0z" fill="#E0D9BA"/><path d="M11.103 0h15.744a5.043 5.043 0 0 1 5.043 5.043v.572a5.043 5.043 0 0 1-5.043 5.043H11.103A5.043 5.043 0 0 1 6.06 5.615v-.572A5.043 5.043 0 0 1 11.103 0z" fill="#F8F0CF"/></g><g transform="translate(0 21.316)"><path d="M5.043 0h21.804a5.043 5.043 0 0 1 5.043 5.043v.572a5.043 5.043 0 0 1-5.043 5.043H5.043A5.043 5.043 0 0 1 0 5.615v-.572A5.043 5.043 0 0 1 5.043 0z" fill="#E0D9BA"/><path d="M11.103 0h15.744a5.043 5.043 0 0 1 5.043 5.043v.572a5.043 5.043 0 0 1-5.043 5.043H11.103A5.043 5.043 0 0 1 6.06 5.615v-.572A5.043 5.043 0 0 1 11.103 0z" fill="#F8F0CF"/></g></g><path d="M42.463 107.679l1.232 22.766c-.914.05-2.302.802-4.12 2.687-2.334 2.42-4.702 6.123-6.82 10.712-4.057 8.793-6.662 19.817-6.593 26.565l-22.799.232c-.105-10.301 3.28-24.623 8.69-36.35 7.172-15.545 17.154-25.895 30.41-26.612z" fill="#CDCDCD" fill-rule="nonzero"/><path d="M27.154 161.328c-.665 3.401-1.018 6.543-.992 9.08l-22.799.233c-.029-2.844.208-5.995.68-9.313h23.111z" fill="#000" fill-rule="nonzero" opacity=".107"/><path d="M42.713 112.303c-9.928 3.306-17.707 12.565-23.594 25.324-4.836 10.482-8.053 23.037-8.606 32.941l-7.15.073c-.105-10.301 3.28-24.623 8.69-36.35 7.172-15.545 17.154-25.895 30.41-26.612l.25 4.624z" fill="#949494" fill-rule="nonzero" opacity=".151"/><g transform="translate(38.693 171.881)"><path d="M16.844 0h3.37C28.275 0 34.81 6.536 34.81 14.598V52.67c0 8.063-6.535 14.598-14.598 14.598h-3.369c-8.062 0-14.598-6.535-14.598-14.598V14.6C2.246 6.535 8.782 0 16.844 0z" fill="#5C855F"/><path fill="#B4BFB5" d="M34.8114117 62.745266L2.24589753 62.745266 2.24589753 37.307996 34.8114117 37.307996 34.8114117 62.745266z"/><path fill="#000" opacity=".155" d="M2.24589753 7.34854466L15.7212827 7.34854466 15.7212827 68.9632653 2.24589753 68.9632653z"/><path fill="#4A4A4A" d="M1.84119046 65.0144544L35.2038617 65.0144544 35.2038617 68.7069727 1.84119046 68.7069727z"/><path d="M.251 65.114c-.025-.354-.037-.71-.037-1.07 0-9.157 8.195-16.58 18.304-16.58 10.11 0 18.304 7.423 18.304 16.58 0 .36-.012.716-.037 1.07H.25z" fill="#D0DCD1"/><path d="M15.543 47.681c-3.512 4.202-5.565 9.28-5.565 14.749 0 .906.057 1.801.167 2.684H.25c-.025-.354-.037-.71-.037-1.07 0-8.24 6.635-15.075 15.329-16.363z" fill="#393939" opacity=".278"/></g><g transform="translate(85.171 171.881)"><path d="M16.844 0h3.37C28.275 0 34.81 6.536 34.81 14.598V52.67c0 8.063-6.535 14.598-14.598 14.598h-3.369c-8.062 0-14.598-6.535-14.598-14.598V14.6C2.246 6.535 8.782 0 16.844 0z" fill="#5C855F"/><path fill="#B4BFB5" d="M34.8114117 62.745266L2.24589753 62.745266 2.24589753 37.307996 34.8114117 37.307996 34.8114117 62.745266z"/><path fill="#000" opacity=".155" d="M2.24589753 7.34854466L15.7212827 7.34854466 15.7212827 68.9632653 2.24589753 68.9632653z"/><path fill="#4A4A4A" d="M1.84119046 65.0144544L35.2038617 65.0144544 35.2038617 68.7069727 1.84119046 68.7069727z"/><path d="M.251 65.114c-.025-.354-.037-.71-.037-1.07 0-9.157 8.195-16.58 18.304-16.58 10.11 0 18.304 7.423 18.304 16.58 0 .36-.012.716-.037 1.07H.25z" fill="#D0DCD1"/><path d="M15.543 47.681c-3.512 4.202-5.565 9.28-5.565 14.749 0 .906.057 1.801.167 2.684H.25c-.025-.354-.037-.71-.037-1.07 0-8.24 6.635-15.075 15.329-16.363z" fill="#393939" opacity=".278"/></g><path d="M56.558 159.97h44.037c10.56 0 19.121 8.56 19.121 19.12 0 10.562-8.56 19.123-19.121 19.123H56.558c-10.56 0-19.121-8.561-19.121-19.122 0-10.56 8.56-19.122 19.121-19.122z" fill="#5C855F"/><path d="M107.258 104.172l-63.086 1.8c-1.344 0-24.612 38.092-8.77 81.583h91.942s4.422-12.782 3.542-28.451c-.88-15.669-9.797-54.932-23.628-54.932z" fill="#CDCDCD"/><path d="M76.538 187.555H35.402c-15.842-43.491 7.426-81.584 8.77-81.584l32.366-.923v82.507z" fill="#4B4B4B" opacity=".071"/><path d="M40.75 150.21c-1.837 12.869-.078 21.281 5.59 37.345H35.402c-5.835-16.02-6.364-31.306-4.637-44.227l9.984 6.881z" fill="#4B4B4B" opacity=".216"/><path d="M125.194 129.648c3.31 10.795 5.3 22.47 5.692 29.456.88 15.669-3.542 28.45-3.542 28.45l-15.114-.492c1.93-7.674 2.966-15.81 2.966-24.236 0-7.53-.828-14.828-2.38-21.771 5.325-2.687 9.648-6.656 12.378-11.407z" fill="#EDEDED"/><g transform="translate(27.538 .528)"><g transform="translate(.462 16.472)"><g transform="translate(.357 41)"><circle fill="#BCB7A4" cx="9" cy="9" r="9"/><path d="M9 18A9 9 0 0 1 9 0c-.03 0-.03 18 0 18z" fill="#EEE7CB"/></g><g transform="matrix(-1 0 0 1 100.357 41)"><circle fill="#BCB7A4" cx="9" cy="9" r="9"/><path d="M9 18A9 9 0 0 1 9 0c-.03 0-.03 18 0 18z" fill="#EEE7CB"/></g><g transform="translate(11.357)"><path d="M30 11h18c16.569 0 30 13.431 30 30v45.82a23 23 0 0 1-15.23 21.647L39 117l-23.77-8.533A23 23 0 0 1 0 86.819V41c0-16.569 13.431-30 30-30z" fill-opacity=".1" fill="#000"/><path d="M30 0h18c16.569 0 30 18.431 30 35v45.82a23 23 0 0 1-15.23 21.647L39 111l-23.77-8.533A23 23 0 0 1 0 80.819V35C0 18.431 13.431 0 30 0z" fill="#CA9342"/><path d="M29.99 0h8.996c.019 2 .019 39 0 111l-23.762-8.533A23 23 0 0 1 0 80.819V35C0 18.431 13.427 0 29.99 0z" fill="#B5853C"/><path d="M24 17h30c10.493 0 19 8.507 19 19v21c0 10.493-8.507 19-19 19H24C13.507 76 5 67.493 5 57V36c0-10.493 8.507-19 19-19z" fill="#F8F0CF"/><path d="M24 17h15c0 1-.116 55.084 0 59H24C13.507 76 5 67.493 5 57V36c0-10.493 8.507-19 19-19z" fill="#EEE7CB"/><g transform="translate(5 17)"><mask id="b" fill="#fff"><use xlink:href="#a"/></mask><g mask="url(#b)"><g transform="translate(41 23)"><path d="M2.387 6.43L0 1.857c6.895-2.8 13.562-2.434 20 1.098C18.402 5.087 18.04 5.66 16.925 7c-4.617-2.195-9.463-2.385-14.538-.57z" fill="#B5853C"/><circle fill="#FBF7E5" cx="16" cy="31" r="10"/><path d="M4.279 15.483c-1.058.205-2.065-.581-2.25-1.756-.184-1.175.524-2.294 1.582-2.5 2.458-.476 8.13-.151 11.746.48 1.06.184 1.786 1.29 1.62 2.468-.167 1.178-1.162 1.984-2.223 1.799-3.228-.563-8.535-.867-10.475-.49z" fill="#434343" fill-rule="nonzero"/></g><g transform="matrix(-1 0 0 1 27 23)"><path d="M2.387 6.43L0 1.857c6.895-2.8 13.562-2.434 20 1.098C18.402 5.087 18.04 5.66 16.925 7c-4.617-2.195-9.463-2.385-14.538-.57z" fill="#B5853C"/><circle fill="#F6F2E3" cx="16" cy="31" r="10"/><path d="M4.279 15.483c-1.058.205-2.065-.581-2.25-1.756-.184-1.175.524-2.294 1.582-2.5 2.458-.476 8.13-.151 11.746.48 1.06.184 1.786 1.29 1.62 2.468-.167 1.178-1.162 1.984-2.223 1.799-3.228-.563-8.535-.867-10.475-.49z" fill="#434343" fill-rule="nonzero"/></g></g></g><path d="M39 89.623c4.774 0 9.548-1.804 14.322-5.412 2.465-1.351 4.163 1.428.309 3.988C48.754 91.4 43.877 93 39 93c-4.877 0-9.754-1.6-14.63-4.8-3.855-2.56-1.873-5.126.308-3.989 4.774 3.608 9.548 5.412 14.322 5.412z" fill="#434343"/></g></g><g transform="translate(11)"><path d="M.462 55.442v-15.57c0-2.802.688-5.58 2.067-8.332 1.38-2.752 3.088-5.196 5.124-7.33 2.037-2.133 4.465-4.21 7.282-6.23 2.82-2.02 5.421-3.696 7.808-5.033a104.134 104.134 0 0 1 7.467-3.785c2.592-1.189 4.435-1.996 5.525-2.42 1.09-.423 1.964-.749 2.622-.976a4.321 4.321 0 0 1 1.605-.294 4.32 4.32 0 0 1 1.606.294c.658.227 1.532.553 2.622.977 1.09.423 2.932 1.23 5.524 2.419a103.934 103.934 0 0 1 7.468 3.785c2.386 1.337 4.988 3.013 7.807 5.033 2.819 2.02 5.246 4.097 7.283 6.23 2.037 2.134 3.745 4.578 5.122 7.33 1.379 2.753 2.068 5.53 2.068 8.331v15.6c-12.02-1.798-25.441-2.803-39.599-2.803-14.08 0-27.432.994-39.401 2.774z" fill="#050505" opacity=".07"/><path d="M.462 50.442v-15.57c0-2.802.688-5.58 2.067-8.332 1.38-2.752 3.088-5.196 5.124-7.33 2.037-2.133 4.465-4.21 7.282-6.23 2.82-2.02 5.421-3.696 7.808-5.033a104.134 104.134 0 0 1 7.467-3.785c2.592-1.189 4.435-1.996 5.525-2.42 1.09-.423 1.964-.749 2.622-.976a4.321 4.321 0 0 1 1.605-.294 4.32 4.32 0 0 1 1.606.294c.658.227 1.532.553 2.622.977 1.09.423 2.932 1.23 5.524 2.419a103.934 103.934 0 0 1 7.468 3.785c2.386 1.337 4.988 3.013 7.807 5.033 2.819 2.02 5.246 4.097 7.283 6.23 2.037 2.134 3.745 4.578 5.122 7.33 1.379 2.753 2.068 5.53 2.068 8.331v15.6c-12.02-1.798-25.441-2.803-39.599-2.803-14.08 0-27.432.994-39.401 2.774z" fill="#72D97B"/><path d="M.462 50.442v-15.57c0-2.802.688-5.58 2.067-8.332 1.38-2.752 3.088-5.196 5.124-7.33 2.037-2.133 4.465-4.21 7.282-6.23 2.82-2.02 5.421-3.696 7.808-5.033a104.134 104.134 0 0 1 7.467-3.785c2.592-1.189 4.435-1.996 5.525-2.42 1.09-.423 1.964-.749 2.622-.976a4.321 4.321 0 0 1 1.605-.294 4.32 4.32 0 0 1 1.606.294c.658.227 1.532.553 2.622.977 1.09.423 2.932 1.23 5.524 2.419a103.934 103.934 0 0 1 7.468 3.785c2.386 1.337 4.988 3.013 7.807 5.033 2.819 2.02 5.246 4.097 7.283 6.23 2.037 2.134 3.745 4.578 5.122 7.33 1.379 2.753 2.068 5.53 2.068 8.331v15.6c-12.02-1.798-25.441-2.803-39.599-2.803-14.08 0-27.432.994-39.401 2.774z" fill="#68BD72"/><path d="M39.462.472v47.224c-13.937 0-27.153.995-39 2.776v-15.58c0-2.804.68-5.583 2.046-8.337 1.366-2.754 3.056-5.199 5.072-7.334s4.42-4.213 7.208-6.234c2.79-2.022 5.365-3.699 7.728-5.036 2.362-1.336 4.827-2.6 7.39-3.788 2.567-1.19 4.39-1.997 5.47-2.42A75.238 75.238 0 0 1 37.97.765a4.205 4.205 0 0 1 1.492-.293z" fill="#689E87" opacity=".417"/><path d="M.462 45.543c11.97-1.834 25.321-2.858 39.401-2.858 14.158 0 27.579 1.035 39.599 2.888v5.899c-12.02-1.853-25.441-2.889-39.599-2.889-14.08 0-27.432 1.025-39.401 2.859v-5.899z" fill="#FFF"/><path d="M47.462 9.472c4.145.64 19.449 10.56 22 16" stroke="#FFF" stroke-width="2.949"/><circle fill="#FFF" cx="71.462" cy="29.472" r="2"/></g></g><g transform="translate(.351 154.91)"><g opacity=".223" transform="translate(1.49 8.206)" fill="#353535"><path d="M24.927.24a4.196 4.196 0 0 1 4.196 4.2v12.352c0 2.319-1.88 4.199-4.196 4.199h-1.303a4.196 4.196 0 0 1-4.196-4.2V4.44c0-2.319 1.88-4.199 4.196-4.199h1.303zm-9.695 0a4.196 4.196 0 0 1 4.196 4.2v12.352c0 2.319-1.88 4.199-4.196 4.199H13.93a4.196 4.196 0 0 1-4.196-4.2V4.44C9.733 2.12 11.614.24 13.93.24h1.303zm-9.695 0a4.196 4.196 0 0 1 4.196 4.2v12.352c0 2.319-1.88 4.199-4.196 4.199H4.234a4.196 4.196 0 0 1-4.196-4.2V4.44C.038 2.12 1.92.24 4.234.24h1.303z"/></g><g transform="rotate(90 15.155 15.458)"><path d="M0 4.196A4.2 4.2 0 0 1 4.202 0h17.215a4.2 4.2 0 0 1 4.202 4.196v1.303a4.2 4.2 0 0 1-4.202 4.196H4.202A4.2 4.2 0 0 1 0 5.499V4.196z" fill="#E0D9BA"/><path d="M4.869 4.196A4.196 4.196 0 0 1 9.068 0H21.42c2.319 0 4.199 1.88 4.199 4.196v1.303a4.196 4.196 0 0 1-4.2 4.196H9.069c-2.32 0-4.2-1.88-4.2-4.196V4.196z" fill="#F8F0CF"/><g transform="translate(0 9.695)"><path d="M0 4.196A4.2 4.2 0 0 1 4.202 0h17.215a4.2 4.2 0 0 1 4.202 4.196v1.303a4.2 4.2 0 0 1-4.202 4.196H4.202A4.2 4.2 0 0 1 0 5.499V4.196z" fill="#E0D9BA"/><path d="M4.869 4.196A4.196 4.196 0 0 1 9.068 0H21.42c2.319 0 4.199 1.88 4.199 4.196v1.303a4.196 4.196 0 0 1-4.2 4.196H9.069c-2.32 0-4.2-1.88-4.2-4.196V4.196z" fill="#F8F0CF"/></g><g transform="translate(0 19.39)"><path d="M0 4.196A4.2 4.2 0 0 1 4.202 0h17.215a4.2 4.2 0 0 1 4.202 4.196v1.303a4.2 4.2 0 0 1-4.202 4.196H4.202A4.2 4.2 0 0 1 0 5.499V4.196z" fill="#E0D9BA"/><path d="M4.869 4.196A4.196 4.196 0 0 1 9.068 0H21.42c2.319 0 4.199 1.88 4.199 4.196v1.303a4.196 4.196 0 0 1-4.2 4.196H9.069c-2.32 0-4.2-1.88-4.2-4.196V4.196z" fill="#F8F0CF"/></g></g></g></g><g transform="translate(8 134)"><path d="M39.39 0C27.827 0 13.877 2.76 2.393 8.838c0 13.124-.159 45.821 36.999 68.162 37.158-22.34 37-55.038 37-68.162C64.908 2.76 50.957 0 39.392 0z" fill="#131313" opacity=".1"/><path d="M33.695 3.952c11.684 0 24.513 2.918 34.654 8.278l1.09.577v1.385c.001 6.934-.222 11.186-1.2 16.804-1.392 8.01-4.084 15.608-8.46 22.771-5.643 9.238-13.857 17.335-25.03 24.045l-1.054.633-1.054-.633c-11.172-6.71-19.386-14.807-25.029-24.045-4.375-7.163-7.067-14.76-8.46-22.77-.977-5.618-1.2-9.87-1.2-16.804v-1.386l1.09-.577c10.141-5.36 22.97-8.278 34.653-8.278z" stroke="#FFF" stroke-width="4.096" fill="#68BC71"/><path d="M33.66 76.036C-.143 55.71 0 25.978 0 14.04 10.447 8.518 23.135 6.005 33.66 6v70.036z" fill="#67B279"/><path d="M32.466 52.744L52.842 24.89c-1.493-1.214-2.803-.357-3.524.306l-.026.002-16.99 17.925-6.4-7.812c-3.054-3.579-7.206-.85-8.176-.128l14.74 17.56" fill="#FFF"/></g></g></svg>