<svg width="24" height="24" viewBox="0 0 24 24" fill="none" xmlns="http://www.w3.org/2000/svg">
<path fill-rule="evenodd" clip-rule="evenodd" d="M7.92921 18.9146C8.06451 18.9146 8.19778 18.9475 8.31752 19.0105C8.74311 19.2345 9.1883 19.4192 9.64753 19.5621C9.91308 19.6446 10.12 19.8541 10.1991 20.1207C10.453 20.9752 10.6939 21.6143 10.852 22H13.148C13.3061 21.6135 13.5475 20.9742 13.8011 20.1199C13.8803 19.8534 14.0872 19.6438 14.3527 19.5613C14.812 19.4184 15.2572 19.2337 15.6827 19.0097C15.9289 18.88 16.2236 18.8818 16.4682 19.0144C17.2521 19.4394 17.8745 19.7207 18.2592 19.8822L19.8832 18.2591C19.7215 17.874 19.4405 17.2513 19.0152 16.4673C18.8826 16.2227 18.8809 15.9281 19.0105 15.6819C19.2346 15.2563 19.4192 14.8111 19.5621 14.3518C19.6446 14.0863 19.8542 13.8794 20.1207 13.8002C20.9752 13.5463 21.6143 13.3054 22 13.1473V10.8514C21.6135 10.6933 20.9744 10.4519 20.12 10.1982C19.8534 10.119 19.6439 9.91214 19.5613 9.64659C19.4184 9.18735 19.2338 8.74215 19.0097 8.31656C18.8801 8.07037 18.8818 7.77571 19.0144 7.53109C19.4394 6.74718 19.7207 6.12475 19.8819 5.74009L18.2597 4.1168C17.8745 4.27827 17.2518 4.55954 16.4679 4.98483C16.2233 5.11742 15.9287 5.11918 15.6825 4.98952C15.2569 4.76548 14.8117 4.58084 14.3525 4.43792C14.0869 4.3554 13.88 4.14586 13.8009 3.87929C13.5472 3.02507 13.3061 2.3857 13.148 2H10.852C10.6958 2.38492 10.4546 3.02064 10.2009 3.86965C10.1242 4.14096 9.91549 4.35507 9.64623 4.4387C9.18701 4.58154 8.74182 4.76609 8.31621 4.99004C8.07003 5.1197 7.77538 5.11794 7.53076 4.98535C6.74686 4.56032 6.12443 4.27905 5.73978 4.11785L4.11678 5.74035C4.27824 6.12553 4.55951 6.74823 4.98479 7.53213C5.11738 7.77675 5.11913 8.07141 4.98948 8.3176C4.76553 8.7432 4.58099 9.1884 4.43815 9.64763C4.35563 9.91318 4.1461 10.1201 3.87952 10.1992C3.02505 10.4529 2.38596 10.6941 2 10.8521V13.1481C2.38387 13.3044 3.01568 13.5442 3.86208 13.7958C4.1443 13.8731 4.36551 14.0924 4.44518 14.374C4.58538 14.8197 4.76482 15.2522 4.98141 15.6663C5.12378 15.9228 5.12082 16.2352 4.97359 16.489C4.55508 17.2627 4.27746 17.8779 4.11756 18.2599L5.74082 19.8842C6.126 19.7228 6.74868 19.4415 7.53258 19.0162C7.65429 18.9499 7.79061 18.915 7.92921 18.9146Z" stroke="black" stroke-width="1.5" stroke-linejoin="round"/>
<path fill-rule="evenodd" clip-rule="evenodd" d="M12 9.27274C10.4937 9.27274 9.27271 10.4938 9.27271 12C9.27271 13.5062 10.4937 14.7273 12 14.7273C13.5062 14.7273 14.7273 13.5062 14.7273 12C14.7255 10.4945 13.5055 9.2745 12 9.27274Z" stroke="black" stroke-width="1.5" stroke-linejoin="round"/>
</svg>
