<svg width="24" height="24" viewBox="0 0 24 24" fill="none" xmlns="http://www.w3.org/2000/svg">
<path fill-rule="evenodd" clip-rule="evenodd" d="M15.4306 12.2858C15.7411 12.1863 16.0803 12.2988 16.2698 12.5642L18.5 15.6875L20.7302 12.5642C20.9196 12.2988 21.2588 12.1863 21.5694 12.2858C21.8799 12.3852 22.0905 12.6739 22.0905 13V18.6831C22.0905 19.0973 21.7547 19.4331 21.3405 19.4331C20.9263 19.4331 20.5905 19.0973 20.5905 18.6831V15.341L19.1104 17.414C18.9696 17.6111 18.7422 17.7281 18.5 17.7281C18.2577 17.7281 18.0304 17.6111 17.8896 17.414L16.4094 15.341V18.6831C16.4094 19.0973 16.0736 19.4331 15.6594 19.4331C15.2452 19.4331 14.9094 19.0973 14.9094 18.6831V13C14.9094 12.6739 15.1201 12.3852 15.4306 12.2858Z" fill="black"/>
<path fill-rule="evenodd" clip-rule="evenodd" d="M14.1071 9.25349C14.4091 9.59068 14.4083 10.1364 14.1053 10.4725L11.7923 13.0375C11 14 10.5 14 9.67593 13.0375L8.22757 11.4313C7.92454 11.0952 7.92371 10.5495 8.22572 10.2123C8.52773 9.8751 9.01821 9.87418 9.32124 10.2102L10.7341 11.7771L13.0116 9.25144C13.3146 8.91539 13.8051 8.91631 14.1071 9.25349Z" fill="black"/>
<path d="M1.61719 4.55472C7.36142 1.15049 14.7357 1.13058 20.3887 4.55863C20.6126 4.69444 20.7497 4.93737 20.75 5.19925C20.75 6.49812 20.7569 8.70382 20.0566 11.2237C19.7643 11.1187 19.0689 10.9929 18.5606 11.002C19.1809 8.87077 19.2423 6.95608 19.2481 5.62991C14.249 2.77965 7.85071 2.78801 2.75098 5.6348C2.75793 7.1905 2.84047 9.55494 3.81251 12.127C4.84227 14.8512 6.88694 17.8477 11 20.3282C11.9053 19.7822 12.7097 19.2106 13.4258 18.6231C13.6038 19.0334 14.0023 19.745 14.2149 19.9141C13.3784 20.586 12.4368 21.2352 11.375 21.8487C11.1429 21.9828 10.8571 21.9827 10.625 21.8487C5.95251 19.1487 3.58896 15.7784 2.40919 12.6573C1.2369 9.55538 1.25001 6.73936 1.25001 5.19925C1.25028 4.93484 1.38982 4.6897 1.61719 4.55472Z" fill="black"/>
</svg>
