<svg width="146" height="24" viewBox="0 0 146 24" fill="none" xmlns="http://www.w3.org/2000/svg">
<path fill-rule="evenodd" clip-rule="evenodd" d="M12 2C8.35297 2 4.96477 3.07756 2.15388 4.92308C1.96106 8.28014 2.72197 11.7532 4.5455 14.9116C6.36527 18.0636 8.98548 20.4557 11.9814 21.9677L12 22L12.0186 21.9678C15.0146 20.4557 17.6348 18.0636 19.4546 14.9116C21.2781 11.7532 22.039 8.28015 21.8462 4.92308C19.0353 3.07756 15.6471 2 12 2Z" fill="url(#paint0_linear_16562_6704)"/>
<path fill-rule="evenodd" clip-rule="evenodd" d="M15.1071 9.25349C15.4091 9.59068 15.4083 10.1364 15.1053 10.4725L12.7923 13.0375C12 14 11.5 14 10.6759 13.0375L9.22757 11.4313C8.92454 11.0952 8.92371 10.5495 9.22572 10.2123C9.52773 9.8751 10.0182 9.87418 10.3212 10.2102L11.7341 11.7771L14.0116 9.25144C14.3146 8.91539 14.8051 8.91631 15.1071 9.25349Z" fill="white"/>
<path d="M97.3904 18.3C96.3237 18.3 95.4371 18.06 94.7304 17.58C94.0371 17.0867 93.5171 16.4333 93.1704 15.62C92.8237 14.7933 92.6504 13.88 92.6504 12.88C92.6504 11.8267 92.8371 10.8933 93.2104 10.08C93.5837 9.25333 94.1371 8.60667 94.8704 8.14C95.6037 7.67333 96.5171 7.44 97.6104 7.44C97.9837 7.44 98.3504 7.48667 98.7104 7.58C99.0837 7.66 99.4237 7.78667 99.7304 7.96C100.05 8.12 100.324 8.33333 100.55 8.6V4H103.35V18.16H100.63L100.59 16.98C100.35 17.2867 100.057 17.54 99.7104 17.74C99.3771 17.9267 99.0171 18.0667 98.6304 18.16C98.2437 18.2533 97.8304 18.3 97.3904 18.3ZM97.9504 15.78C98.5504 15.78 99.0371 15.64 99.4104 15.36C99.7971 15.08 100.084 14.72 100.27 14.28C100.457 13.84 100.55 13.3667 100.55 12.86C100.55 12.34 100.457 11.8667 100.27 11.44C100.097 11 99.8171 10.6533 99.4304 10.4C99.0571 10.1333 98.5637 10 97.9504 10C97.3371 10 96.8437 10.14 96.4704 10.42C96.0971 10.7 95.8304 11.0667 95.6704 11.52C95.5237 11.96 95.4504 12.4333 95.4504 12.94C95.4504 13.3133 95.4904 13.6733 95.5704 14.02C95.6637 14.3533 95.8104 14.6533 96.0104 14.92C96.2104 15.1867 96.4704 15.4 96.7904 15.56C97.1104 15.7067 97.4971 15.78 97.9504 15.78Z" fill="#1F1F1F"/>
<path d="M85.7939 18.16V7.62H88.3139L88.4939 8.88C88.7606 8.48 89.0606 8.18 89.3939 7.98C89.7273 7.76667 90.0739 7.62667 90.4339 7.56C90.7939 7.48 91.1606 7.44 91.5339 7.44C91.7073 7.44 91.8673 7.44667 92.0139 7.46C92.1606 7.46 92.2673 7.46 92.3339 7.46V10.16H91.674C91.0473 10.16 90.5006 10.2667 90.0339 10.48C89.5673 10.6933 89.2073 11.0267 88.9539 11.48C88.7139 11.9333 88.5939 12.5133 88.5939 13.22V18.16H85.7939Z" fill="#1F1F1F"/>
<path d="M78.1668 18.3C77.6868 18.3 77.2201 18.24 76.7668 18.12C76.3268 17.9867 75.9335 17.7867 75.5868 17.52C75.2401 17.2534 74.9668 16.92 74.7668 16.52C74.5668 16.12 74.4668 15.6534 74.4668 15.12C74.4668 14.4 74.6135 13.8267 74.9068 13.4C75.2001 12.96 75.5935 12.6267 76.0868 12.4C76.5801 12.1734 77.1468 12.02 77.7868 11.94C78.4401 11.86 79.1135 11.82 79.8068 11.82H81.3268C81.3268 11.4334 81.2535 11.0934 81.1068 10.8C80.9735 10.4934 80.7668 10.26 80.4868 10.1C80.2068 9.92669 79.8468 9.84002 79.4068 9.84002C79.1268 9.84002 78.8535 9.88002 78.5868 9.96002C78.3335 10.0267 78.1201 10.1267 77.9468 10.26C77.7735 10.3934 77.6601 10.5667 77.6068 10.78H74.7668C74.8468 10.1934 75.0335 9.69336 75.3268 9.28002C75.6201 8.85336 75.9868 8.50669 76.4268 8.24002C76.8668 7.97336 77.3468 7.78002 77.8668 7.66002C78.4001 7.52669 78.9468 7.46002 79.5068 7.46002C81.0401 7.46002 82.1735 7.90002 82.9068 8.78002C83.6401 9.64669 84.0068 10.88 84.0068 12.48V18.16H81.4868L81.4468 16.8C81.1135 17.2667 80.7335 17.6067 80.3068 17.82C79.8935 18.0334 79.4935 18.1667 79.1068 18.22C78.7201 18.2734 78.4068 18.3 78.1668 18.3ZM78.8068 16.08C79.2735 16.08 79.7001 15.9867 80.0868 15.8C80.4735 15.6134 80.7801 15.36 81.0068 15.04C81.2335 14.72 81.3468 14.36 81.3468 13.96V13.7H79.4268C79.1468 13.7 78.8735 13.7134 78.6068 13.74C78.3535 13.7667 78.1201 13.82 77.9068 13.9C77.7068 13.9667 77.5468 14.08 77.4268 14.24C77.3068 14.4 77.2468 14.6134 77.2468 14.88C77.2468 15.1467 77.3135 15.3734 77.4468 15.56C77.5935 15.7334 77.7868 15.8667 78.0268 15.96C78.2668 16.04 78.5268 16.08 78.8068 16.08Z" fill="#1F1F1F"/>
<path d="M68.3072 18.3C66.7605 18.3 65.5672 17.9067 64.7272 17.12C63.9005 16.32 63.4872 15.12 63.4872 13.52V7.62H66.2872V13.32C66.2872 13.8 66.3538 14.2267 66.4872 14.6C66.6338 14.96 66.8538 15.2467 67.1472 15.46C67.4538 15.6733 67.8472 15.78 68.3272 15.78C68.8472 15.78 69.2472 15.6667 69.5272 15.44C69.8072 15.2133 70.0005 14.9133 70.1072 14.54C70.2138 14.1533 70.2672 13.7467 70.2672 13.32V7.62H73.0472V13.52C73.0472 15.1867 72.6272 16.4 71.7872 17.16C70.9605 17.92 69.8005 18.3 68.3072 18.3Z" fill="#1F1F1F"/>
<path d="M56.5072 23.04C55.6806 23.04 54.9206 22.9067 54.2272 22.64C53.5339 22.3867 52.9472 21.98 52.4672 21.42C51.9872 20.86 51.6606 20.14 51.4872 19.26H54.3472C54.4406 19.5267 54.5872 19.7467 54.7872 19.92C55.0006 20.1067 55.2539 20.2467 55.5472 20.34C55.8539 20.4334 56.1739 20.48 56.5072 20.48C57.1339 20.48 57.6206 20.3467 57.9672 20.08C58.3139 19.8134 58.5539 19.46 58.6872 19.02C58.8206 18.5934 58.8872 18.12 58.8872 17.6V16.86C58.6472 17.2467 58.3472 17.54 57.9872 17.74C57.6272 17.94 57.2472 18.08 56.8472 18.16C56.4606 18.2534 56.0872 18.3 55.7272 18.3C54.6206 18.3 53.7206 18.0534 53.0272 17.56C52.3339 17.0667 51.8272 16.42 51.5072 15.62C51.1872 14.8067 51.0272 13.9334 51.0272 13C51.0272 11.9734 51.2072 11.04 51.5672 10.2C51.9272 9.36002 52.4672 8.69336 53.1872 8.20002C53.9072 7.70669 54.8072 7.46002 55.8872 7.46002C56.5406 7.46002 57.1206 7.56669 57.6272 7.78002C58.1339 7.98002 58.5672 8.28002 58.9272 8.68002L59.1672 7.62002H61.7272V16.82C61.7272 18.1 61.5606 19.2 61.2272 20.12C60.8939 21.0534 60.3406 21.7734 59.5672 22.28C58.8072 22.7867 57.7872 23.04 56.5072 23.04ZM56.3472 15.78C56.9339 15.78 57.4139 15.6467 57.7872 15.38C58.1739 15.1134 58.4606 14.76 58.6472 14.32C58.8339 13.8667 58.9272 13.38 58.9272 12.86C58.9272 12.3134 58.8339 11.8267 58.6472 11.4C58.4606 10.96 58.1806 10.6134 57.8072 10.36C57.4339 10.0934 56.9539 9.96002 56.3672 9.96002C55.7272 9.96002 55.2206 10.1134 54.8472 10.42C54.4739 10.7134 54.2072 11.0867 54.0472 11.54C53.9006 11.98 53.8272 12.4467 53.8272 12.94C53.8272 13.4467 53.9072 13.92 54.0672 14.36C54.2272 14.7867 54.4939 15.1334 54.8672 15.4C55.2406 15.6534 55.7339 15.78 56.3472 15.78Z" fill="#1F1F1F"/>
<path d="M43.6677 18.3C42.6011 18.3 41.7144 18.06 41.0077 17.58C40.3144 17.0867 39.7944 16.4333 39.4477 15.62C39.1011 14.7933 38.9277 13.88 38.9277 12.88C38.9277 11.8267 39.1144 10.8933 39.4877 10.08C39.8611 9.25333 40.4144 8.60667 41.1477 8.14C41.8811 7.67333 42.7944 7.44 43.8877 7.44C44.2611 7.44 44.6277 7.48667 44.9877 7.58C45.3611 7.66 45.7011 7.78667 46.0077 7.96C46.3277 8.12 46.6011 8.33333 46.8277 8.6V4H49.6277V18.16H46.9077L46.8677 16.98C46.6277 17.2867 46.3344 17.54 45.9877 17.74C45.6544 17.9267 45.2944 18.0667 44.9077 18.16C44.5211 18.2533 44.1077 18.3 43.6677 18.3ZM44.2277 15.78C44.8277 15.78 45.3144 15.64 45.6877 15.36C46.0744 15.08 46.3611 14.72 46.5477 14.28C46.7344 13.84 46.8277 13.3667 46.8277 12.86C46.8277 12.34 46.7344 11.8667 46.5477 11.44C46.3744 11 46.0944 10.6533 45.7077 10.4C45.3344 10.1333 44.8411 10 44.2277 10C43.6144 10 43.1211 10.14 42.7477 10.42C42.3744 10.7 42.1077 11.0667 41.9477 11.52C41.8011 11.96 41.7277 12.4333 41.7277 12.94C41.7277 13.3133 41.7677 13.6733 41.8477 14.02C41.9411 14.3533 42.0877 14.6533 42.2877 14.92C42.4877 15.1867 42.7477 15.4 43.0677 15.56C43.3877 15.7067 43.7744 15.78 44.2277 15.78Z" fill="#1F1F1F"/>
<path d="M31.7 18.3C31.22 18.3 30.7533 18.24 30.3 18.12C29.86 17.9867 29.4667 17.7867 29.12 17.52C28.7733 17.2534 28.5 16.92 28.3 16.52C28.1 16.12 28 15.6534 28 15.12C28 14.4 28.1467 13.8267 28.44 13.4C28.7333 12.96 29.1267 12.6267 29.62 12.4C30.1133 12.1734 30.68 12.02 31.32 11.94C31.9733 11.86 32.6467 11.82 33.34 11.82H34.86C34.86 11.4334 34.7867 11.0934 34.64 10.8C34.5067 10.4934 34.3 10.26 34.02 10.1C33.74 9.92669 33.38 9.84002 32.94 9.84002C32.66 9.84002 32.3867 9.88002 32.12 9.96002C31.8667 10.0267 31.6533 10.1267 31.48 10.26C31.3067 10.3934 31.1933 10.5667 31.14 10.78H28.3C28.38 10.1934 28.5667 9.69336 28.86 9.28002C29.1533 8.85336 29.52 8.50669 29.96 8.24002C30.4 7.97336 30.88 7.78002 31.4 7.66002C31.9333 7.52669 32.48 7.46002 33.04 7.46002C34.5733 7.46002 35.7067 7.90002 36.44 8.78002C37.1733 9.64669 37.54 10.88 37.54 12.48V18.16H35.02L34.98 16.8C34.6467 17.2667 34.2667 17.6067 33.84 17.82C33.4267 18.0334 33.0267 18.1667 32.64 18.22C32.2533 18.2734 31.94 18.3 31.7 18.3ZM32.34 16.08C32.8067 16.08 33.2333 15.9867 33.62 15.8C34.0067 15.6134 34.3133 15.36 34.54 15.04C34.7667 14.72 34.88 14.36 34.88 13.96V13.7H32.96C32.68 13.7 32.4067 13.7134 32.14 13.74C31.8867 13.7667 31.6533 13.82 31.44 13.9C31.24 13.9667 31.08 14.08 30.96 14.24C30.84 14.4 30.78 14.6134 30.78 14.88C30.78 15.1467 30.8467 15.3734 30.98 15.56C31.1267 15.7334 31.32 15.8667 31.56 15.96C31.8 16.04 32.06 16.08 32.34 16.08Z" fill="#1F1F1F"/>
<path d="M142.613 18V7.46001H145.053V18H142.613ZM143.833 6.24001C143.367 6.24001 142.993 6.10001 142.713 5.82001C142.433 5.54001 142.293 5.17334 142.293 4.72001C142.293 4.28001 142.44 3.92001 142.733 3.64001C143.027 3.34668 143.393 3.20001 143.833 3.20001C144.26 3.20001 144.627 3.34001 144.933 3.62001C145.24 3.90001 145.393 4.26668 145.393 4.72001C145.393 5.17334 145.247 5.54001 144.953 5.82001C144.66 6.10001 144.287 6.24001 143.833 6.24001Z" fill="#5B5B5B"/>
<path d="M130.621 18V7.45999H132.901L133.041 8.79999C133.321 8.42665 133.648 8.13332 134.021 7.91999C134.394 7.70665 134.788 7.55332 135.201 7.45999C135.614 7.35332 136.001 7.29999 136.361 7.29999C137.361 7.29999 138.148 7.51999 138.721 7.95999C139.308 8.39999 139.721 8.98665 139.961 9.71999C140.201 10.4533 140.321 11.2733 140.321 12.18V18H137.881V12.58C137.881 12.1933 137.854 11.82 137.801 11.46C137.748 11.0867 137.641 10.7533 137.481 10.46C137.334 10.1667 137.121 9.93332 136.841 9.75999C136.561 9.58665 136.188 9.49999 135.721 9.49999C135.148 9.49999 134.661 9.65332 134.261 9.95999C133.861 10.2667 133.561 10.68 133.361 11.2C133.161 11.7067 133.061 12.2867 133.061 12.94V18H130.621Z" fill="#5B5B5B"/>
<path d="M125.816 18V7.46001H128.256V18H125.816ZM127.036 6.24001C126.57 6.24001 126.196 6.10001 125.916 5.82001C125.636 5.54001 125.496 5.17334 125.496 4.72001C125.496 4.28001 125.643 3.92001 125.936 3.64001C126.23 3.34668 126.596 3.20001 127.036 3.20001C127.463 3.20001 127.83 3.34001 128.136 3.62001C128.443 3.90001 128.596 4.26668 128.596 4.72001C128.596 5.17334 128.45 5.54001 128.156 5.82001C127.863 6.10001 127.49 6.24001 127.036 6.24001Z" fill="#5B5B5B"/>
<path d="M109 18V7.45999H111.24L111.4 8.65999C111.667 8.29999 111.953 8.02665 112.26 7.83999C112.58 7.63999 112.907 7.49999 113.24 7.41999C113.587 7.33999 113.913 7.29999 114.22 7.29999C114.887 7.29999 115.453 7.43332 115.92 7.69999C116.4 7.96665 116.773 8.36665 117.04 8.89999C117.307 8.52665 117.607 8.22666 117.94 7.99999C118.273 7.75999 118.627 7.58665 119 7.47999C119.373 7.35999 119.767 7.29999 120.18 7.29999C120.993 7.29999 121.647 7.47332 122.14 7.81999C122.633 8.15332 122.993 8.61999 123.22 9.21999C123.447 9.80665 123.56 10.48 123.56 11.24V18H121.12V12.02C121.12 11.7533 121.107 11.4733 121.08 11.18C121.053 10.8867 120.98 10.6133 120.86 10.36C120.753 10.1067 120.593 9.89999 120.38 9.73999C120.167 9.57999 119.867 9.49999 119.48 9.49999C119.093 9.49999 118.773 9.58665 118.52 9.75999C118.28 9.91999 118.08 10.14 117.92 10.42C117.773 10.6867 117.667 10.9867 117.6 11.32C117.547 11.64 117.52 11.96 117.52 12.28V18H115.08V12C115.08 11.7467 115.06 11.48 115.02 11.2C114.993 10.9067 114.927 10.6333 114.82 10.38C114.727 10.1133 114.567 9.89999 114.34 9.73999C114.127 9.57999 113.827 9.49999 113.44 9.49999C112.88 9.49999 112.453 9.65332 112.16 9.95999C111.88 10.2667 111.687 10.64 111.58 11.08C111.487 11.52 111.44 11.94 111.44 12.34V18H109Z" fill="#5B5B5B"/>
<defs>
<linearGradient id="paint0_linear_16562_6704" x1="12" y1="2" x2="12" y2="22" gradientUnits="userSpaceOnUse">
<stop stop-color="#67B279"/>
<stop offset="1" stop-color="#589968"/>
</linearGradient>
</defs>
</svg>
