<svg width="24" stroke="black" height="24" viewBox="0 0 24 24" fill="none" xmlns="http://www.w3.org/2000/svg">
<g id="Icon/WebBrowsingSecurity">
<path id="Path" fill-rule="evenodd" clip-rule="evenodd" d="M12 21C16.9706 21 21 16.9706 21 12C21 7.02944 16.9706 3 12 3C7.02944 3 3 7.02944 3 12C3 16.9706 7.02944 21 12 21Z" stroke-width="1.5" stroke-linecap="round" stroke-linejoin="round"/>
<path id="Path_2" d="M14.5 3.5C14.7746 4.66688 14.9926 5.83376 15.1541 7.00065" stroke-width="1.5" stroke-linecap="round" stroke-linejoin="round"/>
<path id="Path_3" d="M19 7C17.7515 7.35674 16.5029 7.61803 15.2543 7.78387C15.418 9.18865 15.5 10.5943 15.5 12C15.5 13.406 15.4179 14.812 15.2538 16.218C16.5016 16.3817 17.7508 16.6431 19 17" stroke-width="1.5" stroke-linecap="round" stroke-linejoin="round"/>
<path id="Path_4" d="M15.1539 17.0004C14.9924 18.1669 14.7744 19.3335 14.4999 20.5" stroke-width="1.5" stroke-linecap="round" stroke-linejoin="round"/>
<path id="Path_5" d="M9.50006 20.5C9.22558 19.3335 9.0076 18.1669 8.84613 17.0004" stroke-width="1.5" stroke-linecap="round" stroke-linejoin="round"/>
<path id="Path_6" d="M5 17C6.24891 16.6432 7.49781 16.3818 8.74672 16.216C8.58208 14.812 8.5 13.406 8.5 12C8.5 10.5943 8.58205 9.18865 8.74614 7.78297C7.49781 7.61816 6.24891 7.35683 5 7V7" stroke-width="1.5" stroke-linecap="round" stroke-linejoin="round"/>
<path id="Path_7" d="M8.84594 7.00065C9.00742 5.83376 9.22545 4.66688 9.50001 3.5V3.5" stroke-width="1.5" stroke-linecap="round" stroke-linejoin="round"/>
<path id="Path_8" d="M9.50061 16.1275C10.3338 16.0425 11.1669 16 12 16C12.8332 16 13.6663 16.0425 14.4995 16.1275" stroke-width="1.5" stroke-linecap="round" stroke-linejoin="round"/>
<path id="Path_9" d="M14.4995 7.8725C13.6663 7.9575 12.8332 8 12 8C11.1669 8 10.3338 7.9575 9.50061 7.8725" stroke-width="1.5" stroke-linecap="round" stroke-linejoin="round"/>
<path id="Path 5 Copy 6" d="M3 12H21" stroke-width="1.5" stroke-linecap="round" stroke-linejoin="round"/>
</g>
</svg>
