<svg width="24" height="24" stroke="black" viewBox="0 0 24 24" fill="none" xmlns="http://www.w3.org/2000/svg">
<path fill-rule="evenodd" clip-rule="evenodd" d="M12 9.27272C10.4937 9.27272 9.27271 10.4938 9.27271 12C9.27271 13.5062 10.4937 14.7273 12 14.7273C13.5062 14.7273 14.7273 13.5062 14.7273 12C14.7255 10.4945 13.5055 9.27448 12 9.27272Z" stroke-width="1.5" stroke-linecap="round" stroke-linejoin="round"/>
<path fill-rule="evenodd" clip-rule="evenodd" d="M12 3C7.02944 3 3 7.02944 3 12C3 16.9706 7.02944 21 12 21C16.9706 21 21 16.9706 21 12C20.9942 7.03185 16.9682 3.00581 12 3Z" stroke-width="1.5" stroke-linecap="round" stroke-linejoin="round"/>
<path d="M2 12H6" stroke-width="1.5" stroke-linecap="round" stroke-linejoin="round"/>
<path d="M18 12H22" stroke-width="1.5" stroke-linecap="round" stroke-linejoin="round"/>
<path d="M12 2V6" stroke-width="1.5" stroke-linecap="round" stroke-linejoin="round"/>
<path d="M12 18V22" stroke-width="1.5" stroke-linecap="round" stroke-linejoin="round"/>
</svg>
