<svg width="165" height="200" viewBox="0 0 165 200" fill="none" xmlns="http://www.w3.org/2000/svg">
<path d="M47.9973 72.2615H118.643C118.843 71.9116 117.493 68.1618 116.244 67.2118C110.794 63.112 103.944 49.7628 103.294 44.1631C103.294 44.1631 98.7445 21.2143 98.6945 19.0144C97.9945 14.8147 96.0946 10.7649 92.6448 8.11503C88.0451 3.96526 80.4955 4.51523 74.6958 5.56517C65.5463 6.7651 58.6967 15.8646 59.2966 25.6641C60.2466 42.3132 52.897 60.1622 47.9973 72.2615Z" fill="#CE8000"/>
<path opacity="0.3" d="M92.0949 15.0147C92.0949 15.0647 92.0949 15.0647 92.0949 15.0147V15.0147ZM92.0949 15.0147C92.0949 15.0647 92.0949 15.0647 92.0949 15.0147V15.0147ZM92.0949 15.0147C92.0949 15.0647 92.0949 15.0647 92.0949 15.0147V15.0147ZM92.0949 15.0147C92.0949 15.0647 92.0949 15.0647 92.0949 15.0147V15.0147ZM93.2949 13.7647C93.2949 13.8147 93.2949 13.8147 93.2949 13.7647V13.7647ZM93.2949 13.8147C93.2449 13.8147 93.2449 13.8147 93.2949 13.8147V13.8147ZM92.0949 15.0147C92.0949 15.0647 92.0949 15.0647 92.0949 15.0147V15.0147ZM92.0949 15.0147C92.0949 15.0647 92.0949 15.0647 92.0949 15.0147V15.0147ZM93.2949 13.7647C93.2949 13.8147 93.2949 13.8147 93.2949 13.7647V13.7647ZM93.2949 13.8147C93.2449 13.8147 93.2449 13.8147 93.2949 13.8147V13.8147ZM92.0949 15.0147C92.0949 15.0647 92.0949 15.0647 92.0949 15.0147V15.0147ZM92.0949 15.0147C92.0949 15.0647 92.0949 15.0647 92.0949 15.0147V15.0147ZM92.0949 15.0147C92.0949 15.0647 92.0949 15.0647 92.0949 15.0147V15.0147Z" fill="#C77500"/>
<path opacity="0.3" d="M116.244 67.2118C96.3446 50.0628 104.044 18.1645 92.6948 8.06504C84.7952 1.06542 67.7962 4.41523 62.3465 13.9147C62.3465 20.2144 62.5465 44.2131 59.7466 49.4628C60.6466 48.4628 61.5965 46.8129 62.5965 46.313C63.5964 58.9123 50.2971 69.5617 48.6472 70.6116C48.3972 71.1616 48.1972 71.7116 47.9973 72.2615H118.643C118.793 71.9116 117.443 68.1618 116.244 67.2118Z" fill="#C77500"/>
<path d="M116.243 67.2118C105.744 57.9623 102.744 43.7131 100.494 29.7639H66.6461C62.0964 32.9137 64.7463 44.963 64.8462 47.8629C65.0962 55.3625 60.1965 58.5123 60.5965 64.512C61.2964 63.562 62.2464 62.7621 63.3463 62.2621C63.4963 64.212 63.3963 70.1617 61.9964 72.2115H118.643C118.793 71.9116 117.443 68.1618 116.243 67.2118Z" fill="#C07500"/>
<path opacity="0.6" d="M61.8466 73.6115C66.9463 68.1118 66.4963 61.8121 66.2963 60.8622C65.6464 57.4624 69.0962 55.8624 64.8464 46.113C63.4465 42.9131 65.0964 37.8134 68.3462 36.3635C80.3456 31.1138 82.0455 58.8123 83.1454 72.2116L61.8466 73.6115Z" fill="#A05A07"/>
<path opacity="0.6" d="M110.594 72.2615H99.8944C89.9949 62.5121 95.3946 44.5131 103.244 43.7631C103.244 43.7631 103.244 43.7631 103.244 43.8131C103.744 46.5629 106.744 56.0124 109.444 58.8123C107.394 63.262 108.794 68.4117 110.594 72.2615Z" fill="#A05A07"/>
<path d="M71.4963 70.212C71.3963 70.212 70.3463 69.912 69.3963 69.162C69.4463 69.612 69.4963 70.112 69.5963 70.612C69.5963 70.762 67.7463 69.612 67.8463 66.412C67.8463 66.262 67.8463 66.112 67.8463 65.962C67.8963 65.312 67.9963 64.762 68.0963 64.362C68.0963 64.362 68.0963 64.362 68.0963 64.312C68.3963 63.512 68.7963 62.912 69.2963 62.662C70.1963 62.212 71.2463 62.362 71.2463 62.362C71.2463 62.362 71.6463 70.262 71.4963 70.212Z" fill="#BBB99D"/>
<path d="M105.344 75.7113C98.9445 67.7117 96.0947 64.2119 97.9446 46.4629C98.0446 45.413 74.4459 34.7635 71.846 37.3634C71.846 37.3634 72.346 68.1117 65.5463 71.9115C65.4464 71.9115 102.094 76.1613 105.344 75.7113Z" fill="#E8D4BA"/>
<path opacity="0.4" d="M105.344 75.7113C102.094 76.2113 66.1961 72.0115 65.5461 71.9115C67.496 70.8116 68.846 67.5118 69.7959 63.312C77.5955 69.9116 73.3957 57.1123 71.1458 54.1125C71.5958 49.4627 71.8958 41.3632 71.8458 37.3634C74.4457 34.8635 80.8953 38.7633 84.1951 40.1632C85.1951 40.5632 91.6447 43.0131 95.3445 44.763C96.8945 45.513 97.9444 46.1129 97.8944 46.4629C96.5445 58.8622 97.1944 66.7618 105.344 75.7113Z" fill="#CEB79B"/>
<path opacity="0.4" d="M105.344 75.7113C103.544 75.9613 91.8447 74.8114 81.5953 73.7114C73.0458 72.8115 65.5461 71.9115 65.5461 71.8615C67.296 70.9116 68.546 68.2117 69.4459 64.7119C70.3959 65.2119 71.1958 65.6619 71.3958 65.8118C72.3958 66.5118 73.5957 66.9618 74.7956 66.8118C76.3956 66.5618 76.4956 64.8619 76.3456 63.562C76.1456 61.7121 75.4956 59.9622 74.8457 58.2623C74.5957 57.6623 74.3957 57.0623 74.1457 56.4124C73.9457 55.8624 73.7457 55.3124 73.5457 54.7125C73.3957 54.3625 73.2957 53.9625 73.1457 53.6125C73.0457 53.3625 72.7957 52.9126 72.4458 52.3126C72.1458 51.8126 71.7458 51.2126 71.3958 50.6127C71.3958 50.4127 71.3958 50.2627 71.4458 50.0627C71.8958 43.1631 71.7958 37.3134 71.7958 37.3134C74.3957 34.7135 97.9944 45.363 97.8944 46.4129C96.0945 64.2119 98.9443 67.6617 105.344 75.7113Z" fill="#CEB79B"/>
<path d="M158.442 186.055C150.042 190.705 140.643 193.405 131.293 195.455C94.995 202.004 34.5984 204.504 5.99991 178.706C6.39989 174.006 6.84984 169.306 7.19982 164.657C9.3997 138.958 11.5496 113.259 13.6495 87.5607C28.5987 86.9607 134.143 86.2108 141.543 85.9108C143.442 87.7607 150.192 122.959 152.842 140.258C154.692 155.507 156.542 170.806 158.442 186.055Z" fill="#255D36"/>
<path d="M164.891 181.606C160.741 185.255 154.991 188.055 149.592 190.155C148.792 180.406 147.992 170.956 146.992 161.357C145.592 148.607 144.342 135.858 141.592 123.359C144.592 119.959 150.642 113.009 153.542 109.66C158.441 133.458 162.341 158.157 164.891 181.606Z" fill="#3E8E5B"/>
<path opacity="0.65" d="M164.891 181.606C163.091 183.206 160.741 184.805 158.142 186.205C156.442 180.606 154.392 165.457 147.442 166.256C146.042 152.757 144.742 139.258 142.142 125.959C141.942 125.059 141.742 124.209 141.542 123.309L146.042 115.959L148.892 111.309C149.792 109.81 151.742 106.61 152.642 105.11C157.592 130.408 162.341 156.657 164.891 181.606Z" fill="#3B754B"/>
<path opacity="0.65" d="M163.041 166.006C155.491 143.308 145.892 148.757 145.592 148.507C144.592 140.058 143.442 131.608 141.592 123.309C144.592 119.909 150.642 112.959 153.542 109.61C157.341 128.259 160.591 147.357 163.041 166.006Z" fill="#3B754B"/>
<path d="M31.7989 192.755C21.0995 189.755 9.90007 184.105 5.95029 178.656C6.35027 173.956 10.45 125.809 12.05 106.41C18.6496 107.31 25.4992 108.16 31.9989 109.21C32.7988 117.559 32.1489 173.556 31.7989 192.755Z" fill="#3E8E5B"/>
<path opacity="0.65" d="M31.7987 192.755C26.8489 191.355 21.8492 189.455 17.4494 187.205C19.0994 165.606 10.4998 149.007 8.74994 145.908C9.84988 132.758 10.9498 119.609 12.0497 106.46C18.6494 107.36 25.499 108.21 31.9987 109.26C32.7986 117.609 32.1487 173.556 31.7987 192.755Z" fill="#3B754B"/>
<g style="mix-blend-mode:multiply" opacity="0.6">
<path d="M154.742 153.207C152.892 171.056 149.792 181.106 124.694 173.056L119.794 168.506L142.093 125.609L149.942 110.509C150.642 110.559 152.492 110.709 153.842 110.859C154.342 113.509 156.242 123.509 156.542 124.909C156.692 129.008 155.292 147.757 154.742 153.207Z" fill="#949984"/>
</g>
<path d="M153.393 89.0607C153.393 89.0607 154.893 93.2107 153.893 95.2107C152.893 97.2107 149.593 87.1607 149.593 87.1607L153.393 89.0607Z" fill="#255D36"/>
<path d="M156.641 104.56C156.341 107.96 156.041 111.409 155.691 114.859C154.841 123.509 153.541 132.158 150.441 140.158C150.441 140.158 150.441 140.208 150.391 140.258C139.042 171.056 115.593 164.357 102.144 146.257C100.744 140.908 124.393 138.308 123.893 130.308C122.993 124.809 115.893 100.71 116.643 94.0103C121.443 73.0615 149.242 75.7113 155.291 95.7602C155.941 97.8601 156.741 101.96 156.641 104.56Z" fill="#C5CAB9"/>
<path opacity="0.4" d="M156.641 104.56C156.341 107.96 156.041 111.409 155.691 114.859C145.292 115.059 136.942 132.658 136.942 132.658C136.942 132.658 144.442 133.808 150.441 140.208C139.092 171.006 115.643 164.307 102.194 146.208C100.794 140.858 124.443 138.258 123.943 130.258C123.043 124.759 115.943 100.66 116.693 93.9603C121.493 73.0115 149.291 75.6613 155.341 95.7103C155.941 97.8601 156.741 101.96 156.641 104.56Z" fill="#C2C2AC"/>
<path d="M156.641 104.56C156.641 105.91 156.541 107.26 156.341 108.61C143.442 103.16 131.743 123.209 131.743 123.209C126.143 114.559 108.744 71.6116 146.492 83.3109C152.841 87.6607 156.691 96.1102 156.641 104.56Z" fill="#C2C2AC"/>
<path d="M156.641 104.56C149.692 105.96 128.093 91.0605 151.291 87.7107C151.691 88.2606 154.741 93.0604 155.941 98.0101C156.441 100.21 156.641 102.36 156.641 104.56Z" fill="#C5CAB9"/>
<path d="M127.843 125.309C131.242 131.008 132.192 128.758 134.492 132.708C136.942 136.908 140.042 141.208 141.142 137.408C142.292 133.558 136.092 128.358 133.992 127.809C131.892 127.209 127.843 125.309 127.843 125.309Z" fill="#C2C2AC"/>
<path d="M128.843 125.709C131.442 130.058 134.992 129.558 136.892 132.508C138.792 135.458 140.242 138.958 140.092 135.908C139.992 132.808 137.942 129.358 135.492 128.258C133.942 127.558 128.843 125.709 128.843 125.709Z" fill="#BBBBA5"/>
<path d="M155.341 117.909C154.841 123.109 154.041 128.008 152.841 132.658C151.241 130.708 148.791 126.959 149.391 122.909C150.241 116.959 155.191 117.859 155.191 117.859L155.341 117.909Z" fill="#CCD1C0"/>
<path d="M156.392 100.46C156.392 100.46 148.792 99.0604 148.292 95.7104C147.792 92.3604 153.842 92.6604 153.842 92.6604C154.542 94.0604 155.992 96.8604 156.392 100.46Z" fill="#CCD1C0"/>
<path d="M45.0478 195.705C47.8977 186.605 57.5971 171.456 55.6973 162.707C54.8473 159.657 44.9478 128.008 44.0479 123.509C42.898 117.859 45.2478 86.7107 51.5475 83.3609C42.898 70.5116 60.047 73.8614 68.3466 66.5618C69.4465 65.6119 80.6959 82.8609 93.1952 71.8115C96.245 69.1117 130.693 86.5607 131.343 87.2607C135.293 106.86 131.343 128.158 124.594 146.857C112.244 174.306 124.943 173.156 133.193 195.005C113.044 200.754 73.9963 201.404 45.0478 195.705Z" fill="#C6C7B3"/>
<path d="M68.9964 89.6606C77.546 89.3606 86.7955 84.5108 88.6954 75.4613C78.8959 82.6109 68.7965 81.711 65.0967 69.0117C63.7967 69.8616 62.0468 70.6616 59.6469 71.3116C59.197 71.4616 57.3471 90.1105 68.9964 89.6606Z" fill="#C2C2AC"/>
<path d="M124.643 146.857C119.494 158.357 118.644 164.806 120.044 170.006C98.6447 171.806 76.9459 171.056 55.5971 168.556C55.9971 166.406 56.0971 164.406 55.6971 162.657C55.3471 161.357 53.2972 154.757 51.0473 147.307C87.1454 154.157 126.443 129.958 107.644 89.6106C107.244 86.9607 131.093 86.9607 131.343 87.2107C135.343 106.86 131.343 128.158 124.643 146.857Z" fill="#C2C2AC"/>
<path d="M132.493 107.86C130.843 116.859 126.443 137.208 126.293 136.908C126.293 136.908 130.543 109.409 130.493 105.11C130.343 93.9603 123.143 97.4101 119.344 98.3101C96.9949 103.71 67.2965 97.8601 57.997 85.1608C57.747 84.8108 59.2969 71.4116 59.5969 71.3116C61.2968 70.8616 62.6967 70.2616 63.8467 69.6617C65.6466 72.4115 69.8463 82.9109 69.7463 89.6106C69.4464 89.6606 80.2458 89.3606 102.845 70.3116C103.045 70.1116 124.693 81.661 126.693 81.361C136.243 86.6107 133.743 101.11 132.493 107.86Z" fill="#BBB99D"/>
<path d="M112.094 136.958C95.495 126.509 77.946 117.309 63.5468 103.71C64.8967 101.81 66.0466 99.76 67.1966 97.7101C73.7962 85.8607 61.2969 87.4107 59.397 86.1607C58.1971 85.2108 39.9981 95.7102 43.0979 100.86C46.2477 110.309 40.448 122.209 47.1477 130.608C48.9976 128.508 51.5974 127.058 54.3473 126.609C47.2977 125.759 47.4977 116.809 49.3476 111.559C53.3473 111.859 57.4471 110.559 60.4969 108.01C63.1968 110.509 68.4465 111.659 68.5465 116.009C66.3966 125.159 52.0474 129.558 49.4475 138.358C47.3976 149.707 58.1471 160.507 55.1972 171.806C76.846 171.806 98.4449 171.806 120.094 171.806C115.644 149.957 133.893 152.807 112.094 136.958Z" fill="#BBB99D"/>
<path d="M101.295 152.807C93.345 152.907 63.0966 163.307 55.847 151.257C48.2474 138.658 76.1959 117.509 76.3459 117.609C76.3959 117.509 88.8952 127.358 94.8449 129.858C95.0449 129.258 94.2949 145.807 101.295 152.807Z" fill="#C6C7B3"/>
<path d="M96.5449 199.555C79.2459 200.355 64.5467 200.505 44.5978 196.255C44.4478 195.005 50.5974 182.106 51.8474 182.206C57.0971 184.055 60.2969 189.505 65.4466 191.655C75.696 195.305 88.2954 189.255 96.5449 199.555Z" fill="#CCD1C0"/>
<path d="M120.444 190.955C103.245 180.356 85.5455 182.306 67.2965 183.555C64.9967 183.605 62.5968 183.555 60.5969 182.406C58.0471 180.956 55.9472 177.406 52.6473 178.156C54.8472 174.106 55.8972 169.406 55.5972 164.756C74.8961 170.006 98.3448 169.706 118.044 165.556C119.494 165.956 119.694 168.556 119.994 169.756C121.994 179.006 130.943 185.455 133.043 194.655C132.843 194.855 124.993 193.755 120.444 190.955Z" fill="#BBB99D"/>
<path d="M64.3466 131.308C61.6467 134.208 54.8471 140.208 60.5968 145.358C66.3465 150.507 86.5953 153.457 89.5452 148.257C92.545 143.108 93.7949 134.758 89.0452 131.258C82.0456 126.109 79.7957 119.709 74.546 120.509C70.0462 121.259 67.7964 127.558 64.3466 131.308Z" fill="#C5CAB9"/>
<path d="M54.7974 112.209C52.1974 111.609 50.5974 111.609 51.1974 115.209C51.4974 117.009 51.1474 120.059 53.8974 119.259C54.6974 119.009 57.0474 116.709 57.3974 115.909C58.0474 114.159 56.5474 112.309 54.7974 112.209Z" fill="#CCD1C0"/>
<path d="M74.5462 138.108C76.6962 139.658 78.1962 140.308 78.9962 136.708C79.3962 134.908 80.8962 132.258 78.0462 131.908C77.1962 131.808 74.1462 133.058 73.5462 133.658C72.2962 135.058 72.9462 137.358 74.5462 138.108Z" fill="#CCD1C0"/>
<path d="M104.095 103.46C99.845 101.81 81.9959 102.21 80.096 100.11C76.5462 96.1602 74.8463 101.11 78.9461 102.71C82.8959 104.31 85.5957 107.46 89.1455 109.659C106.295 120.309 109.444 105.91 104.095 103.46Z" fill="#CCD1C0"/>
<path d="M78.146 126.459C79.4459 121.759 71.9464 120.659 69.7965 124.909C68.2466 127.958 66.6466 130.908 64.1968 133.358C60.8969 136.908 61.2969 142.308 66.0967 144.158C68.5466 145.258 70.7464 144.708 72.0463 142.558C74.5462 138.458 68.0466 136.908 70.7964 133.058C71.4964 132.158 77.746 127.459 78.146 126.459Z" fill="#CCD1C0"/>
<path d="M86.0956 72.5115C85.9956 72.6115 84.3457 75.3613 79.596 76.8612C77.1461 77.6112 74.2463 76.7613 73.2963 76.1613C68.0966 72.8615 67.8966 68.6117 67.7966 66.8118C67.6466 63.862 69.1465 62.1621 70.1465 62.362C69.1965 62.712 68.9965 63.262 69.6465 64.6119C71.0464 67.6618 76.2962 69.7616 86.0956 72.5115Z" fill="#CCD1C0"/>
<path d="M153.392 89.0606C153.242 89.0106 144.342 86.1108 137.492 87.8107C129.793 89.7106 122.993 93.6604 115.444 95.7102C102.594 99.56 88.8451 96.8102 76.0958 93.7604C72.346 92.6104 68.0462 92.0105 64.2464 90.2605C63.4965 88.5606 63.5965 86.5607 63.1465 84.7108C64.4964 93.2104 100.444 65.4619 100.544 65.4119C110.344 71.7615 118.643 68.0618 127.793 71.7616C129.593 72.6615 131.193 73.9114 133.093 74.6614C135.193 75.5113 137.592 75.6113 139.642 76.5113C143.142 78.0112 146.592 79.9111 149.392 82.411C151.392 84.2109 153.442 87.5607 153.392 89.0606Z" fill="#3D8455"/>
<path opacity="0.4" d="M102.894 66.7118C97.6444 73.4615 88.8449 77.0613 81.4453 80.9111C76.4956 83.2609 70.2959 86.1108 70.8959 92.4104C68.646 91.8605 66.3961 91.2105 64.2463 90.2605C63.5463 88.6106 63.5963 86.7107 63.1963 84.9608C65.2462 92.6604 100.444 65.5119 100.544 65.4119C101.344 65.9119 102.094 66.3118 102.894 66.7118Z" fill="#3B754B"/>
<path d="M114.544 85.9108C110.044 83.6109 117.893 79.2611 115.244 76.2113C111.594 71.6116 103.694 87.7107 110.444 91.4605C114.044 92.5604 121.593 87.7107 114.544 85.9108Z" fill="#3E8E5B"/>
<path d="M80.0458 89.2106C76.7959 90.6605 74.1461 87.2607 72.8962 89.0106C72.5962 91.1605 78.8458 92.5104 80.6457 92.6604C83.8455 92.8604 83.7455 88.4107 80.0458 89.2106Z" fill="#3E8E5B"/>
<path d="M146.192 79.9611C137.043 79.4112 128.743 84.6109 119.844 85.5108C114.694 85.3608 115.894 79.4112 118.594 76.8113C120.494 74.7114 122.993 73.2615 125.043 71.2616C125.143 71.1616 125.293 71.0116 125.393 70.9116C128.243 71.5116 130.443 73.5615 133.093 74.6614C137.743 75.8613 142.292 77.2113 146.192 79.9611Z" fill="#3B754B"/>
<path d="M98.6447 75.5114C94.5949 77.1113 85.1454 81.961 87.8953 85.8608C94.4949 95.2103 116.444 69.8617 116.544 69.7617C113.094 69.7117 109.544 69.3117 106.394 68.0618C106.444 71.9116 102.295 74.1114 98.6447 75.5114Z" fill="#3B754B"/>
<path d="M153.392 89.0606C127.343 81.161 120.443 106.16 79.7457 94.6103C83.1955 94.6103 86.5453 93.4604 90.0451 93.7103C97.8947 94.2603 105.094 96.1102 112.844 93.5104C125.193 89.9105 136.443 80.861 150.142 83.2109C151.842 85.0108 153.442 87.7607 153.392 89.0606Z" fill="#3B754B"/>
<path d="M129.243 72.5615C126.193 80.4611 138.342 74.6114 144.342 78.8112C139.292 75.2614 133.943 75.8613 129.243 72.5615Z" fill="#2B6B40"/>
<path d="M69.4463 91.9108C69.7963 90.8108 70.1463 89.6609 69.5963 88.5609C69.7963 87.4109 70.1963 86.3108 69.9963 85.1608C67.9463 85.7108 63.9963 87.7608 63.1963 84.7108C64.2463 90.7608 62.7463 90.2608 69.4463 91.9108C69.4463 91.9608 69.3963 91.9608 69.4463 91.9108Z" fill="#2B6B40"/>
<path d="M85.1753 88.0621C85.2359 87.4854 84.5058 86.9361 83.5446 86.8352C82.5834 86.7343 81.7551 87.12 81.6946 87.6967C81.634 88.2734 82.3642 88.8227 83.3253 88.9237C84.2865 89.0246 85.1148 88.6388 85.1753 88.0621Z" fill="#3E8E5B"/>
<path d="M123.693 174.856C123.643 170.206 118.994 167.756 120.294 163.657C121.144 161.707 120.644 159.607 121.394 157.657C125.593 151.407 124.143 151.457 116.194 153.957C114.094 154.557 112.094 153.507 109.994 153.657C107.744 153.957 105.594 154.607 103.294 154.407C99.6947 154.057 96.1949 154.807 92.6451 155.357C89.1953 154.757 52.4472 152.357 51.4473 151.607C50.6973 151.057 53.9972 165.656 54.2972 167.956C54.4471 170.206 52.5472 172.106 52.7972 174.456C52.5472 176.006 49.4974 176.556 51.5973 178.256C56.547 175.656 56.547 180.406 61.4468 180.256C65.3965 180.356 69.9963 181.356 75.596 181.006C77.8459 180.856 80.0458 180.356 82.3456 180.406C84.5455 180.406 86.6454 181.106 88.7953 181.056C90.9952 181.006 93.1451 180.156 95.3449 179.806C107.394 177.906 101.295 180.456 110.094 178.506C112.194 178.006 114.144 176.956 116.394 177.106C117.444 177.156 118.394 177.356 119.394 177.056C120.844 176.006 123.993 177.856 123.693 174.856Z" fill="#3E8E5B"/>
<path d="M121.844 169.406C120.644 167.706 119.494 165.756 120.294 163.657C121.144 161.707 120.644 159.607 121.394 157.657C126.043 150.807 123.394 151.857 115.844 154.007C114.744 158.357 108.744 159.257 109.294 153.757C107.544 154.107 105.795 154.507 103.995 154.407C103.895 156.657 102.395 158.657 100.645 160.107C93.4952 166.356 72.6964 166.756 64.3468 165.056C49.0476 161.907 53.0974 175.206 51.5975 176.156C57.7972 175.106 79.446 180.506 84.2457 180.456C86.3956 176.506 91.1953 176.406 93.5952 180.156C104.495 177.756 102.495 180.306 110.244 178.456C112.344 177.956 114.294 176.906 116.544 177.056C118.094 177.306 119.444 177.106 120.894 176.606C121.794 176.506 124.094 177.306 123.794 174.806C123.444 172.856 122.944 171.106 121.844 169.406Z" fill="#3B754B"/>
<path d="M121.894 169.406C122.244 169.106 123.094 168.756 121.244 167.806C121.094 167.756 121.344 167.456 121.344 167.356C121.494 166.606 121.144 165.507 120.244 165.507C93.2954 169.406 61.9471 166.206 52.3976 163.307C51.1477 163.807 51.7977 165.207 52.5476 165.856C49.3478 174.356 110.794 174.506 122.044 170.406C122.644 170.156 122.344 169.556 121.894 169.406Z" fill="#D58500"/>
<path opacity="0.3" d="M122.244 170.306C122.544 170.006 122.344 169.506 121.894 169.406C122.244 169.106 123.094 168.756 121.244 167.806C121.094 167.756 121.344 167.456 121.344 167.356C121.494 166.606 121.144 165.507 120.244 165.507C109.845 166.956 96.9454 167.406 85.3961 167.156C78.6964 169.306 71.7468 171.106 64.6472 171.256C77.1965 172.856 96.7455 173.456 109.845 172.456C112.295 169.556 119.094 167.406 122.244 170.306Z" fill="#A05A07"/>
<path d="M120.294 165.557C115.394 166.256 109.944 166.706 104.345 166.956C104.195 167.106 94.4952 172.706 94.4952 172.956C98.7449 172.956 102.895 172.906 106.645 172.706C108.244 172.106 109.844 171.456 111.394 170.706C113.194 169.906 120.294 165.906 120.744 165.607C120.644 165.557 120.444 165.507 120.294 165.557Z" fill="#A05A07"/>
<path d="M54.1975 168.706C53.6975 168.606 53.1476 168.856 52.8476 169.206C52.3476 169.806 52.2976 171.056 52.1476 171.806C51.9476 172.556 52.4976 173.356 53.2476 173.806C53.9975 174.256 54.8975 174.356 55.7474 174.506C79.0462 177.806 107.345 172.356 119.594 165.756C120.794 165.107 122.094 164.057 121.644 162.907C121.544 162.707 121.444 162.507 121.444 162.257C121.444 161.707 122.294 161.307 122.194 160.707C122.144 160.307 121.644 160.057 121.194 160.107C120.744 160.157 120.394 160.407 119.994 160.657C111.544 165.956 76.4463 173.706 54.1975 168.706Z" fill="#D58500"/>
<path opacity="0.3" d="M121.444 162.207C121.444 161.657 122.294 161.257 122.194 160.657C122.144 160.257 121.644 160.007 121.194 160.057C118.944 161.007 117.444 162.157 114.245 163.207C113.845 166.556 110.045 167.756 109.945 166.606C109.845 166.006 109.795 165.007 109.045 164.857C103.695 166.456 98.1454 167.556 92.5957 168.456C83.3462 174.456 60.7974 177.406 54.3478 168.706C53.7978 168.556 53.2478 168.806 52.8979 169.206C52.3479 170.356 51.5979 172.456 52.7979 173.456C56.3977 176.006 87.396 177.206 110.645 169.556C110.095 168.506 111.545 167.906 111.745 169.206C114.145 168.006 123.344 165.606 121.444 162.207Z" fill="#A05A07"/>
<g style="mix-blend-mode:multiply" opacity="0.6">
<path d="M119.744 159.107C120.344 159.857 120.594 163.757 118.694 164.956C117.894 166.156 120.494 169.156 116.594 171.006C112.644 172.806 118.544 175.456 107.044 177.606C92.3452 181.156 84.6456 172.406 75.5461 176.656C75.5461 176.656 73.3963 177.556 69.0965 176.456C64.7967 175.356 52.2974 184.455 45.6478 183.805C16.8993 180.956 17.9493 137.508 17.4493 118.959C22.649 124.159 24.4489 133.958 32.3985 141.908C38.6981 148.157 44.6978 154.207 48.7476 158.257C68.2465 156.107 94.1451 154.607 116.594 149.607C119.144 150.407 121.744 153.707 119.494 158.007C119.294 158.457 119.244 158.457 119.744 159.107Z" fill="#949984"/>
</g>
<path d="M11.3494 93.0604L0.5 95.6102C0.5 95.6102 7.39963 107.06 12.8493 104.56C18.299 102.06 11.3494 93.0604 11.3494 93.0604Z" fill="#9EA58E"/>
<path d="M11.7494 92.8104L0.899994 95.3602C0.899994 95.3602 7.79962 106.81 13.2493 104.31C18.649 101.81 11.7494 92.8104 11.7494 92.8104Z" fill="#676D54"/>
<path d="M12.999 80.2111C12.599 80.3111 3.2995 81.061 3.2995 81.061C3.2995 81.061 4.34945 101.71 15.2489 100.36C26.1983 99.0101 12.999 80.2111 12.999 80.2111Z" fill="#9EA58E"/>
<path d="M13.5487 80.0611C13.1487 80.1611 3.84927 80.911 3.84927 80.911C3.84927 80.911 4.8992 101.56 15.7986 100.21C26.698 98.8601 13.5487 80.0611 13.5487 80.0611Z" fill="#676D54"/>
<path d="M21.3491 70.3616L10.8497 71.3116C10.8497 71.3116 8.94974 75.7114 8.44977 81.0611L17.9493 98.0601H17.4493C28.8987 102.01 21.3491 70.3616 21.3491 70.3616Z" fill="#9EA58E"/>
<path d="M21.999 70.3616L11.4995 71.3116C11.4995 71.3116 3.24997 90.3605 16.6992 97.4102C30.0985 104.46 21.999 70.3616 21.999 70.3616Z" fill="#676D54"/>
<path d="M15.9496 104.06L6.85008 109.159L5.45013 112.609C5.45013 112.609 13.7497 124.159 17.8995 119.309C22.0492 114.409 15.9496 104.06 15.9496 104.06Z" fill="#9EA58E"/>
<path d="M16.1996 103.71L7.10008 108.81L5.70013 112.259C5.70013 112.259 13.9997 123.809 18.1495 118.959C22.2992 114.059 16.1996 103.71 16.1996 103.71Z" fill="#676D54"/>
<path d="M66.3467 109.01C61.5969 114.209 56.7972 119.409 51.2975 123.859C47.7477 126.509 43.9979 130.008 44.2479 134.858C44.1479 136.708 45.4978 137.858 46.5477 139.108C47.3477 140.708 46.9977 143.508 49.2476 143.908C46.8977 139.058 56.5472 135.458 75.8961 114.359C75.8461 114.359 67.8966 110.209 66.3467 109.01Z" fill="#D58500"/>
<path opacity="0.3" d="M75.8459 114.359C70.6462 119.959 60.2467 130.508 54.797 134.908C51.0472 138.408 48.4474 139.508 49.1973 143.908C46.9975 143.458 47.2474 140.708 46.5475 139.108C39.8978 132.808 48.6974 125.609 53.7471 121.759C52.5972 126.459 55.047 127.558 57.1469 125.509C60.2467 121.559 69.3462 116.359 64.7465 110.759C65.2965 110.159 65.7964 109.609 66.3464 109.01C69.1463 110.909 73.0461 112.809 75.8459 114.359Z" fill="#A05A07"/>
<path opacity="0.3" d="M75.8459 114.359C75.1959 114.959 74.596 115.609 73.996 116.309C67.2464 115.209 62.2467 124.109 57.3469 127.758C55.097 130.108 52.5972 133.008 52.9972 136.608C49.5473 139.908 48.1974 141.808 49.2474 143.958C46.9975 143.508 47.3474 140.708 46.5475 139.158C45.4975 137.908 44.0976 136.758 44.2476 134.908C43.9976 130.108 47.6474 126.659 51.1972 124.009C50.7973 136.408 59.1968 123.909 61.5467 121.959C64.6465 118.709 69.7462 114.659 65.2965 110.259C65.6464 109.859 65.9964 109.459 66.3464 109.109C66.3964 109.159 66.4464 109.209 66.4964 109.209C66.5964 109.259 66.6464 109.309 66.7964 109.409L66.8464 109.459C66.8964 109.509 66.9964 109.559 67.0464 109.609C67.1964 109.709 67.3464 109.759 67.4964 109.859C67.5964 109.909 67.6963 109.959 67.7963 110.009C68.6963 110.559 69.8462 111.209 70.9962 111.809C71.0462 111.859 71.1461 111.859 71.1961 111.909C71.5461 112.109 71.9461 112.309 72.2961 112.509C72.3461 112.559 72.4461 112.559 72.4961 112.609C72.5461 112.659 72.6461 112.659 72.6961 112.709C72.7961 112.759 72.896 112.809 72.946 112.859C73.096 112.959 73.296 113.059 73.446 113.109C74.396 113.609 75.1959 114.059 75.5959 114.259C75.6459 114.259 75.6459 114.309 75.6959 114.309C75.7459 114.309 75.7959 114.309 75.8459 114.359Z" fill="#A05A07"/>
<path opacity="0.3" d="M75.8461 114.359C75.2961 114.909 74.6962 115.509 74.1962 116.059C73.4462 115.309 72.3463 115.059 71.3464 114.809C68.2965 114.459 67.8466 111.159 66.0966 109.31C66.1966 109.21 66.2966 109.11 66.3966 109.01C67.8965 110.209 75.8461 114.359 75.8461 114.359Z" fill="#A05A07"/>
<path d="M125.593 143.408C123.143 137.358 117.693 132.808 112.444 128.758C97.8945 117.509 82.7953 106.91 67.2962 97.0101C65.5963 95.9602 63.9464 94.8603 62.2464 93.8103C60.5965 92.8104 59.5966 92.2604 58.3966 94.2103C57.1467 96.2602 54.3969 100.96 54.5469 101.21C57.0467 103.06 59.5466 104.91 62.0965 106.71C81.5954 120.309 103.294 132.108 120.093 147.757C119.493 147.257 125.843 144.058 125.593 143.408ZM74.5958 109.309C72.8959 109.759 72.5459 106.91 74.2458 106.41C76.3957 105.96 76.7457 109.009 74.5958 109.309ZM86.0451 117.809C85.2952 117.009 85.3952 115.259 86.3951 115.159C87.2951 114.909 88.645 115.509 88.645 116.709C88.645 117.909 86.8951 118.859 86.0451 117.809ZM98.0945 126.509C97.3945 125.609 97.9445 124.109 99.1444 123.959C103.044 123.859 100.594 128.858 98.0945 126.509Z" fill="#D58500"/>
<path d="M67.2962 97.0102C65.4463 100.16 63.2964 103.91 62.0464 106.71C59.4966 104.91 56.9467 103.11 54.4969 101.21C54.3969 100.96 57.1467 96.2602 58.3467 94.2103C59.5466 92.2604 60.5465 92.7604 62.1964 93.8103C63.8963 94.9103 65.5962 95.9602 67.2962 97.0102Z" fill="#C77500"/>
<path d="M98.7943 118.409C96.0444 118.959 90.6947 119.859 87.9449 118.009C87.3449 118.409 86.595 118.459 86.095 117.809C85.345 117.009 85.445 115.259 86.445 115.159C86.295 112.959 87.5449 110.609 87.5449 110.609C81.8952 106.76 76.7955 103.41 73.4457 101.11C74.6956 105.96 66.2461 107.26 63.0963 107.61C63.8962 108.16 70.2459 112.109 72.3457 113.609C76.7455 113.409 82.6452 118.359 83.4451 120.859C86.445 122.759 101.344 132.858 101.344 132.858C102.444 131.358 105.694 125.859 106.844 124.309C106.794 124.259 99.4943 118.909 98.7943 118.409ZM73.1457 107.71C73.3457 105.71 76.6455 106.21 75.9955 108.21C75.5956 109.659 72.7457 109.959 73.1457 107.71ZM99.1443 123.959C103.044 123.859 100.594 128.858 98.0943 126.509C97.3944 125.609 97.9443 124.109 99.1443 123.959Z" fill="#C77500"/>
<path d="M74.5963 109.31C73.7463 109.46 72.9463 109.01 73.1463 107.71C73.2463 107.16 73.6462 106.56 74.1962 106.41C74.2462 106.41 72.7963 108.56 74.5963 109.31Z" fill="#A05A07"/>
<path d="M87.8952 117.959C87.2952 118.359 86.5452 118.409 86.0452 117.809C85.8452 117.559 85.6952 117.209 85.5952 116.909C85.3452 115.859 85.7952 115.309 86.3952 115.159C86.4452 115.159 85.4952 117.859 87.8952 117.959Z" fill="#A05A07"/>
<path d="M52.3972 142.758C52.5472 144.908 54.9471 166.706 47.9475 169.106C42.2978 170.856 32.6983 175.406 27.5486 171.206C16.8492 163.207 16.5992 148.507 15.4992 136.358C14.1993 122.509 4.44984 105.81 8.7996 92.7604C15.6992 78.3612 40.0479 80.3611 45.1976 95.3103C47.8475 103.46 48.1475 112.209 49.0974 120.659C49.8974 128.108 51.8473 135.308 52.3972 142.758Z" fill="#CCD1C0"/>
<path opacity="0.4" d="M47.9477 169.056C35.9983 173.506 27.4988 176.256 20.7992 163.057C27.5488 163.957 38.6482 150.057 39.1482 148.507C45.9978 131.158 27.2488 124.459 13.2496 125.209C10.1498 114.159 5.60003 102.41 8.84985 92.7104C15.7495 78.3112 40.0981 80.3111 45.2479 95.2603C47.8977 103.41 48.1977 112.159 49.1476 120.609C49.7976 131.708 58.6471 160.257 47.9477 169.056Z" fill="#C2C2AC"/>
<path d="M50.2477 116.259C50.3477 119.909 50.5976 127.809 45.1979 126.309C45.0479 121.809 42.1481 103.91 44.9479 104.31C50.2476 105.16 49.9477 107.01 50.2477 116.259Z" fill="#BBB99D"/>
<path d="M47.9475 169.056C45.0976 169.906 41.2978 171.506 37.548 172.306C37.248 167.556 37.1481 162.857 37.648 162.707C43.5477 160.957 51.8973 164.856 49.8474 158.057C47.2475 152.207 51.4473 146.157 48.6474 140.358C42.6978 127.659 26.1487 120.509 12.0994 121.559C9.14959 111.609 5.84976 101.31 8.7496 92.6604C15.6492 78.2612 39.9979 80.2611 45.1476 95.2103C47.7975 103.36 48.0975 112.109 49.0474 120.559C49.8474 128.008 51.8473 135.208 52.3472 142.658C52.5472 144.908 54.9471 166.706 47.9475 169.056Z" fill="#C2C2AC"/>
<path d="M49.8473 122.109C45.5976 129.758 48.5974 136.658 52.5472 142.758C52.3472 135.508 49.4473 129.058 50.0973 121.609C49.9973 121.759 49.9473 121.909 49.8473 122.109Z" fill="#BBB99D"/>
<path d="M48.3473 105.86C48.5973 108.859 45.8474 109.309 45.8474 109.309C43.2976 109.909 38.5978 111.009 38.5978 110.709C38.5478 110.509 38.4978 109.959 38.3478 109.109C36.7479 109.909 35.198 111.459 29.8983 113.809C29.8983 113.809 27.4984 110.059 27.1484 109.809L25.0986 115.159C25.1986 114.909 12.4992 113.909 10.1494 114.809C9.89938 113.709 8.89943 109.909 8.64944 108.81C8.94943 106.26 16.749 88.3106 19.9488 82.261C31.9982 82.311 47.5973 93.8603 48.3473 105.86Z" fill="#BBB99D"/>
<path d="M30.6483 102.06C30.6483 102.21 25.1986 115.109 25.1986 115.109C18.7989 112.959 7.69951 109.81 5.69962 112.809C5.69962 112.659 7.99949 90.8105 9.6994 90.2106L30.6483 102.06Z" fill="#9EA58E"/>
<path d="M30.6485 101.96C29.8985 106.61 28.2486 111.259 25.3488 115.009C20.899 113.759 8.89964 109.11 5.39983 112.559C5.34983 109.66 4.74987 92.5604 9.39961 89.9606L30.6485 101.96Z" fill="#9EA58E"/>
<path d="M10.5997 107.56C8.14971 106.81 6.64971 109.51 6.84971 111.66C8.19971 111.21 10.2997 111.31 12.6497 111.66C12.7497 109.06 11.6997 107.91 10.5997 107.56Z" fill="#B1B7A5"/>
<path opacity="0.4" d="M30.6486 101.96L9.39975 89.9606C7.59985 90.6105 6.59991 94.2603 5.99994 98.4601C13.8495 99.1101 20.3492 105.56 19.8492 113.309C21.8491 113.859 23.799 114.509 25.3489 115.009C28.2987 111.259 29.8986 106.66 30.6486 101.96Z" fill="#949984"/>
<path d="M30.6484 101.96C30.1984 105.01 29.2985 108.01 27.9485 110.809C22.4488 105.16 14.4993 98.9101 6.04974 98.0101C6.34973 95.9602 6.74971 93.9104 7.54966 92.0605C7.94964 91.2105 8.44963 90.3106 9.34958 89.9606C9.39958 89.9606 30.6484 101.96 30.6484 101.96Z" fill="#949984"/>
<path d="M38.2978 106.86L28.5983 79.1612C28.0483 78.8612 9.79931 81.5611 0.799805 95.9603C12.5492 95.5603 26.1484 106.26 30.1482 112.659L38.2978 106.86Z" fill="#9EA58E"/>
<path d="M38.4977 107.81C36.5979 109.56 30.6982 112.609 30.1982 112.809C26.5984 106.51 12.5991 95.2103 0.549805 95.6103C9.59931 81.2111 27.7983 78.4612 28.3483 78.8112L28.4983 79.2612L38.4977 107.81Z" fill="#9EA58E"/>
<path d="M14.349 91.0605C11.0991 89.6106 4.94945 91.8605 2.44958 95.6603C6.34937 95.9103 10.3492 97.2602 14.099 99.1601C15.6489 96.3102 17.2988 92.3105 14.349 91.0605Z" fill="#B1B7A5"/>
<path opacity="0.4" d="M38.4978 107.81C36.1979 109.71 32.798 111.359 30.1982 112.809C29.0982 110.909 27.0984 108.61 24.4985 106.26C21.2987 93.2104 15.399 88.1107 9.54932 86.1608C18.2488 79.9111 27.9483 78.5612 28.3483 78.7612C28.5483 79.3612 38.2978 107.26 38.4978 107.81Z" fill="#949984"/>
<path d="M38.4977 107.81L28.3483 78.7612C27.9983 78.5612 20.8487 79.5611 13.2991 83.7609C22.8986 89.4606 30.7981 100.26 34.5479 110.409C34.7979 110.309 37.5478 108.61 38.4977 107.81Z" fill="#949984"/>
<path d="M52.347 103.86C50.8471 94.4103 35.3479 70.4117 35.3479 70.4117C22.8486 70.1117 9.79931 74.2115 3.39966 81.5611C20.2487 82.811 32.7981 96.4102 38.8477 109.71C39.0977 109.76 51.497 104.66 52.347 103.86Z" fill="#9EA58E"/>
<path d="M50.097 106.11C51.0469 105.46 51.9469 104.71 52.7468 103.86C51.2469 94.4103 35.2478 69.8616 35.2478 69.8616C22.7485 69.5617 9.69915 73.6614 3.2995 81.011C20.3486 82.311 33.0479 96.2602 38.9476 109.709C42.9473 109.609 46.8471 108.36 50.097 106.11Z" fill="#9EA58E"/>
<path d="M17.5486 78.8111C14.3988 77.4612 8.19913 79.3111 5.94925 81.361C10.699 82.1109 15.0988 83.8108 19.0485 86.2107C20.7485 83.3609 20.3985 80.0111 17.5486 78.8111Z" fill="#B1B7A5"/>
<path opacity="0.4" d="M52.747 103.86C51.947 104.66 47.0973 109.359 38.9978 109.709C36.9479 105.01 34.048 100.26 30.4482 96.0102C30.5482 85.1108 21.2987 77.1112 12.9992 74.1114C18.1989 71.7115 29.0983 69.1117 35.248 69.8116C35.448 70.2116 51.2471 94.4603 52.747 103.86Z" fill="#949984"/>
<path d="M35.2477 69.8616C28.1981 69.7116 21.0484 70.9116 14.9488 73.3114C23.7483 73.6614 39.8474 90.6105 44.5972 108.76C46.5471 108.16 50.0969 106.56 52.7467 103.86C51.1968 94.4103 35.2477 69.8616 35.2477 69.8616Z" fill="#949984"/>
<path d="M11.399 71.2616C11.049 71.3616 11.249 71.7116 10.8491 71.8116C28.5481 72.3115 44.1472 87.5107 47.747 109.81L47.847 109.859L56.2466 109.81V67.2118C45.5972 65.2119 25.3483 66.9118 11.399 71.2616Z" fill="#9EA58E"/>
<path d="M57.7465 110.559C62.5962 101.66 68.9959 79.8611 62.9462 69.8116C59.2964 63.712 29.1981 65.2119 10.8491 71.2616C28.7481 71.8115 44.3972 87.2107 47.797 109.809C52.0468 110.559 55.0466 110.759 57.7465 110.559Z" fill="#9EA58E"/>
<path d="M33.7979 76.6613C32.048 75.0614 29.5482 75.3114 27.4483 74.5114C25.2484 73.7614 25.6484 70.9116 23.8985 69.7617C20.3487 68.1617 15.7989 70.2116 12.2991 71.4116C20.5487 72.0115 28.2482 75.8113 34.4479 82.011C35.4478 80.2611 35.3978 78.0112 33.7979 76.6613Z" fill="#B1B7A5"/>
<path opacity="0.4" d="M62.9463 69.8117C61.0964 66.7618 52.5469 65.6119 42.0975 66.0119C42.9974 72.4115 41.3475 79.6611 36.2978 84.0109C42.0475 90.6105 46.2472 99.46 47.7972 109.859C51.9969 110.559 55.0468 110.759 57.6966 110.609C62.5964 101.66 68.996 79.9111 62.9463 69.8117Z" fill="#949984"/>
<path d="M56.6966 97.2102C55.6466 101.91 53.7967 106.46 50.9469 110.309C53.5968 110.659 55.7967 110.709 57.7465 110.559C62.2963 101.71 73.7957 68.7117 56.0966 66.6618C57.9965 76.7113 58.8965 87.2107 56.6966 97.2102Z" fill="#949984"/>
<path d="M100.545 28.414C100.995 30.3139 103.144 46.863 99.3447 51.2628C86.2954 62.5122 66.0465 46.513 64.3965 32.3638C63.5466 30.5139 62.3967 13.8648 86.3953 11.8649C97.2948 10.965 98.9447 21.1144 100.545 28.414Z" fill="#E8D4BA"/>
<path opacity="0.4" d="M77.5955 25.864C70.0459 31.4137 72.3958 27.9639 81.8953 30.4138C87.545 32.6637 85.1451 25.2641 80.9453 24.1641C80.9453 24.2141 77.6955 24.4141 77.5955 25.864Z" fill="#CEB79B"/>
<path d="M72.8962 28.5639C72.9462 28.6139 79.4959 29.7638 83.7956 29.0139C85.3955 28.7139 85.4455 27.014 84.1956 23.6641C83.5956 21.9142 72.5962 28.0139 72.8962 28.5639Z" fill="#DBC6A9"/>
<path opacity="0.4" d="M97.4447 45.063C95.0448 45.413 93.3949 38.4634 92.095 40.5132C79.6457 60.3122 71.5961 31.3637 71.1461 26.214C71.0961 25.764 70.2962 20.2144 69.2962 19.9644C65.2965 18.9644 64.0965 21.5143 65.2965 30.3638C65.1465 32.5637 68.3463 31.0138 68.8963 33.5136C69.8962 39.9133 71.9961 46.5129 77.2958 50.6627C86.5453 57.2123 97.4447 45.063 97.4447 45.063Z" fill="#CEB79B"/>
<path opacity="0.4" d="M98.9447 22.2142C98.4947 22.5142 90.0452 25.664 89.3952 26.764C88.5953 28.1139 89.4452 29.6638 89.8952 30.9138C90.3452 32.7637 90.1952 34.7136 91.3451 36.3135C91.7951 36.9634 93.145 37.9634 93.095 38.9133C92.995 40.6132 88.4453 42.4131 88.5453 42.9131C88.6953 43.963 100.495 47.0129 101.445 44.363C101.895 40.3132 100.845 34.7136 101.295 30.6138C100.895 28.5139 99.7446 24.2641 98.9447 22.2142Z" fill="#CEB79B"/>
<path opacity="0.4" d="M90.7953 47.1629C90.5453 45.9129 87.8954 43.5631 90.5953 41.9132C87.4455 39.0633 83.2957 43.7131 84.1956 38.2634C78.0459 46.0629 73.2462 38.0634 69.5964 29.7638C70.2464 38.2634 70.0464 44.663 77.346 50.6127C86.5955 57.2623 91.5452 51.1627 90.7953 47.1629Z" fill="#CEB79B"/>
<path opacity="0.4" d="M100.244 28.0139C99.7945 26.164 99.6945 23.9641 98.9445 22.2642C97.7446 22.4642 93.5448 23.7141 92.5449 24.4641C88.8451 27.2139 88.2951 26.814 89.895 31.0137C90.295 36.6634 92.3449 35.1135 93.0448 39.0133C92.8448 39.7633 91.8449 40.1632 91.6949 40.9632C89.695 42.9131 87.3451 39.2633 84.9453 41.0132C84.4453 41.8632 88.0451 44.263 88.7951 44.563C92.2949 45.9629 101.294 47.2129 101.294 45.413C101.594 42.4131 100.944 31.6637 100.244 28.0139ZM90.9449 31.0137C89.495 27.8639 96.4447 26.364 98.2446 27.8139C100.294 29.8638 98.7945 33.2636 98.7445 35.8135C98.3946 37.2634 99.1445 38.3633 97.2446 39.1133C97.9946 35.3635 91.7449 34.4636 90.9449 31.0137Z" fill="#CEB79B"/>
<path opacity="0.4" d="M98.4446 22.3142C96.7446 22.4142 99.1945 28.4139 99.7945 31.3637C100.694 35.4635 100.094 42.1632 95.3447 41.0632C94.9948 40.9632 95.5447 42.3631 95.4947 42.4131C93.6948 43.6631 91.5449 44.0131 89.545 44.763C92.7949 45.313 103.694 45.763 103.544 44.413C103.544 44.413 99.3445 21.9642 98.4446 22.3142Z" fill="#CEB79B"/>
<path opacity="0.4" d="M70.9461 15.7646C64.2964 19.8144 64.8964 24.3641 65.3464 30.3638C65.1964 32.5637 67.8462 32.2637 68.9462 33.5136C71.2461 36.8635 68.9962 40.0633 73.046 45.813C73.5959 45.563 74.1459 45.363 74.6959 45.213C72.396 39.1633 71.1961 30.3638 71.996 29.6139C73.046 28.6639 80.9455 28.4139 83.4454 28.9639C84.6453 29.1639 85.5453 24.9641 90.595 27.664C91.645 28.2139 94.0948 25.2641 99.7445 25.3141C99.7445 25.3141 99.3445 23.2142 98.9445 21.2643C96.3447 8.31501 73.8459 13.9647 70.9461 15.7646Z" fill="#CEB79B"/>
<path opacity="0.4" d="M83.7959 48.913C82.3959 48.463 79.6459 49.163 76.2959 45.463C75.8959 45.013 75.5459 46.463 75.3959 46.513C77.6459 56.013 83.7959 48.913 83.7959 48.913Z" fill="#CEB79B"/>
<path opacity="0.3" d="M71.0963 35.5135C70.3463 35.2135 69.5963 35.1635 69.0964 35.2135C68.9464 34.7136 68.7464 34.1636 68.4964 33.6636C67.6464 31.8137 65.1466 32.5137 65.2966 30.3638C65.1966 28.9639 64.6466 24.7641 65.7965 21.4143C66.4465 19.4644 68.8964 16.9645 70.4463 16.1146C69.0964 23.6142 67.9464 28.3139 71.0963 35.5135Z" fill="#D58500"/>
<path d="M80.6957 17.7645C85.8454 17.7145 93.445 16.7645 94.345 11.9148C94.345 11.9148 73.0461 5.86513 65.3966 13.6647C64.4966 14.5647 70.2463 15.3646 73.8961 16.6146C76.096 17.3645 78.3458 17.8145 80.6957 17.7645Z" fill="#CD7B00"/>
<path d="M68.7966 43.5631C67.8967 44.463 66.3968 45.063 65.1468 44.563C62.797 43.6631 62.547 41.5132 62.447 41.1132C62.397 40.8132 63.5469 39.6633 62.847 39.2633C61.997 38.7634 61.397 40.0633 60.8471 38.4634C60.3971 36.9635 59.6471 34.3136 60.4971 32.3137C60.8971 31.0638 62.297 30.8138 63.2969 30.1138C68.7466 27.314 72.8464 40.3133 68.7966 43.5631Z" fill="#E8D4BA"/>
<path d="M65.697 38.9637C65.647 38.3637 66.297 36.6637 66.797 36.2637C66.647 34.1137 64.647 33.0137 62.647 33.0137C61.697 32.9637 61.547 35.0137 61.997 35.9637C62.547 37.2137 63.597 34.5137 64.347 34.6137C65.697 34.7637 64.497 37.6137 64.397 38.3637C64.247 39.5137 66.497 42.2137 67.047 39.8637C66.597 39.4137 65.747 39.6137 65.697 38.9637Z" fill="#CEB79B"/>
<path opacity="0.4" d="M68.7965 43.5631C67.3466 45.163 64.5468 45.163 63.3469 43.2131C64.4468 40.7633 65.0467 39.2133 65.5467 36.6635C65.7967 35.4135 65.1967 30.4638 62.0469 30.8138C68.6465 25.9641 72.9963 40.0133 68.7965 43.5631Z" fill="#CEB79B"/>
<path opacity="0.4" d="M68.7964 43.5631C68.4464 43.9131 68.0464 44.163 67.5465 44.413C69.1464 42.7631 69.5464 35.2135 67.0965 30.7138C67.2965 30.8638 67.4465 31.0638 67.6465 31.2637C68.2464 31.9137 68.7964 32.7637 69.2464 33.7136C69.2964 33.7636 69.2964 33.8636 69.3464 33.9136C70.7963 37.1634 71.0463 41.4132 68.7964 43.5631Z" fill="#CEB79B"/>
<path d="M69.4472 34.1638C68.8972 33.8138 68.0472 33.6138 67.5972 33.2638C66.3472 32.3138 64.8972 31.5638 63.3972 31.5138C62.7472 31.5138 61.4972 31.6638 60.4972 32.3138C60.4972 32.3138 60.4972 32.3138 60.4972 32.2638C60.5972 32.0638 60.6972 31.8638 60.7972 31.6638C60.9972 31.3138 61.4472 31.1138 61.7972 30.9138C61.8472 30.9138 61.8972 30.8638 61.9472 30.8638C61.9972 30.8638 61.9972 30.8138 62.0472 30.8138C62.4472 30.5638 62.8472 30.4138 63.2972 30.1138C63.6972 29.8638 64.1472 29.7138 64.5972 29.6638C65.4972 29.6138 66.3472 30.0138 67.1472 30.6638C67.3472 30.8138 67.4972 31.0138 67.6972 31.2138C68.2972 31.8638 68.8472 32.7138 69.2972 33.6638C69.3472 33.7138 69.3472 33.8138 69.3972 33.8638C69.3972 34.0138 69.4472 34.0638 69.4472 34.1638Z" fill="#CEB79B"/>
<path d="M66.947 44.5132C66.897 45.1132 66.697 47.0132 65.747 46.6132C64.647 46.1632 67.247 42.7132 67.247 42.7132C67.247 42.7132 65.747 40.3632 63.797 43.7132C61.197 48.0632 65.747 50.0632 66.997 47.9132C67.647 46.8132 67.947 45.0632 67.997 44.2632C67.747 44.3632 67.497 44.4632 66.947 44.5132Z" fill="#676D54"/>
<path opacity="0.4" d="M66.9468 44.5132C66.8968 45.1132 66.6968 47.0132 65.7468 46.6132C64.6468 46.1632 67.2468 42.7132 67.2468 42.7132C67.2468 42.7132 67.1468 42.5132 66.8968 42.3132C66.5968 42.8632 64.0468 46.6132 62.9968 46.0632C62.8968 48.7132 65.9968 49.6132 66.9968 47.9132C67.6468 46.8132 67.9468 45.0632 67.9968 44.2632C67.7468 44.3632 67.4968 44.4632 66.9468 44.5132Z" fill="#474C2F"/>
<path d="M66.9468 44.5132C66.8968 45.1132 66.6968 47.0132 65.7468 46.6132C64.6468 46.1632 67.2468 42.7132 67.2468 42.7132C67.2468 42.7132 67.1968 42.6132 67.0968 42.5132C66.6468 42.8132 65.3468 45.1132 65.0968 46.1132C64.6468 47.8632 65.6968 48.5632 65.8468 48.7132C66.2968 48.6132 66.7468 48.3632 67.0468 47.8632C67.6968 46.7632 67.9968 45.0132 68.0468 44.2132C67.7468 44.3632 67.4968 44.4632 66.9468 44.5132Z" fill="#474C2F"/>
<path opacity="0.69" d="M65.2966 44.1632C65.7966 43.6632 66.3966 42.8132 66.4966 42.1132C65.8966 41.7632 64.8966 41.8132 63.7466 43.7632C63.4966 44.1632 63.2966 44.5632 63.1966 44.9632C63.4966 45.0132 64.8966 44.6632 65.2966 44.1632Z" fill="#949984"/>
<path d="M104.644 50.6127C104.444 48.0128 103.794 38.9633 103.794 38.9633C103.494 36.4134 101.844 33.6636 101.494 30.7138C101.045 27.9139 99.8946 25.714 99.1446 22.6142C99.0946 22.6142 99.0946 22.6142 99.0446 22.6142C99.3946 23.9141 99.5446 25.314 99.2946 26.814C99.6946 27.014 100.045 27.5139 100.545 28.1139L99.3946 27.5639C99.4946 28.0639 99.5946 28.5139 99.6446 29.0138C99.8446 29.1138 100.195 29.7138 100.295 29.9138L99.7946 29.6638C99.9446 31.9637 102.044 38.4633 100.245 39.9132C100.945 41.5132 100.445 43.713 99.8446 45.363C100.145 44.063 98.0947 41.6132 96.3948 41.5132C96.8447 41.6132 96.9947 42.4631 96.9947 42.5131C96.8447 42.3131 95.8448 41.1632 95.3948 41.1632C92.545 42.4631 89.1451 43.0631 84.9454 43.0131L83.5455 44.363C83.5455 43.813 83.7455 43.4631 84.0954 43.1631C79.1957 43.0131 78.6457 47.7128 78.5457 49.4127C76.8458 48.2128 76.2959 47.1129 76.3459 45.5629C72.0461 45.5629 72.0961 37.5134 71.5461 35.3135L70.5462 36.2635C70.9461 35.5635 71.4461 34.1636 71.0461 33.2136L70.3462 33.8636C70.4962 33.6136 70.7962 32.9136 70.8962 32.6137C70.8962 32.7136 70.8462 32.3137 70.7462 31.9637C70.0962 31.7137 67.1964 30.5138 66.4964 30.2638C70.4462 33.4136 70.4962 39.8633 68.5463 43.763C68.0963 44.613 67.2963 44.763 67.2963 44.763C68.2963 47.5128 71.3461 64.4119 76.4458 62.462C76.5458 62.612 79.4457 67.0618 80.5456 65.6119C83.3455 71.7615 86.7953 72.7115 93.1449 71.1615C97.4947 70.8116 100.045 66.3118 99.3446 62.262C99.9446 61.8121 102.194 60.0622 102.294 57.0123C103.694 54.1125 104.694 51.7126 104.644 50.6127Z" fill="#CE8000"/>
<path opacity="0.3" d="M102.294 56.9123C102.244 59.9621 99.9442 61.712 99.3442 62.162C99.9942 66.2118 97.4443 70.7115 93.1445 71.0615C86.7949 72.6614 83.3451 71.6615 80.5452 65.5118C79.3953 66.9118 76.4954 62.462 76.4454 62.362C71.3457 64.2619 68.2959 47.4128 67.2959 44.663C67.2959 44.663 67.7959 44.563 68.2459 44.063C70.0458 47.8128 71.5457 58.4122 77.2954 59.8621C77.4954 59.2622 76.9454 58.0122 77.0454 57.2123C84.745 63.4619 93.0945 64.1619 91.9446 51.9626C94.4944 54.0124 96.0944 52.3625 96.6443 49.7127C98.9442 50.9126 98.1943 44.463 97.6443 42.0131C98.9442 42.8131 100.044 44.413 99.7942 45.4129C100.444 43.813 100.894 41.5631 100.194 39.9632C101.944 38.5133 99.8942 32.0136 99.7442 29.7138L100.244 29.9638C100.144 29.7638 99.7942 29.1638 99.5942 29.0638C99.4942 28.6138 99.4442 28.1139 99.3442 27.6139L100.494 28.1639C99.9942 27.5639 99.5942 27.0639 99.2442 26.8639C99.4942 25.364 99.3442 23.9641 98.9942 22.6642C99.0442 22.6642 99.0442 22.6642 99.0942 22.6642C99.8442 25.764 100.994 27.9639 101.444 30.7637C101.794 33.7136 103.494 36.4634 103.744 39.0133C103.744 39.0133 104.444 48.0628 104.594 50.6626C104.694 51.7126 103.694 54.1124 102.294 56.9123Z" fill="#C77500"/>
<path opacity="0.3" d="M70.5462 41.7131C70.2962 45.3129 70.3462 47.3628 68.5463 49.3127C67.9963 47.1628 67.5463 45.3629 67.2963 44.663C67.2963 44.663 68.0963 44.513 68.5463 43.663C70.4962 39.7632 70.4462 33.3136 66.4964 30.1638C66.9964 30.3637 68.5463 31.0137 69.6962 31.4637C70.0962 35.3135 70.6462 39.5132 70.5462 41.7131Z" fill="#A05A07"/>
<path opacity="0.3" d="M102.294 56.9123C102.244 59.9622 99.9446 61.7121 99.3446 62.162C99.9946 66.2118 97.4447 70.7116 93.1449 71.0616C89.6951 71.9115 87.0953 72.0115 84.9954 70.9616C90.8451 67.3618 94.6949 60.9621 94.5449 54.0625C95.7948 57.2123 94.9948 61.1121 94.4949 64.0119C97.0947 59.0622 99.9446 53.7125 99.3446 47.9128C100.545 49.1627 100.845 51.3626 100.745 52.6126C101.245 48.0128 101.045 45.063 100.495 42.6631C100.595 41.7132 100.545 40.7132 100.245 39.9132C101.994 38.4633 99.9446 31.9637 99.7946 29.6638L100.295 29.9138C100.195 29.7138 99.8446 29.1138 99.6446 29.0138C99.5446 28.5639 99.4946 28.0639 99.3946 27.5639L100.545 28.1139C100.045 27.5139 99.6446 27.014 99.2946 26.814C99.5446 25.314 99.3946 23.9141 99.0446 22.6142C99.0946 22.6142 99.0946 22.6142 99.1446 22.6142C99.8946 25.714 101.045 27.9139 101.494 30.7138C101.844 33.6636 103.544 36.4134 103.794 38.9633C103.794 38.9633 104.494 48.0128 104.644 50.6127C104.694 51.7126 103.694 54.1125 102.294 56.9123Z" fill="#A05A07"/>
<g opacity="0.52">
<path opacity="0.3" d="M85.2949 46.1629C86.4949 46.9629 93.6945 45.9629 94.7944 44.313C92.1445 44.263 85.8949 46.0629 85.2949 46.1629Z" fill="#C77500"/>
<path opacity="0.3" d="M90.7945 48.2628C90.1445 48.4628 89.4945 48.6628 88.8445 48.4628C88.8445 50.0128 91.0445 50.6628 91.7445 49.1628C91.9945 48.0628 91.8445 47.8628 90.7945 48.2628Z" fill="#C77500"/>
</g>
<path d="M94.6448 44.313C91.8949 45.9129 88.0951 46.0629 84.8953 46.2129C84.4953 46.2129 84.3953 46.8629 84.8453 46.8629C88.2451 46.7129 92.0949 46.6129 95.0447 44.813C95.3947 44.513 94.9447 44.013 94.6448 44.313Z" fill="#995A07"/>
<path d="M91.3453 47.8129C91.1953 48.1129 90.4453 48.1128 90.1453 48.1628C89.6953 48.2128 89.2453 48.2628 88.8453 48.1628C88.4453 48.0628 88.3953 48.7628 88.7953 48.8128C89.3453 48.9128 89.9953 48.8629 90.5453 48.7629C90.9953 48.7129 91.6453 48.6128 91.8953 48.1628C92.0953 47.8129 91.5953 47.4629 91.3453 47.8129Z" fill="#995A07"/>
<path d="M85.7954 41.4634C85.1954 41.1634 84.6454 40.6134 84.4454 39.9134C84.3454 39.5134 84.2454 38.8134 84.5954 38.5134C84.8454 38.2634 84.4954 37.8634 84.2454 38.1134C83.7454 38.6134 83.7954 39.4134 83.9454 40.0634C84.1454 40.9634 84.8454 41.6134 85.6454 42.0134C85.9454 42.1634 86.0954 41.6134 85.7954 41.4634Z" fill="#CEB79B"/>
<path d="M92.6955 37.2635C92.5455 36.9635 92.0455 37.1635 92.1955 37.5135C93.3455 40.2635 93.0955 38.3135 92.0955 39.5635C92.0955 38.3635 91.8455 37.1635 91.1955 36.2135C90.9955 35.9135 90.5955 36.2635 90.7955 36.5635C91.2455 37.2635 91.4455 38.0635 91.5455 38.9135C91.7455 40.6135 91.2455 41.4135 89.5955 41.4135C88.8955 41.0135 87.7455 39.8635 85.7455 40.5135C85.3955 40.6135 85.6455 41.1135 85.9955 41.0135C88.0455 40.3635 89.0955 41.9135 89.4455 41.9135C92.3955 41.9635 90.8955 41.1135 93.2955 39.6135C94.0455 39.1135 92.9455 37.8135 92.6955 37.2635Z" fill="#CEB79B"/>
<path d="M90.3949 32.014C90.4449 30.414 89.3449 29.264 89.5449 27.614C89.5949 27.264 88.9949 27.164 88.9949 27.564C88.6949 29.414 89.9449 30.714 89.8949 32.514C90.0449 32.964 89.8949 35.364 90.7449 34.714C90.7449 33.814 90.3449 32.914 90.3949 32.014Z" fill="#CEB79B"/>
<path d="M81.4954 29.7638C80.5454 29.7638 79.2454 29.6138 78.4954 30.2638C78.1454 31.0138 78.8454 31.9138 79.4954 32.2138C80.9454 33.0638 83.3454 30.6638 81.4954 29.7638Z" fill="#3E875B"/>
<path d="M81.4956 29.7638C80.5956 29.8138 77.9956 29.4638 78.4456 31.0138C79.2456 30.9638 80.8956 30.1138 81.1956 31.2638C81.2456 31.8638 80.4956 32.1138 80.0956 32.3138C81.4456 32.6138 83.0956 30.4638 81.4956 29.7638Z" fill="#3B754B"/>
<path d="M94.0447 29.214C95.2447 30.264 97.3447 28.864 96.5447 27.364C96.1447 27.064 95.4947 27.214 95.0447 27.264C93.7947 27.264 92.8947 28.164 94.0447 29.214Z" fill="#3E875B"/>
<path d="M96.5446 27.4139C96.1446 27.0639 95.4945 27.2639 95.0445 27.3139C94.2945 27.3639 93.1945 27.5639 93.5445 28.5639C94.7945 27.9639 96.0946 28.7639 94.5946 29.5139C95.8446 29.9639 97.1946 28.5139 96.5446 27.4139Z" fill="#3B754B"/>
<path d="M98.3448 27.914C98.2448 28.064 98.0947 28.064 97.9447 28.014C95.6447 26.314 92.6448 28.864 91.3448 30.064C90.0448 29.864 94.9448 25.314 98.2448 27.564C98.3948 27.614 98.4448 27.764 98.3448 27.914Z" fill="#676D54"/>
<path d="M83.8957 31.3138C83.1457 31.6138 82.5957 29.9138 79.5957 30.0638C77.1957 30.2138 75.4957 31.5638 75.4957 31.5638C75.1957 31.8138 74.7957 31.3638 75.0957 31.1138C75.1457 31.0638 76.9457 29.6138 79.5457 29.4638C82.3957 29.3638 84.3457 30.7638 83.8957 31.3138Z" fill="#676D54"/>
<path d="M75.3453 0.665436C75.3453 0.665436 72.9453 1.06544 71.0453 1.96544C69.4953 2.66544 69.5453 4.96544 69.5453 4.96544L75.3453 0.665436Z" fill="#BBB99D"/>
<path d="M76.7445 2.01535C71.3448 1.2154 56.3456 3.71526 57.2455 27.064C57.2455 27.064 100.843 21.6643 100.743 21.2643C94.0435 -3.03437 76.9945 2.06535 76.7445 2.01535Z" fill="#979E87"/>
<path opacity="0.4" d="M66.6951 6.21512C64.3951 6.31512 60.2951 11.0651 61.9951 13.2651C62.4951 13.9151 63.3951 13.9651 64.0951 13.8151C67.4951 13.1151 69.7451 8.51512 68.4451 7.01512C67.9951 6.51512 67.3451 6.21512 66.6951 6.21512Z" fill="#C5CAB9"/>
<path d="M100.593 20.6643C95.7936 4.5652 87.094 -0.634513 70.7949 2.51532C79.3445 9.51493 63.9953 26.864 58.0956 16.9145C57.3457 20.2143 57.1457 23.7142 57.2957 27.114C57.1457 27.114 59.3956 26.864 60.0455 26.764C73.3448 25.1641 86.6441 23.4142 99.9433 21.5143C100.543 21.3643 100.843 21.3643 100.593 20.6643ZM91.0438 6.4651C92.3938 8.66498 90.8938 12.7648 89.2939 10.2149C88.444 8.86497 88.544 7.21506 87.3441 5.71514C86.4941 4.5652 89.3439 3.61525 91.0438 6.4651ZM76.2446 13.3147C76.7946 13.7147 76.5446 14.4647 76.1946 14.8646C75.7947 15.5646 74.3948 16.2146 74.3448 14.8646C74.4448 14.0647 75.2947 12.7148 76.2446 13.3147Z" fill="#949984"/>
<path opacity="0.4" d="M85.4941 18.2145C90.3938 15.4146 87.394 6.31511 83.8442 1.86536C82.4442 1.61537 81.1443 1.56537 80.0443 1.56537C83.6941 6.4651 84.7941 12.3648 85.4941 18.2145Z" fill="#676D54"/>
<path opacity="0.4" d="M58.1959 26.964C61.7457 26.514 74.295 24.9641 84.8444 23.5642C83.5445 22.8142 82.4946 22.2143 78.9947 21.4643C73.3951 20.2144 64.1455 21.5143 58.1959 26.964Z" fill="#676D54"/>
<path opacity="0.4" d="M91.8439 5.71515C93.1439 11.8148 92.5939 16.1146 86.0942 23.4142C94.1938 22.3642 100.393 21.5143 100.343 21.3643C98.1936 13.4147 95.2937 8.56499 91.8439 5.71515Z" fill="#676D54"/>
<path d="M85.8444 8.665C82.8946 0.415449 79.5447 -0.784481 74.745 0.615443C71.9451 1.4154 70.6452 2.21535 70.2452 2.56533C70.7452 2.41534 72.1951 2.01536 72.6451 2.21535C74.095 2.81532 75.5449 4.11525 76.5449 5.36518C81.1446 10.8649 80.8447 15.2646 82.1446 17.1645C82.7945 18.0645 84.1945 18.7145 85.1944 18.3145C86.6443 17.7145 87.9943 14.6647 85.8444 8.665Z" fill="#BBB99D"/>
<path d="M70.6955 2.51535C71.2955 2.36535 72.2455 2.16535 72.6455 2.26535C71.2955 1.71535 70.6955 2.46535 70.6955 2.51535Z" fill="#676D54"/>
<path d="M86.2946 8.61499C88.4444 14.6147 86.8945 17.6145 85.4946 18.2145C84.4947 18.6644 83.2947 18.0145 82.6448 17.1145C81.3448 15.2146 81.6948 10.8149 77.0451 5.31516C75.4951 3.51526 73.0453 1.41538 71.0954 1.96535C78.095 -1.08449 82.5448 -1.73445 86.2946 8.61499Z" fill="#C2C2AC"/>
<path d="M76.2451 4.46523C80.5949 4.46523 80.8948 1.81537 80.9448 0.715432C78.245 -0.684492 75.0952 0.265456 71.0954 2.01536C72.6953 1.51539 74.6952 2.91531 76.2451 4.46523Z" fill="#C5CAB9"/>
<path d="M80.3449 10.1149C81.7949 13.3149 81.7949 15.6649 82.6949 16.9649C83.3449 17.8649 84.4949 18.6649 85.4949 18.2649C86.8449 17.7149 88.3449 14.8649 86.5449 9.31494C84.4949 11.0649 82.2949 11.2149 80.3449 10.1149Z" fill="#BBB99D"/>
<path d="M85.3448 11.8648C84.7448 11.2648 83.8448 11.6148 83.5448 12.0648C82.8448 13.0148 83.8448 14.8648 85.0948 14.1648C85.7948 13.7648 85.9448 12.4648 85.3448 11.8648Z" fill="#979E87"/>
<path d="M85.3445 11.8648C85.0945 11.6148 84.7944 11.5148 84.4944 11.5648C85.7444 11.9148 85.4944 14.1648 84.2444 14.2648C85.4944 14.6648 86.1945 12.7148 85.3445 11.8648Z" fill="#949984"/>
<path d="M81.8449 4.8152C81.4449 4.7152 81.0448 4.8652 80.7948 5.2152C79.5948 6.6652 82.9449 8.26521 83.0949 6.26521C83.0949 5.51521 82.4949 4.9152 81.8449 4.8152Z" fill="#979E87"/>
<path d="M81.7949 4.7652C82.2949 5.1652 82.6949 5.51519 82.6449 6.06519C82.5949 6.86519 82.0449 7.06519 81.4449 6.96519C82.1449 7.26519 82.9949 7.16519 83.0449 6.16519C83.0449 4.96519 81.7949 4.7652 81.7949 4.7652Z" fill="#949984"/>
<path d="M78.3951 0.86542C77.9451 0.46542 76.3451 0.365418 76.4451 1.51542C76.6451 2.81542 78.0451 2.66542 78.5451 2.16542C79.1951 1.56542 78.6451 1.11542 78.3951 0.86542Z" fill="#979E87"/>
<path d="M78.395 0.865414C78.045 0.565414 77.1449 0.415411 76.6949 0.815411C77.7949 0.315411 78.995 1.46541 78.045 2.41541C78.795 2.16541 79.045 1.46541 78.395 0.865414Z" fill="#949984"/>
<path d="M57.7959 31.0138C57.1459 30.7138 56.546 28.5639 56.496 27.014C61.2957 24.5641 100.444 20.4143 100.794 20.6643C101.244 20.9643 101.544 23.3642 101.594 24.0641C95.8438 24.6641 57.7959 31.0138 57.7959 31.0138Z" fill="#C2C2AC"/>
<path d="M100.794 20.6643C100.644 20.5643 94.7439 21.1143 87.2443 22.0143C87.6943 23.4142 87.4443 24.8641 87.0943 26.214C93.8439 25.1641 99.5936 24.2641 101.594 24.0641C101.594 23.3642 101.294 20.9643 100.794 20.6643Z" fill="#BBB99D"/>
<path d="M65.3955 28.1639C69.5952 27.664 73.2451 26.164 76.0949 23.3642C67.4454 24.5141 59.2958 25.8141 56.8459 26.864C59.2458 28.4139 62.5956 28.5139 65.3955 28.1639Z" fill="#C5CAB9"/>
<path d="M61.2462 27.414C60.8462 26.314 58.7962 26.914 59.0962 28.164C59.5462 30.114 61.8962 28.664 61.2462 27.414Z" fill="#979E87"/>
<path opacity="0.4" d="M59.5962 28.164C59.5962 27.664 59.7962 26.964 60.2462 26.814C58.4462 26.814 58.9962 29.714 60.5462 29.014C60.0962 29.014 59.5962 28.664 59.5962 28.164Z" fill="#676D54"/>
<path d="M70.6453 25.564C69.9953 25.164 68.8453 25.964 68.7453 26.714C68.6953 27.014 68.8453 27.364 69.0953 27.564C69.6953 28.064 70.9953 27.764 71.1953 26.664C71.2453 26.214 71.0453 25.814 70.6453 25.564Z" fill="#979E87"/>
<path opacity="0.4" d="M68.9951 26.7141C69.0951 26.1641 69.6951 25.6141 70.2451 25.4641C69.5951 25.4641 68.8951 26.1141 68.7951 26.7141C68.7451 27.0141 68.8951 27.364 69.1451 27.564C69.3951 27.764 69.7951 27.8641 70.1951 27.7641C69.8451 27.8141 68.7951 27.6641 68.9951 26.7141Z" fill="#676D54"/>
<path d="M78.6956 24.6141C77.9456 25.5641 79.3956 27.4141 80.6456 25.9641C81.7956 24.7141 79.5456 23.4641 78.6956 24.6141Z" fill="#979E87"/>
<path opacity="0.4" d="M78.4958 25.4641C78.6458 26.6641 80.4458 26.9141 80.8958 25.4641C80.7958 25.4641 78.9958 25.3141 78.4958 25.4641Z" fill="#676D54"/>
<path opacity="0.4" d="M78.9458 24.5641C79.1958 24.3141 79.5458 24.1641 79.8958 24.1641C79.4458 24.1141 78.9958 24.2141 78.7458 24.5641C78.1958 25.3141 78.8958 26.5641 79.8458 26.4641C78.8958 26.4141 78.2958 25.2641 78.9458 24.5641Z" fill="#676D54"/>
<path d="M89.6953 23.0142C88.0953 22.9142 87.9453 25.4642 89.6953 25.1642C90.1953 25.0642 90.5953 24.6642 90.5453 23.8142C90.4453 23.4142 90.0953 23.0642 89.6953 23.0142Z" fill="#979E87"/>
<path opacity="0.4" d="M89.1953 23.1142C90.5453 22.8142 90.5953 25.0142 89.6453 25.1642C90.5953 25.2142 90.9453 23.1142 89.6953 23.0142C89.6953 23.0642 89.3453 23.0642 89.1953 23.1142Z" fill="#676D54"/>
<path d="M98.9443 21.5643C97.1443 21.7643 98.3943 24.7643 99.7943 23.5643C100.944 23.0143 99.9943 21.5143 98.9443 21.5643Z" fill="#979E87"/>
<path opacity="0.4" d="M98.9443 21.5643C98.7943 21.5643 98.6943 21.6143 98.5443 21.6643C99.3943 21.7143 100.494 22.9143 99.0944 23.8143C99.3444 23.8143 99.5443 23.7143 99.7943 23.5643C101.044 22.6643 99.7943 21.5143 98.9443 21.5643Z" fill="#676D54"/>
<path d="M97.5947 22.5142C95.4949 22.3142 92.095 23.5642 90.1451 24.5641L90.3451 25.6141L89.5952 24.8641C88.6952 25.4141 88.7452 25.814 89.3952 26.664C90.5951 28.3139 90.4451 28.1639 90.8951 28.0639C93.545 26.264 96.7448 25.1141 98.4947 24.9641C98.5947 24.6641 98.3947 22.6142 97.5947 22.5142Z" fill="#CE8000"/>
<path opacity="0.3" d="M97.5452 22.5142C96.7952 22.4642 95.8952 22.5642 94.9452 22.7642C94.7952 23.4642 93.4452 26.2142 92.9952 24.3642C92.4952 25.8142 91.1952 26.7142 90.4452 28.0142C90.5952 28.1142 90.6952 28.0642 90.8952 28.0142C93.5452 26.2142 96.7452 25.0642 98.4952 24.9142C98.5952 24.6142 98.3952 22.5642 97.5452 22.5142Z" fill="#C77500"/>
<path opacity="0.6" d="M97.5952 22.5142C97.0452 22.4642 96.3952 22.5142 95.7452 22.6142C96.0452 23.6142 95.8952 24.6642 95.5452 25.6642C96.6952 25.2642 97.7452 25.0142 98.4952 24.9142C98.5952 24.6142 98.3952 22.6142 97.5952 22.5142Z" fill="#A05A07"/>
<path opacity="0.3" d="M96.6951 23.9642C96.8451 24.9142 97.8451 23.1142 97.9451 22.7142C97.4951 22.3642 96.8951 22.5642 96.2951 22.5642C96.3951 23.0142 96.5951 23.4642 96.6951 23.9642Z" fill="#C77500"/>
<path d="M83.0457 23.9142L82.6457 24.7642L82.5457 23.8642C79.9959 23.8142 74.9461 24.4142 73.0462 25.6641C72.9462 25.7641 73.2462 28.564 74.0962 27.964C74.5462 27.2141 76.4461 26.6641 76.3461 26.7641C76.3461 26.7641 76.0961 27.1641 75.8461 27.664C78.546 27.364 82.9457 27.3141 84.1956 27.414C84.9456 27.464 85.2956 26.2141 85.2456 25.1142C85.1456 23.7642 84.9956 23.9642 83.0457 23.9142Z" fill="#CE8000"/>
<path opacity="0.3" d="M83.0455 23.9142L82.6456 24.7641L82.5456 23.8642C82.3456 23.8642 82.3456 23.8642 82.1456 23.8642C80.3457 26.414 77.0959 27.164 75.9959 27.414C75.9459 27.514 75.8959 27.614 75.8459 27.714C78.5458 27.414 82.9455 27.364 84.1955 27.464C84.9454 27.514 85.2954 26.264 85.2454 25.1641C85.1454 23.7642 84.9954 23.9642 83.0455 23.9142Z" fill="#C77500"/>
<path opacity="0.6" d="M83.9456 23.9142C83.9456 25.2142 83.1956 26.4142 82.3456 27.4142C84.3956 27.5142 85.2956 27.6642 85.2456 25.1642C85.1456 24.0142 85.0456 23.9642 83.9456 23.9142Z" fill="#A05A07"/>
<path opacity="0.3" d="M73.8964 28.0639C73.9464 28.0639 73.9964 28.0139 74.0464 28.0139C74.0964 27.9139 74.1964 27.8139 74.2964 27.7139C73.9964 27.7639 73.6964 27.7639 73.3964 27.7639C73.5464 28.0139 73.6964 28.1139 73.8964 28.0639Z" fill="#C77500"/>
<path d="M92.8449 154.807C92.1949 160.757 89.4951 166.706 86.5452 171.806L79.1456 169.706C79.1956 169.706 85.4453 151.257 90.645 151.407C92.4949 151.557 92.9449 153.207 92.8449 154.807Z" fill="#474C2F"/>
<path d="M86.5454 171.856L85.9955 171.706C89.5453 167.306 94.045 151.857 90.7952 151.857L90.0452 151.357C92.2951 151.107 92.9951 153.207 92.8951 154.857C92.5451 160.557 88.0453 169.906 86.5454 171.856Z" fill="#676D54"/>
<path d="M117.893 158.407C117.893 159.357 117.593 160.357 116.943 161.107C117.293 162.757 117.143 164.956 115.794 166.106C116.494 168.356 115.344 170.356 113.194 171.056C113.194 171.056 112.994 171.056 112.794 170.706C103.544 173.706 93.8947 167.206 84.3953 169.856C84.2453 165.156 84.0953 157.957 84.5453 153.207C91.8449 152.157 92.8448 152.507 98.0945 146.807C99.3945 145.308 101.194 144.058 102.294 142.358C102.994 141.358 108.194 137.308 108.894 136.258C109.694 135.158 109.544 131.408 111.694 132.458C115.494 136.908 111.544 142.208 108.244 145.508C111.794 147.457 117.393 149.157 116.494 154.307C117.343 155.507 117.893 156.957 117.893 158.407Z" fill="#E8D4BA"/>
<path d="M116.993 161.107C117.343 162.607 117.243 164.556 116.144 165.756C116.044 165.856 115.944 166.006 115.794 166.106C115.844 166.206 115.844 166.306 115.844 166.356C116.344 168.456 115.244 170.356 113.194 171.006C113.194 171.006 112.994 171.006 112.794 170.656C103.544 173.656 93.8947 167.156 84.3953 169.806C84.2453 165.106 84.0953 157.907 84.5453 153.157C87.4451 152.757 89.345 152.557 90.8949 152.107C93.2948 151.457 94.9447 150.207 98.0945 146.757C99.3945 145.258 101.194 144.008 102.294 142.308C102.994 141.358 108.194 137.258 108.894 136.208C109.694 135.108 109.544 131.308 111.694 132.408C115.494 136.858 111.544 142.158 108.244 145.458C110.894 146.907 114.694 148.207 116.044 150.907C116.394 151.607 116.593 152.457 116.543 153.407C116.543 153.657 116.493 153.957 116.444 154.257C116.493 154.307 116.544 154.407 116.594 154.507C117.293 155.657 117.793 157.057 117.793 158.407C117.943 159.357 117.593 160.357 116.993 161.107Z" fill="#E8D4BA"/>
<path opacity="0.4" d="M116.993 161.107C117.343 162.757 117.193 164.956 115.843 166.106C116.543 168.356 115.443 170.356 113.243 171.056C113.243 171.056 113.044 171.056 112.844 170.706C103.594 173.706 93.9445 167.206 84.4451 169.856C84.2951 165.156 84.1451 157.957 84.5951 153.207C88.6448 152.607 90.7947 152.457 92.7946 151.457C91.7447 156.607 93.6946 163.807 99.5442 167.056C104.344 168.806 116.843 171.056 114.493 162.907C116.393 159.507 114.893 159.357 114.043 157.857C115.193 155.957 115.843 152.557 113.593 151.157C114.293 150.507 114.393 149.607 114.143 148.707C115.893 150.007 117.093 151.707 116.593 154.307C117.393 155.507 117.943 156.957 117.943 158.457C117.943 159.357 117.593 160.357 116.993 161.107Z" fill="#CEB79B"/>
<path opacity="0.6" d="M115.893 166.356C116.393 168.456 115.293 170.356 113.244 171.006C113.244 171.006 113.044 171.006 112.844 170.656C103.594 173.656 93.9445 167.156 84.4451 169.806C84.2951 165.106 84.1451 157.907 84.5951 153.157C87.4949 152.757 89.3948 152.557 90.9447 152.107C88.7948 158.707 88.8948 172.656 96.3444 167.556C97.3944 167.306 98.3443 168.006 99.3443 168.306C102.144 169.156 105.044 169.956 107.994 169.756C110.594 169.806 114.543 168.756 115.893 166.356Z" fill="#CEB79B"/>
<path opacity="0.6" d="M116.993 161.107C117.343 162.607 117.243 164.557 116.143 165.757C116.393 165.007 116.393 164.107 116.043 163.057C116.593 162.557 116.893 161.857 116.993 161.107Z" fill="#CEB79B"/>
<path d="M114.543 162.807C115.543 163.807 115.093 164.557 114.893 165.207C115.293 165.457 115.543 165.707 115.843 166.107C116.093 165.857 116.293 165.607 116.493 165.307C116.393 164.957 114.893 163.207 114.543 162.807Z" fill="#CEB79B"/>
<path d="M114.794 160.757C114.994 159.207 112.744 158.507 112.694 160.657C112.544 162.257 114.644 162.557 114.794 160.757Z" fill="#EDDAC5"/>
<path d="M98.8449 151.757C100.745 149.207 99.1949 146.307 96.7949 150.007C94.7449 152.657 96.6949 154.807 98.8449 151.757Z" fill="#EDDAC5"/>
<path d="M113.944 165.606C114.144 165.006 114.144 164.306 113.394 164.206C110.544 164.056 112.594 168.856 113.944 165.606Z" fill="#EDDAC5"/>
<path opacity="0.4" d="M105.644 146.958C105.644 146.958 101.094 147.058 99.0443 145.808C99.2943 145.508 99.5943 145.258 99.8943 145.008C99.9943 144.908 100.094 144.858 100.094 144.858C100.444 144.608 100.794 144.258 101.144 143.858C101.994 144.858 103.394 145.958 105.644 146.958Z" fill="#CEB79B"/>
<path d="M98.9447 170.457C99.0447 170.307 101.045 167.257 100.895 162.657C100.895 162.657 102.995 170.107 101.795 171.007C101.795 171.007 99.7447 170.607 98.9447 170.457Z" fill="#CEB79B"/>
<path d="M90.695 152.157C90.695 152.157 89.6951 153.607 89.0451 155.307C87.9452 158.207 87.0452 162.957 89.0951 169.206C88.8951 169.256 84.3954 169.856 84.3954 169.856C84.3454 169.806 84.3954 155.207 84.5454 153.307C84.5454 153.307 89.8951 152.207 90.695 152.157Z" fill="#CEB79B"/>
<path d="M111.794 87.6107L112.494 91.8604C112.494 91.8604 93.495 95.7602 91.4951 91.5605C90.8452 90.0606 92.1451 88.8606 93.595 88.1606C93.595 88.1606 109.094 87.4107 111.794 87.6107Z" fill="#474C2F"/>
<path d="M111.794 87.3607V87.8606C107.544 87.6107 91.3449 86.9107 91.5949 91.6604C90.8449 90.1605 91.9949 88.8106 93.5948 88.3606C98.0445 87.1107 109.444 87.1107 111.794 87.3607Z" fill="#676D54"/>
<path d="M91.0947 151.607C90.9947 151.657 89.7947 152.307 88.6948 153.657C85.245 158.257 85.9449 166.006 86.5449 171.556C85.245 171.706 83.7951 171.756 82.4951 171.706C82.4451 167.156 82.1951 151.357 82.1951 150.107C84.795 150.557 87.5449 151.057 90.0947 151.257C90.3947 151.357 90.7947 151.507 91.0947 151.607Z" fill="#676D54"/>
<path d="M90.0449 151.207C84.2953 156.307 84.9952 164.806 86.0452 171.706C61.9465 172.306 36.0479 195.405 20.3987 165.606C20.3987 164.806 31.4982 153.207 41.3476 148.357C55.0969 141.558 73.8458 149.757 90.0449 151.207Z" fill="#9EA58E"/>
<path d="M90.0449 151.207C89.295 151.857 88.645 152.607 88.0951 153.407C84.4953 158.507 85.0952 165.706 86.0452 171.706C61.9465 172.306 36.0479 195.405 20.3987 165.606C20.3987 164.806 31.4982 153.207 41.3476 148.357C41.9976 148.007 42.6975 147.707 43.3975 147.457C56.8968 142.358 74.6458 149.807 90.0449 151.207Z" fill="#9EA58E"/>
<path d="M85.345 164.557C71.2958 163.057 67.096 153.607 65.696 146.807C73.8456 148.207 82.2451 150.457 90.0447 151.157C86.1949 154.607 85.245 159.557 85.345 164.557Z" fill="#B1B7A5"/>
<path d="M75.4957 173.156C54.6469 177.906 33.798 191.055 20.3987 165.557C20.1988 164.707 35.8979 148.907 45.4974 146.758C48.5472 154.857 56.5968 169.956 75.4957 173.156Z" fill="#949984"/>
<path opacity="0.14" d="M86.045 171.706C64.4462 172.256 41.3474 190.905 25.5483 173.206C25.8483 173.456 26.0983 173.656 26.3483 173.806C34.9478 179.556 37.6477 179.506 45.3472 179.306C59.4465 177.156 68.846 171.106 85.845 170.206C85.895 170.656 85.995 171.156 86.045 171.706Z" fill="#474C2F"/>
<path opacity="0.14" d="M82.2455 154.457C81.8455 154.007 82.0955 153.257 82.6455 152.907C82.9955 152.807 84.5455 154.407 83.8955 154.757C83.2955 155.107 82.5455 154.807 82.2455 154.457Z" fill="#474C2F"/>
<path opacity="0.14" d="M45.2477 149.457C42.9477 153.707 39.1477 147.907 43.9977 148.357C44.3477 148.357 45.4477 148.907 45.2477 149.457Z" fill="#474C2F"/>
<path opacity="0.14" d="M52.6968 148.307C53.4468 148.357 55.2968 148.807 55.2968 149.107C54.9468 151.607 50.6968 149.957 52.6968 148.307Z" fill="#474C2F"/>
<path opacity="0.14" d="M62.2464 149.507C62.2964 149.507 64.3964 150.257 64.6464 150.557C64.8464 150.807 64.5464 151.207 64.3964 151.407C63.7964 152.257 60.6964 152.107 61.3464 150.457C61.4464 150.107 61.9464 149.607 62.2464 149.507Z" fill="#474C2F"/>
<path d="M84.8454 153.657C84.0954 155.557 82.2954 154.557 82.2454 153.607C82.2454 152.207 85.4954 152.057 84.8454 153.657Z" fill="#676D54"/>
<path opacity="0.14" d="M71.3959 151.907L71.5959 151.857C71.8959 151.557 74.4459 152.507 73.9459 153.207C73.3459 153.957 71.9959 154.007 71.3459 153.757C70.7459 153.357 70.9959 152.357 71.3959 151.907Z" fill="#474C2F"/>
<path d="M84.8452 153.657C84.6452 154.107 84.3951 154.407 84.1451 154.557C84.2951 154.407 84.3951 154.207 84.4951 153.957C84.9951 152.807 83.3451 152.557 82.4451 153.057C83.0451 152.207 85.3952 152.307 84.8452 153.657Z" fill="#474C2F"/>
<path d="M74.1459 152.607C74.1959 153.507 72.3459 153.657 71.7959 153.457C71.4959 153.357 71.2959 153.107 71.2459 152.857C70.5959 151.357 74.0959 150.557 74.1459 152.607Z" fill="#676D54"/>
<path d="M71.4457 151.857C72.1957 151.157 74.0458 151.107 74.0958 152.607C74.0958 152.957 73.8457 153.207 73.4457 153.357C73.5457 153.257 73.5958 153.107 73.5958 152.907C73.5958 151.657 72.3457 151.457 71.4457 151.857Z" fill="#474C2F"/>
<path d="M61.6964 149.857C62.6464 148.857 64.2464 149.307 64.6464 150.207C64.8464 150.607 64.5964 151.057 64.2464 151.207C63.3464 151.707 61.8964 151.407 61.5964 150.657C61.4964 150.457 61.4964 150.107 61.6964 149.857Z" fill="#676D54"/>
<path d="M64.6465 150.257C64.8465 150.657 64.5965 151.107 64.2465 151.257C64.1965 151.257 64.1465 151.307 64.1465 151.307C64.2965 151.107 64.3465 150.857 64.2465 150.557C63.8965 149.807 62.6965 149.357 61.7465 149.857C62.6965 148.857 64.2465 149.357 64.6465 150.257Z" fill="#474C2F"/>
<path opacity="0.14" d="M51.797 179.706C39.6476 182.306 28.5982 181.256 20.3987 165.606C20.3987 165.256 22.7986 162.507 26.3984 159.207C27.5483 163.357 32.398 174.656 51.797 179.706Z" fill="#474C2F"/>
<path d="M52.897 148.107C54.097 147.207 56.197 148.257 54.897 149.657C53.747 150.557 51.347 149.557 52.897 148.107Z" fill="#676D54"/>
<path d="M52.897 148.107C54.147 147.157 56.247 148.357 54.797 149.707C55.497 148.207 53.497 147.757 52.497 148.507C52.647 148.357 52.747 148.207 52.897 148.107Z" fill="#474C2F"/>
<path d="M42.2975 148.507C43.5475 147.707 44.7475 148.007 45.2475 148.557C45.8975 149.357 44.4475 151.307 42.3475 149.957C41.7475 149.557 41.4975 149.007 42.2975 148.507Z" fill="#676D54"/>
<path d="M42.2972 148.507C43.9972 147.357 46.4472 148.357 44.8972 149.957C45.6972 148.357 43.2972 147.907 41.8472 148.957C41.8972 148.807 42.0472 148.657 42.2972 148.507Z" fill="#474C2F"/>
<path opacity="0.14" d="M90.0446 151.207C89.2946 151.857 88.6447 152.607 88.0947 153.407C87.2948 152.907 86.0448 151.607 83.7949 151.607C79.1452 151.607 75.2454 153.157 74.0455 150.707C73.2955 149.107 66.4959 150.157 65.046 149.107C61.7961 146.857 58.4463 150.507 55.2965 147.357C53.7966 145.858 45.697 148.357 43.3472 147.457C56.8964 142.358 74.6454 149.807 90.0446 151.207Z" fill="#474C2F"/>
<path d="M111.844 91.0105C109.644 93.6604 96.0945 96.0103 94.3446 97.2602C93.1446 95.3103 93.4446 92.8104 92.6946 90.7106C92.1447 88.9606 87.6449 86.6108 86.045 85.0609C82.9452 82.761 79.9953 79.8112 78.4454 76.3113C76.0955 75.3114 78.5454 71.9616 79.5454 70.9116C79.5454 70.9116 79.5954 70.8116 79.6454 70.8116C80.4453 69.1117 80.8453 67.8118 82.5952 66.8618C83.1452 63.812 85.595 63.512 87.8449 62.3121C85.595 60.5122 82.8452 58.8123 80.5953 56.8624C78.9454 55.5625 73.2457 50.3628 77.9454 49.7628C83.8951 53.9626 90.5448 57.0124 96.6944 60.8622C97.3444 61.3122 99.2943 62.6121 99.3943 62.6621C99.4443 58.8123 99.4443 55.6125 103.294 51.9127C104.094 51.1627 105.044 50.5127 106.194 50.5127C106.794 50.5627 107.994 50.3128 107.944 51.1627C106.994 54.2125 105.594 56.5124 105.544 59.5123C105.544 59.5123 106.394 65.9119 105.894 67.6618L105.944 67.7118C105.044 75.7614 104.694 79.7111 109.344 86.8608C110.194 88.1107 111.044 89.6606 111.844 91.0105Z" fill="#E8D4BA"/>
<path d="M105.894 55.9127C105.944 55.8627 107.544 52.3627 107.794 51.2127C106.044 50.7627 104.744 55.1627 105.894 55.9127Z" fill="#EDDAC5"/>
<path d="M106.844 51.0627C106.394 51.5127 104.344 53.8127 105.344 55.7127C104.144 54.1127 104.894 52.0627 106.844 51.0627Z" fill="#CEB79B"/>
<path opacity="0.4" d="M107.644 50.5627C107.194 50.6627 105.894 50.9127 104.644 51.8627C103.844 52.4626 103.094 53.3126 102.544 54.5125C101.194 57.6124 101.494 61.4122 101.744 63.462C101.794 63.762 101.794 64.012 101.844 64.212C101.844 64.262 101.844 64.262 101.844 64.312C101.844 64.312 101.494 64.112 100.944 63.762C100.444 63.412 99.844 62.9621 99.294 62.4121C99.294 62.3621 99.294 62.3121 99.294 62.2621C99.344 60.9122 99.294 59.0623 99.794 57.0124C99.994 56.2124 101.244 53.5626 103.194 51.7627L103.244 51.7127C103.544 51.4627 103.844 51.2127 104.144 51.0127C104.244 50.9627 104.294 50.9127 104.394 50.8627C104.444 50.8627 104.444 50.8127 104.494 50.8127C104.544 50.8127 104.544 50.7627 104.594 50.7627C105.044 50.5128 105.494 50.4128 106.044 50.4128C106.244 50.4128 106.494 50.4128 106.744 50.4128C107.194 50.4627 107.444 50.5127 107.644 50.5627Z" fill="#CEB79B"/>
<path opacity="0.4" d="M105.244 56.8624C105.444 56.9124 105.594 56.9624 105.794 56.9624C105.644 57.6624 105.494 58.4623 105.444 59.2623C105.044 58.9623 101.994 55.9125 101.994 61.6122C101.994 63.1121 102.094 64.612 101.844 64.612C101.094 63.762 100.194 63.512 99.294 62.4621C99.344 58.6623 99.394 55.4625 103.194 51.7627C104.044 51.0127 104.944 50.3628 106.094 50.3628C105.544 50.7127 105.044 51.2127 104.594 51.8127C103.444 53.5626 103.594 56.3624 105.244 56.8624Z" fill="#CEB79B"/>
<path opacity="0.4" d="M112.043 91.1105C107.743 93.9104 95.8941 96.1603 94.3442 97.3102C92.6943 94.9603 93.9942 91.1105 91.5943 89.3106C87.0946 85.9108 81.5449 82.561 78.895 77.2113C78.445 76.3113 77.3951 75.9614 77.5451 74.8114C77.5451 73.1615 78.645 72.1116 79.595 70.9116C80.245 69.3617 80.9449 67.5618 82.5948 66.8619C82.6448 66.3619 82.8448 65.8119 83.0948 65.3619C84.2947 63.512 86.8946 62.1621 88.9945 62.9621C87.4446 63.1121 80.5949 65.012 86.5446 66.7619C84.3447 66.3619 79.745 67.4118 82.9448 69.7117C82.9948 69.7617 81.1949 70.8616 81.0449 71.1616C72.6454 74.3114 88.4945 82.561 91.6443 85.3109C95.5941 92.4605 106.993 88.6607 109.193 86.6108C109.793 87.4607 111.493 90.2106 112.043 91.1105Z" fill="#CEB79B"/>
<path opacity="0.4" d="M102.444 65.4119C100.144 64.262 91.2446 55.4625 91.5946 62.5121C91.6945 63.462 89.6447 62.4621 87.5948 62.4121C87.6448 62.3621 87.7447 62.3121 87.7947 62.2621C86.5948 61.0122 71.2956 51.7127 77.6453 49.7128C74.5955 51.6127 81.2951 54.6125 82.745 52.9126C83.895 53.5126 85.0449 54.1125 86.1448 54.7625C83.145 57.9623 90.4446 61.6121 91.9945 58.0623C93.5444 58.9123 95.0944 59.9122 96.5943 60.7622C99.7941 62.6621 102.444 65.4119 102.444 65.4119Z" fill="#CEB79B"/>
<path d="M90.4947 62.4621C90.7947 62.6621 90.9447 62.9621 90.4447 62.8121C90.1447 62.8121 89.6447 62.8121 89.0947 62.8621C88.5947 62.8121 87.7447 62.7121 87.0447 62.6621C87.0947 62.6121 87.5947 62.3621 87.7947 62.1621C87.7947 62.2121 89.9447 62.1121 90.4947 62.4621Z" fill="#CEB79B"/>
<path d="M86.8447 66.8119C85.5947 66.3119 83.8447 67.1119 82.5947 66.8119C82.6447 66.6119 82.7447 66.1619 82.8447 65.9119C83.3947 65.8119 83.9447 65.7619 84.4947 65.7119C84.8947 66.0119 85.6447 66.4119 86.8447 66.8119Z" fill="#CEB79B"/>
<path d="M81.0451 71.1117C80.4951 70.9617 80.1451 70.9617 79.5451 71.0117C79.6451 70.8117 79.8951 70.1117 79.9951 69.9617C80.4951 69.8117 82.9951 69.6617 82.9951 69.6617C82.9951 69.7117 81.1451 71.0117 81.0451 71.1117Z" fill="#CEB79B"/>
<path d="M85.4448 69.0118C84.5948 70.2118 82.6948 68.7118 83.6448 67.5618C84.4448 66.9618 86.7948 67.7618 85.4448 69.0118Z" fill="#EDDAC5"/>
<path d="M81.1948 72.2116C81.8948 70.7616 83.3448 71.9616 82.5448 73.1116C81.5948 74.0616 80.2948 73.8116 81.1948 72.2116Z" fill="#EDDAC5"/>
<path d="M89.995 64.762C89.545 65.462 88.695 66.112 87.845 66.262C86.745 66.412 85.945 64.912 86.545 64.362C88.195 62.762 90.395 64.112 89.995 64.762Z" fill="#EDDAC5"/>
<path opacity="0.4" d="M90.8445 62.9121C88.9946 62.5621 87.7947 62.2121 87.7947 62.2121C87.2947 61.4621 75.2954 54.3125 76.0453 50.8627C76.1453 50.3127 76.7453 49.9628 77.6452 49.6628C72.0955 51.0127 90.3946 62.0121 91.1445 62.3621C91.7445 62.6121 91.4445 62.8121 90.8445 62.9121Z" fill="#CEB79B"/>
<path d="M79.1952 76.2113C79.1952 76.8613 79.0952 77.2113 79.0452 77.3613C78.8452 76.8613 77.9452 76.0613 77.7952 75.9113C77.8452 75.9113 79.1952 75.3613 79.1952 76.2113Z" fill="#CEB79B"/>
<path opacity="0.4" d="M111.843 91.0106C109.643 93.6604 96.094 96.0103 94.3441 97.2602C92.6942 94.9103 93.9441 91.1105 91.5942 89.2606C91.7942 89.1107 100.544 94.0604 110.493 88.6107C110.943 89.4106 111.443 90.3106 111.843 91.0106Z" fill="#CEB79B"/>
<path d="M101.944 65.0121C101.694 64.4621 99.144 62.4121 99.294 62.5621V62.3121C100.244 63.2621 101.694 64.0621 102.594 64.9621C102.894 65.4121 102.244 65.6121 101.944 65.0121Z" fill="#CEB79B"/>
<path opacity="0.4" d="M83.395 56.3625C82.945 57.0125 82.295 58.0625 82.295 58.2125C81.695 57.7625 81.095 57.3125 80.545 56.8125C80.545 56.8125 81.845 56.7625 82.295 55.9125C82.745 55.0125 83.845 55.7125 83.395 56.3625Z" fill="#CEB79B"/>
<path opacity="0.4" d="M107.194 82.8614C104.594 85.2614 98.5441 80.1114 102.094 79.6614C105.094 79.5614 105.244 75.6614 105.244 75.6614C105.244 75.6614 105.294 79.3614 107.194 82.8614Z" fill="#CEB79B"/>
<path d="M77.0453 50.7127C77.0953 51.5127 77.9953 52.3627 78.1953 52.5127C78.9453 53.1127 79.3453 52.0627 79.7953 51.5627C79.3453 52.7627 78.6453 53.2627 78.2953 52.9627C77.7453 52.5127 76.7953 51.2127 77.0453 50.7127Z" fill="#CEB79B"/>
<path d="M92.7947 82.261C92.6447 83.011 90.7447 86.811 89.4947 87.761C88.6947 87.161 87.8947 86.561 87.0947 85.961C89.1947 85.311 91.7447 84.211 92.7947 82.261Z" fill="#CEB79B"/>
<path d="M105.294 151.357C105.294 151.357 112.894 161.257 125.043 161.707C151.042 162.757 131.493 138.758 131.493 138.758L105.294 151.357Z" fill="#C4C7B4"/>
<path d="M91.5448 91.7105L91.2949 90.8605C91.2949 90.8605 93.4448 92.8604 98.3945 92.1104C103.544 91.3605 111.744 87.4107 111.744 87.4107L112.594 89.2106C112.594 89.2106 103.094 94.9603 96.8446 94.6103C92.2948 94.3603 91.5448 91.7105 91.5448 91.7105Z" fill="#676D54"/>
<path d="M133.193 132.208C133.343 145.158 127.943 160.107 119.493 163.307C91.5449 153.757 95.7946 114.709 91.4949 91.7605C96.4946 95.9103 107.144 90.0606 111.994 88.1607C117.893 100.66 133.493 117.159 133.193 132.208Z" fill="#9EA58E"/>
<path d="M126.243 111.459C119.143 113.609 104.944 105.76 101.044 92.4604C105.194 91.3105 109.444 89.1606 112.044 88.1607C115.243 95.0103 121.393 103.06 126.243 111.459Z" fill="#B1B7A5"/>
<path d="M119.493 163.307C95.9946 155.257 95.2446 126.409 93.0447 103.81C103.094 123.809 119.843 123.759 132.543 126.509C135.192 139.658 129.243 159.707 119.493 163.307Z" fill="#949984"/>
<path opacity="0.14" d="M127.543 155.607C125.393 159.307 122.643 162.107 119.543 163.307C104.094 158.007 98.4444 143.708 95.7946 128.109C106.944 148.757 119.793 154.257 127.543 155.607Z" fill="#474C2F"/>
<path opacity="0.14" d="M97.0447 125.559C98.2446 135.208 102.094 147.407 107.944 156.157C92.7449 141.008 95.0948 110.809 91.495 91.7104C92.245 92.3604 93.1449 92.7604 94.1448 92.9604C94.5948 98.9101 95.9947 117.459 97.0447 125.559Z" fill="#474C2F"/>
<path opacity="0.14" d="M110.294 95.8604C110.944 96.0604 111.594 95.4604 111.744 94.7604C111.694 94.3604 111.244 94.1604 111.094 93.8604C110.944 93.6104 110.794 93.0604 110.594 92.8604C110.044 92.2104 109.394 93.4604 109.244 94.2604C109.094 95.1104 109.744 95.7104 110.294 95.8604Z" fill="#474C2F"/>
<path opacity="0.14" d="M128.543 126.509C126.493 128.459 128.843 131.509 130.443 129.609C130.993 128.909 128.943 126.059 128.543 126.509Z" fill="#474C2F"/>
<path opacity="0.14" d="M126.793 119.709C126.443 119.009 125.243 117.409 124.993 117.609C122.793 118.859 126.043 122.259 126.793 119.709Z" fill="#474C2F"/>
<path opacity="0.14" d="M122.143 111.559C122.143 111.509 119.743 110.159 119.593 110.309C119.043 111.159 120.393 113.959 121.643 112.709C121.893 112.509 122.193 111.809 122.143 111.559Z" fill="#474C2F"/>
<path d="M109.944 92.8104C108.294 94.4604 110.144 95.9104 111.144 95.5104C112.594 94.9104 111.294 91.4104 109.944 92.8104Z" fill="#676D54"/>
<path opacity="0.14" d="M116.394 104.11C116.394 104.11 116.344 103.91 116.394 103.91C116.544 103.51 115.944 102.96 115.794 102.81C115.444 102.46 114.694 101.61 114.294 102.31C113.794 103.16 114.294 104.41 114.844 104.86C115.344 105.31 116.144 104.71 116.394 104.11Z" fill="#474C2F"/>
<path d="M109.944 92.8104C109.544 93.2105 109.344 93.6104 109.294 93.9604C109.394 93.7604 109.544 93.5604 109.744 93.3604C110.744 92.3604 111.694 93.9604 111.594 95.1104C112.244 94.0104 111.094 91.6104 109.944 92.8104Z" fill="#474C2F"/>
<path d="M114.693 101.91C113.893 102.21 114.394 103.96 114.844 104.36C115.044 104.56 115.344 104.66 115.594 104.61C117.244 104.61 116.593 101.16 114.693 101.91Z" fill="#676D54"/>
<path d="M116.444 104.01C116.794 103.06 116.094 101.31 114.694 101.86C114.344 102.01 114.244 102.36 114.244 102.76C114.294 102.61 114.394 102.51 114.594 102.46C115.744 102.01 116.444 103.11 116.444 104.01Z" fill="#474C2F"/>
<path d="M121.993 112.16C122.543 110.91 121.493 109.659 120.543 109.609C120.093 109.609 119.793 109.959 119.793 110.359C119.693 111.359 120.543 112.56 121.343 112.56C121.543 112.61 121.893 112.41 121.993 112.16Z" fill="#676D54"/>
<path d="M120.543 109.609C120.093 109.609 119.793 109.959 119.793 110.359C119.793 110.409 119.793 110.46 119.793 110.51C119.943 110.31 120.143 110.16 120.443 110.16C121.293 110.16 122.143 111.11 122.043 112.16C122.543 110.91 121.493 109.609 120.543 109.609Z" fill="#474C2F"/>
<path d="M126.893 119.409C127.243 117.909 125.393 116.359 124.593 118.159C124.243 119.609 126.143 121.459 126.893 119.409Z" fill="#676D54"/>
<path d="M126.893 119.409C127.293 117.859 125.293 116.309 124.593 118.259C125.693 117.009 126.993 118.709 126.693 119.909C126.793 119.759 126.893 119.609 126.893 119.409Z" fill="#474C2F"/>
<path d="M130.693 129.009C130.943 127.459 130.193 126.409 129.443 126.159C128.393 125.809 127.093 128.109 129.243 129.559C129.843 129.959 130.543 129.959 130.693 129.009Z" fill="#676D54"/>
<path d="M130.693 129.009C131.143 126.859 129.093 124.909 128.193 127.109C129.443 125.659 130.893 127.809 130.443 129.659C130.543 129.459 130.643 129.259 130.693 129.009Z" fill="#474C2F"/>
<path opacity="0.14" d="M133.192 131.958C131.992 128.808 129.742 125.209 128.443 122.559C126.993 119.409 128.043 116.659 126.093 116.059C121.843 113.709 123.643 109.16 120.493 107.01C117.443 104.91 117.443 103.76 116.993 100.76C116.593 98.1102 114.143 97.5102 112.793 95.2103C110.744 92.4605 114.593 90.6106 110.094 88.9106C110.794 88.6107 111.443 88.3107 111.993 88.1107C117.843 100.61 133.292 116.959 133.192 131.958Z" fill="#474C2F"/>
</svg>
