<svg width="40" height="24" viewBox="0 0 40 24" fill="none" xmlns="http://www.w3.org/2000/svg">
<path d="M19.3333 5.20239C21.8462 5.20243 24.1807 5.93593 26.1175 7.19165C26.248 9.43569 25.7425 11.7547 24.5335 13.8733L23.9612 13.0715C23.658 12.6473 23.1151 12.4671 22.6184 12.6262C22.122 12.7854 21.7847 13.2474 21.7845 13.7688V17.1829C21.0311 17.8193 20.2121 18.3586 19.346 18.7903L19.3333 18.8118L19.3206 18.7893C17.2562 17.7604 15.4505 16.1332 14.1966 13.9885C12.9401 11.8394 12.4153 9.47596 12.5481 7.19165C14.485 5.93585 16.8202 5.20239 19.3333 5.20239ZM22.8323 13.2922C23.039 13.2262 23.2656 13.3023 23.3919 13.4788L24.136 14.5217C23.9416 14.8189 23.7364 15.1051 23.5208 15.3801L23.4846 15.3293V15.427C23.1712 15.823 22.8375 16.1958 22.4846 16.5442V13.7688C22.4849 13.5517 22.6256 13.3586 22.8323 13.2922ZM21.4749 10.1379C21.2668 9.9085 20.9288 9.90829 20.72 10.137L19.1507 11.8557L18.177 10.7893C17.9683 10.5607 17.6303 10.5611 17.4221 10.7903C17.214 11.0197 17.2143 11.3917 17.4231 11.6204L18.4212 12.7131C18.9889 13.3679 19.3334 13.3678 19.8792 12.7131L21.4729 10.968C21.6817 10.7394 21.683 10.3674 21.4749 10.1379Z" fill="white"/>
<path fill-rule="evenodd" clip-rule="evenodd" d="M22.8328 13.2932C23.0398 13.2268 23.2659 13.3019 23.3923 13.4788L24.8791 15.561L26.3658 13.4788C26.4922 13.3019 26.7183 13.2268 26.9253 13.2932C27.1323 13.3595 27.2728 13.552 27.2728 13.7693V17.558C27.2728 17.8342 27.0489 18.058 26.7728 18.058C26.4966 18.058 26.2728 17.8342 26.2728 17.558V15.33L25.286 16.712C25.1921 16.8434 25.0406 16.9214 24.8791 16.9214C24.7176 16.9214 24.566 16.8434 24.4721 16.712L23.4854 15.33V17.558C23.4854 17.8342 23.2615 18.058 22.9854 18.058C22.7092 18.058 22.4854 17.8342 22.4854 17.558V13.7693C22.4854 13.552 22.6258 13.3595 22.8328 13.2932Z" fill="white"/>
</svg>
