<svg width="40" height="24" viewBox="0 0 40 24" fill="none" xmlns="http://www.w3.org/2000/svg">
<path d="M19.3328 5.20239C21.8459 5.20239 24.1811 5.93585 26.118 7.19165C26.2485 9.43533 25.7426 11.754 24.534 13.8723L23.9617 13.0715C23.6586 12.6472 23.1156 12.4672 22.619 12.6262C22.1224 12.7854 21.7852 13.2474 21.785 13.7688V17.1829C21.0315 17.8194 20.2118 18.3585 19.3455 18.7903L19.3328 18.8118L19.3201 18.7893C17.2558 17.7604 15.45 16.1332 14.1961 13.9885C12.9396 11.8394 12.4158 9.47596 12.5486 7.19165C14.4854 5.93592 16.8199 5.20244 19.3328 5.20239ZM22.8328 13.2922C23.0396 13.2263 23.2662 13.3022 23.3924 13.4788L24.1365 14.5217C23.9421 14.8189 23.7369 15.1051 23.5213 15.3801L23.4852 15.3293V15.427C23.1718 15.823 22.838 16.1958 22.4852 16.5442V13.7688C22.4854 13.5516 22.626 13.3585 22.8328 13.2922ZM21.4744 10.1379C21.2663 9.90868 20.9283 9.90835 20.7195 10.137L19.1502 11.8557L18.1766 10.7893C17.9678 10.5607 17.6298 10.5609 17.4217 10.7903C17.2136 11.0197 17.2148 11.3917 17.4236 11.6204L18.4217 12.7131C18.9894 13.3678 19.3338 13.368 19.8797 12.7131L21.4734 10.968C21.6823 10.7393 21.6825 10.3674 21.4744 10.1379Z" fill="black"/>
<path fill-rule="evenodd" clip-rule="evenodd" d="M22.8328 13.2932C23.0398 13.2268 23.2659 13.3019 23.3923 13.4788L24.8791 15.561L26.3658 13.4788C26.4922 13.3019 26.7183 13.2268 26.9253 13.2932C27.1323 13.3595 27.2728 13.552 27.2728 13.7693V17.558C27.2728 17.8342 27.0489 18.058 26.7728 18.058C26.4966 18.058 26.2728 17.8342 26.2728 17.558V15.33L25.286 16.712C25.1921 16.8434 25.0406 16.9214 24.8791 16.9214C24.7176 16.9214 24.566 16.8434 24.4721 16.712L23.4854 15.33V17.558C23.4854 17.8342 23.2615 18.058 22.9854 18.058C22.7092 18.058 22.4854 17.8342 22.4854 17.558V13.7693C22.4854 13.552 22.6258 13.3595 22.8328 13.2932Z" fill="black"/>
</svg>
