<svg width="24" height="24" viewBox="0 0 24 24" fill="none" xmlns="http://www.w3.org/2000/svg">
<path fill-rule="evenodd" clip-rule="evenodd" d="M15.4306 12.2858C15.7411 12.1863 16.0803 12.2988 16.2698 12.5642L18.5 15.6875L20.7302 12.5642C20.9196 12.2988 21.2588 12.1863 21.5694 12.2858C21.8799 12.3852 22.0905 12.6739 22.0905 13V18.6831C22.0905 19.0973 21.7547 19.4331 21.3405 19.4331C20.9263 19.4331 20.5905 19.0973 20.5905 18.6831V15.341L19.1104 17.414C18.9696 17.6111 18.7422 17.7281 18.5 17.7281C18.2577 17.7281 18.0304 17.6111 17.8896 17.414L16.4094 15.341V18.6831C16.4094 19.0973 16.0736 19.4331 15.6594 19.4331C15.2452 19.4331 14.9094 19.0973 14.9094 18.6831V13C14.9094 12.6739 15.1201 12.3852 15.4306 12.2858Z" fill="black"/>
<path fill-rule="evenodd" clip-rule="evenodd" d="M9.29976 8.26358C9.68636 8.26358 9.99976 8.53221 9.99976 8.86358L9.99976 13.6636C9.99976 13.995 9.68636 14.2636 9.29976 14.2636C8.91316 14.2636 8.59976 13.995 8.59976 13.6636L8.59976 8.86358C8.59976 8.53221 8.91316 8.26358 9.29976 8.26358Z" fill="black"/>
<path fill-rule="evenodd" clip-rule="evenodd" d="M12.6999 8.26358C13.0865 8.26358 13.3999 8.53221 13.3999 8.86358L13.3999 13.6636C13.3999 13.995 13.0865 14.2636 12.6999 14.2636C12.3133 14.2636 11.9999 13.995 11.9999 13.6636L11.9999 8.86358C11.9999 8.53221 12.3133 8.26358 12.6999 8.26358Z" fill="black"/>
<path d="M1.61719 4.55466C7.36142 1.15043 14.7357 1.13052 20.3887 4.55856C20.6126 4.69438 20.7497 4.93731 20.75 5.19919C20.75 6.49805 20.7569 8.70376 20.0566 11.2236C19.7643 11.1186 19.0689 10.9928 18.5606 11.0019C19.1809 8.87071 19.2423 6.95602 19.2481 5.62985C14.249 2.77959 7.85071 2.78795 2.75098 5.63474C2.75793 7.19044 2.84047 9.55488 3.81251 12.1269C4.84227 14.8511 6.88694 17.8476 11 20.3281C11.9053 19.7822 12.7097 19.2106 13.4258 18.623C13.6038 19.0333 14.0023 19.7449 14.2149 19.914C13.3784 20.586 12.4368 21.2351 11.375 21.8486C11.1429 21.9827 10.8571 21.9826 10.625 21.8486C5.95251 19.1487 3.58896 15.7783 2.40919 12.6572C1.2369 9.55532 1.25001 6.7393 1.25001 5.19919C1.25028 4.93478 1.38982 4.68964 1.61719 4.55466Z" fill="black"/>
</svg>
