<svg width="1024" height="1024" viewBox="0 0 1024 1024" fill="none" xmlns="http://www.w3.org/2000/svg">
<path d="M512.499 85.0002C668.468 85.0002 813.367 130.959 933.576 209.67C941.822 352.849 909.281 500.975 831.297 635.683C819.37 656.284 806.638 676.123 793.169 695.184L761.081 650.243C746.056 629.202 719.158 620.279 694.536 628.167C669.914 636.056 653.21 658.948 653.21 684.802V845.646C609.65 881.349 562.666 911.776 513.295 936.626L512.499 938.001L511.704 936.625C383.58 872.136 271.524 770.112 193.701 635.682C115.717 500.974 83.1766 352.849 91.4226 209.67C211.632 130.959 356.53 85.0003 512.499 85.0002Z" fill="url(#paint0_linear_18673_23)"/>
<defs>
<linearGradient id="paint0_linear_18673_23" x1="512.499" y1="85.0002" x2="512.499" y2="938.001" gradientUnits="userSpaceOnUse">
<stop stop-color="#67B279"/>
<stop offset="1" stop-color="#589968"/>
</linearGradient>
</defs>
</svg>
