<svg width="1024" height="1024" viewBox="0 0 1024 1024" fill="none" xmlns="http://www.w3.org/2000/svg">
<path fill-rule="evenodd" clip-rule="evenodd" d="M705.539 662.509C715.231 659.404 725.818 662.917 731.733 671.199L801.344 768.688L870.955 671.199C876.869 662.917 887.457 659.404 897.149 662.509C906.841 665.614 913.416 674.625 913.416 684.803V862.189C913.416 875.118 902.935 885.599 890.006 885.599C877.077 885.599 866.596 875.118 866.596 862.189V757.873L820.395 822.577C816.001 828.73 808.905 832.383 801.344 832.383C793.782 832.383 786.686 828.73 782.292 822.577L736.091 757.873V862.189C736.091 875.118 725.61 885.599 712.681 885.599C699.752 885.599 689.271 875.118 689.271 862.189V684.803C689.271 674.625 695.847 665.614 705.539 662.509Z" fill="#3D3D3D"/>
</svg>
