<svg width="752" height="319" viewBox="0 0 752 319" fill="none" xmlns="http://www.w3.org/2000/svg">
<path d="M195 245.868L195.093 235.628V234.977L322.618 222.131L377.817 226.506L324.573 218.501H324.48C324.294 218.501 324.108 218.408 324.015 218.408C323.642 218.222 323.27 218.036 322.991 217.663C323.177 216.919 323.363 215.615 323.456 215.522L328.483 187.69L342.538 122.438L344.028 115.271L344.586 112.85L344.959 111.082L345.052 110.803V110.709V110.616L346.541 103.635L347.379 99.5393L348.961 92.1857L351.102 82.2257L351.568 80.0847L353.15 72.9173L353.522 71.0556L357.153 70.7763L363.575 70.3109H363.669L365.158 70.2178H365.251L368.695 69.9386L369.533 69.8455L370.371 69.7524L371.581 69.6593L373.349 69.5662H373.629L374.839 69.4732H374.932L375.676 69.38H375.769L377.166 69.287L378.469 69.1939L383.309 68.8216L384.24 68.7285H384.706L385.543 68.6354H385.73L516.978 59.1408L543.414 57.186C543.414 57.186 543.6 57.186 544.066 57.186C546.672 57.3722 556.167 58.4892 555.701 63.3296C554.957 71.9864 548.627 112.013 542.111 152.411C535.967 190.483 529.731 228.74 527.683 241.214C527.311 243.634 526.007 247.171 522.098 248.567C519.305 249.498 496.034 254.431 467.923 260.761C425.29 270.442 373.07 282.264 373.07 282.264C371.208 282.636 369.347 282.636 367.485 282.357L247.965 258.248L196.676 248.009C195.652 247.822 195 246.892 195 245.868Z" fill="#899695"/>
<path d="M458.428 249.405L468.295 260.761C425.663 270.442 373.442 282.264 373.442 282.264C371.581 282.636 369.719 282.636 367.857 282.357L247.965 258.248L236.702 244.006L458.428 249.405Z" fill="#93A3A2"/>
<path d="M543.693 57.093C544.904 56.9068 556.539 57.9307 555.981 63.2365C555.236 71.8934 548.906 111.92 542.39 152.318L536.433 117.97L543.693 57.093Z" fill="#93A3A2"/>
<path d="M322.898 217.57C323.084 216.826 323.27 215.522 323.363 215.429L328.39 187.597L340.212 122.066L342.073 112.106L342.632 109.313V109.22V109.127L343.283 105.776L344.68 98.6087L346.355 89.8587L348.124 80.6434L348.217 80.2711L349.799 71.9866C349.892 71.335 350.451 70.8695 351.102 70.7765L356.967 70.311L363.296 69.8456H363.39L364.693 69.7525H364.786L368.975 69.4733L369.719 69.3802H370.371L371.953 69.2871L373.443 69.1941H373.536L374.28 69.1009H374.373L375.118 69.0079L375.863 68.9148L377.259 68.8217L378.562 68.7286L383.216 68.3563L384.147 68.2632H384.24L385.171 68.1701H385.357L517.165 58.8617L543.601 57H543.694C543.88 57 544.066 57 544.345 57C545.648 57.2793 546.579 58.5825 546.3 59.8856L536.433 117.877L516.606 234.791C516.42 235.908 515.582 236.653 514.558 236.839C514.372 236.932 514.093 236.932 513.814 236.839L324.387 218.222H324.294C323.084 218.036 322.712 219.153 322.619 217.943C322.805 218.036 322.805 217.85 322.898 217.57Z" fill="#CBD3D2"/>
<path d="M196.024 234.046C194.814 234.232 194.721 236.28 196.024 236.56L367.95 268.208C369.812 268.581 371.674 268.487 373.535 268.115L514.837 237.025L322.618 218.129L196.024 234.046Z" fill="#B3BCBB"/>
<path d="M247.965 233.395C247.872 233.395 247.872 233.488 247.965 233.488L384.519 255.083C385.264 255.176 386.009 255.176 386.66 255.083L471.088 240.376L322.991 224.924L247.965 233.395Z" fill="#899695"/>
<path d="M471.088 236.932L247.965 231.533C247.686 231.533 247.407 231.812 247.407 232.091L247.5 234.232C247.5 234.512 247.686 234.791 248.058 234.884L384.799 254.897C385.543 254.99 386.288 254.99 386.94 254.897L471.181 240.283L471.088 236.932Z" fill="#899695"/>
<path d="M247.779 231.626L384.706 251.639C385.45 251.732 386.195 251.732 386.847 251.639L471.088 237.025L322.805 222.224L247.779 231.626C247.779 231.533 247.779 231.533 247.779 231.626Z" fill="#93A3A2"/>
<path d="M332.299 206.959C332.02 208.448 333.044 209.844 334.533 209.937L505.343 226.879C506.646 226.972 507.856 226.134 508.135 224.738L535.316 69.5663C535.595 67.9839 534.292 66.4946 532.616 66.5876L358.828 77.2923C357.618 77.3854 356.687 78.2232 356.501 79.3402L332.299 206.959Z" fill="#E3F7FF"/>
<path d="M361.621 106.893L356.687 134.632C356.501 135.842 357.432 137.052 358.642 137.052L508.787 139.286C509.811 139.286 510.649 138.542 510.835 137.611L516.699 104.566C516.885 103.263 515.954 102.146 514.651 102.146L363.575 105.125C362.645 105.218 361.807 105.962 361.621 106.893Z" fill="#E84335"/>
<path d="M355.198 143.196L354.546 146.733C354.36 147.943 355.291 149.153 356.501 149.153L506.18 153.528C507.204 153.528 508.042 152.877 508.228 151.853L509.066 147.292C509.252 146.082 508.321 144.872 507.111 144.872L357.246 141.521C356.222 141.521 355.384 142.172 355.198 143.196Z" fill="#C9E7EE"/>
<path d="M363.762 95.1645L363.203 98.4225C363.017 99.7256 363.948 100.843 365.251 100.843L516.513 96.4677C517.444 96.4677 518.281 95.723 518.468 94.7922L519.491 89.3002C519.678 87.997 518.654 86.787 517.351 86.88L365.623 93.5821C364.692 93.489 363.855 94.2337 363.762 95.1645Z" fill="#C9E7EE"/>
<path d="M352.964 155.949L352.405 159.3C352.219 160.51 353.15 161.627 354.36 161.72L503.946 166.839C504.97 166.839 505.901 166.188 505.994 165.164L506.646 161.72C506.832 160.51 505.901 159.393 504.691 159.3L355.012 154.366C353.988 154.18 353.15 154.925 352.964 155.949Z" fill="#C9E7EE"/>
<path d="M350.73 168.236L350.171 171.494C349.985 172.704 350.823 173.821 352.126 173.914L501.34 181.454C502.364 181.547 503.295 180.802 503.481 179.778L504.226 175.589C504.412 174.379 503.574 173.262 502.271 173.169L352.964 166.56C351.847 166.56 350.916 167.212 350.73 168.236Z" fill="#C9E7EE"/>
<path d="M348.682 180.057L348.03 183.595C347.844 184.805 348.682 185.922 349.892 186.015L498.547 196.533C499.571 196.626 500.502 195.882 500.688 194.858L501.619 189.738C501.805 188.528 500.968 187.411 499.758 187.318L350.823 178.382C349.799 178.289 348.868 179.033 348.682 180.057Z" fill="#C9E7EE"/>
<path d="M401.554 99.6325C393.642 81.6672 374.466 74.0343 354.733 79.0609C349.613 80.3641 344.493 82.505 339.467 85.5768C315.172 100.377 303.536 130.723 313.589 153.342C322.246 172.983 344.4 180.243 365.996 172.145C368.602 171.214 371.209 170.004 373.722 168.515C374.373 168.142 375.025 167.77 375.677 167.398C378.376 165.722 380.889 163.954 383.216 161.999C402.206 145.988 410.397 119.739 401.554 99.6325ZM355.757 88.3693C371.395 84.6459 386.567 90.7895 392.804 104.938C400.809 122.997 391.501 147.385 372.046 159.299C369.626 160.789 367.113 161.999 364.693 162.93C347.286 169.725 329.228 163.861 322.246 148.036C314.241 129.978 323.549 105.59 343.004 93.6751C347.193 91.1619 351.475 89.3932 355.757 88.3693Z" fill="#6B7574"/>
<path d="M395.038 95.8161C387.126 77.8508 367.951 70.2179 348.217 75.2445C343.097 76.5477 337.977 78.6886 332.951 81.7604C308.656 96.5608 297.02 126.906 307.074 149.526C315.73 169.166 337.884 176.427 359.48 168.329C362.086 167.398 364.693 166.188 367.206 164.698C367.858 164.326 368.509 163.954 369.161 163.581C371.86 161.906 374.373 160.137 376.701 158.182C395.69 142.172 403.881 115.922 395.038 95.8161ZM349.241 84.5529C364.879 80.8295 380.052 86.9731 386.288 101.122C394.293 119.18 384.985 143.568 365.53 155.483C363.11 156.972 360.597 158.182 358.177 159.113C340.77 165.908 322.712 160.044 315.73 144.22C307.725 126.162 317.034 101.773 336.488 89.8587C340.677 87.3454 344.959 85.5768 349.241 84.5529Z" fill="#879493"/>
<path d="M329.228 128.861C333.416 133.422 336.395 120.204 346.541 110.803C356.687 101.494 370.092 99.5396 365.903 94.9784C361.714 90.4173 349.054 91.9067 339.001 101.308C328.762 110.71 324.946 124.3 329.228 128.861Z" fill="white"/>
<path d="M400.251 165.629C400.251 165.629 389.267 154.831 387.777 153.156C385.45 151.015 378.283 156.507 380.703 159.672C383.402 162.93 392.059 173.169 392.059 173.169L400.251 165.629Z" fill="#879493"/>
<path d="M455.357 229.857C451.727 234.325 447.91 233.767 443.442 237.49C431.993 223.341 392.06 173.169 392.06 173.169L397.645 168.049L400.251 165.629C400.81 166.188 443.628 206.865 460.104 222.876C462.059 224.831 457.777 226.879 455.357 229.857Z" fill="#545454"/>
<path d="M455.636 232.557C452.006 235.908 445.024 239.259 443.442 237.49C441.859 235.815 446.514 228.461 451.54 225.11C433.203 205.749 397.644 167.956 397.644 167.956L400.251 165.536C400.809 166.095 443.814 206.959 460.197 222.969C462.245 225.017 459.639 228.834 455.636 232.557Z" fill="#424242"/>
<path d="M383.961 153.249L397.644 168.049L400.251 165.629C400.251 165.629 388.894 154.273 387.219 152.691C386.288 151.76 383.961 153.249 383.961 153.249Z" fill="#6B7574"/>
</svg>
