<svg width="752" height="319" viewBox="0 0 752 319" fill="none" xmlns="http://www.w3.org/2000/svg">
<path d="M196 249.834L196.093 239.6V238.949L323.543 226.111L378.709 230.484L325.497 222.483H325.404C325.218 222.483 325.032 222.39 324.939 222.39C324.567 222.204 324.194 222.018 323.915 221.646C324.101 220.902 324.287 219.599 324.38 219.506L329.404 191.69L343.451 126.477L344.94 119.314L345.498 116.895L345.87 115.127L345.963 114.848V114.755V114.662L347.452 107.685L348.289 103.592L349.87 96.2425L352.01 86.2884L352.475 84.1487L354.057 76.9855L354.429 75.1249L358.057 74.8458L364.476 74.3806H364.569L366.058 74.2876H366.151L369.593 74.0085L370.43 73.9155L371.267 73.8225L372.477 73.7295L374.244 73.6364H374.523L375.733 73.5434H375.826L376.57 73.4503H376.663L378.058 73.3573L379.361 73.2643L384.198 72.8922L385.129 72.7992H385.594L386.431 72.7061H386.617L517.788 63.2171L544.208 61.2635C544.208 61.2635 544.394 61.2635 544.86 61.2635C547.464 61.4496 556.953 62.5659 556.488 67.4035C555.744 76.0552 549.418 116.058 542.906 156.432C536.766 194.481 530.533 232.716 528.486 245.182C528.114 247.601 526.812 251.136 522.905 252.531C520.114 253.462 496.857 258.392 468.762 264.718C426.62 274.393 374.43 286.208 374.43 286.208C372.57 286.58 370.709 286.58 368.848 286.301L248.934 262.3L197.675 252.066C196.744 251.787 196 250.857 196 249.834Z" fill="#899695"/>
<path d="M459.366 253.369L469.227 264.718C426.619 274.393 374.43 286.208 374.43 286.208C372.57 286.58 370.709 286.58 368.848 286.301L248.934 262.3L237.677 248.066L459.366 253.369Z" fill="#93A3A2"/>
<path d="M544.58 61.1705C545.79 60.9845 557.419 62.0078 556.86 67.3104C556.116 75.9622 549.79 115.965 543.278 156.339L537.324 122.012L544.58 61.1705Z" fill="#93A3A2"/>
<path d="M323.822 221.553C324.008 220.809 324.194 219.506 324.287 219.413L329.311 191.597L341.126 126.105L342.986 116.151L343.544 113.36V113.267V113.174L344.196 109.825L345.591 102.662L347.266 93.9168L349.033 84.7069L349.126 84.3348L350.708 76.0552C350.801 75.404 351.359 74.9388 352.01 74.8458L357.871 74.4737L364.197 74.0085H364.29L365.592 73.9155H365.685L369.872 73.6364L370.616 73.5434H371.267L372.849 73.4504L374.337 73.3574H374.43L375.174 73.2643H375.267L376.012 73.1713L376.756 73.0783L378.151 72.9852L379.454 72.8922L384.105 72.5201L385.035 72.4271H385.129L386.059 72.334H386.245L517.974 63.0311L544.394 61.1705H544.487C544.674 61.1705 544.86 61.1705 545.139 61.1705C546.441 61.4496 547.371 62.752 547.092 64.0544L537.231 122.012L517.416 238.856C517.23 239.973 516.393 240.717 515.369 240.903C515.183 240.996 514.904 240.996 514.625 240.903L325.311 222.297H325.218C324.008 222.111 323.636 223.227 323.543 222.018C323.729 222.111 323.729 221.832 323.822 221.553Z" fill="#CBD3D2"/>
<path d="M197.117 238.019C195.907 238.205 195.814 240.252 197.117 240.531L368.941 272.161C370.802 272.533 372.663 272.44 374.523 272.068L515.648 240.996L323.543 222.111L197.117 238.019Z" fill="#B3BCBB"/>
<path d="M249.027 237.368C248.934 237.368 248.934 237.461 249.027 237.461L385.501 259.044C386.245 259.137 386.989 259.137 387.64 259.044L472.018 244.345L324.008 228.995L249.027 237.368Z" fill="#899695"/>
<path d="M472.018 240.903L249.027 235.507C248.748 235.507 248.469 235.786 248.469 236.065L248.562 238.205C248.562 238.484 248.748 238.763 249.12 238.856L385.78 258.858C386.524 258.951 387.268 258.951 387.919 258.858L472.111 244.252L472.018 240.903Z" fill="#899695"/>
<path d="M248.841 235.6L385.687 255.601C386.431 255.694 387.175 255.694 387.827 255.601L472.018 240.996L323.823 226.204L248.841 235.6C248.748 235.6 248.748 235.507 248.841 235.6Z" fill="#93A3A2"/>
<path d="M333.218 210.947C332.939 212.436 333.963 213.831 335.451 213.924L506.16 230.856C507.462 230.949 508.671 230.111 508.95 228.716L536.115 73.7294C536.394 72.1479 535.092 70.6594 533.417 70.7524L359.732 81.5438C358.522 81.6369 357.592 82.4741 357.406 83.5905L333.218 210.947Z" fill="#E3F7FF"/>
<path d="M362.615 110.941L357.685 138.664C357.499 139.873 358.429 141.083 359.638 141.083L509.695 143.315C510.718 143.315 511.555 142.571 511.741 141.641L517.602 108.615C517.788 107.313 516.858 106.197 515.555 106.197L364.569 109.174C363.546 109.267 362.708 110.011 362.615 110.941Z" fill="#C9E7EE"/>
<path d="M356.196 147.316L355.545 150.851C355.359 152.06 356.289 153.269 357.499 153.269L507.09 157.642C508.113 157.642 508.95 156.991 509.136 155.967L509.974 151.409C510.16 150.199 509.229 148.99 508.02 148.99L358.243 145.641C357.22 145.548 356.289 146.292 356.196 147.316Z" fill="#C9E7EE"/>
<path d="M364.662 99.2194L364.104 102.475C363.918 103.778 364.848 104.894 366.15 104.894L517.323 100.522C518.253 100.522 519.09 99.7776 519.276 98.8473L520.3 93.3586C520.486 92.0562 519.463 90.8468 518.16 90.9399L366.523 97.6379C365.592 97.6379 364.848 98.2892 364.662 99.2194Z" fill="#C9E7EE"/>
<path d="M353.87 159.968L353.312 163.317C353.126 164.526 354.057 165.642 355.266 165.735L504.764 170.852C505.787 170.852 506.717 170.201 506.81 169.177L507.462 165.735C507.648 164.526 506.717 163.41 505.508 163.317L355.917 158.386C354.987 158.293 354.057 159.037 353.87 159.968Z" fill="#C9E7EE"/>
<path d="M351.731 172.34L351.173 175.596C350.987 176.806 351.824 177.922 353.127 178.015L502.252 185.551C503.276 185.644 504.206 184.899 504.392 183.876L505.136 179.69C505.322 178.48 504.485 177.364 503.183 177.271L353.778 170.573C352.755 170.573 351.917 171.317 351.731 172.34Z" fill="#C9E7EE"/>
<path d="M349.591 184.062L348.94 187.597C348.754 188.807 349.591 189.923 350.801 190.016L499.368 200.528C500.392 200.621 501.322 199.877 501.508 198.854L502.438 193.737C502.624 192.528 501.787 191.411 500.578 191.318L351.731 182.388C350.708 182.388 349.777 183.039 349.591 184.062Z" fill="#C9E7EE"/>
<path d="M304.007 193.272C309.775 198.295 314.519 200.156 323.543 200.9L394.152 206.668C402.06 207.319 409.13 201.831 410.432 194.016L432.759 72.706C434.434 62.845 427.829 57.3562 425.503 56.0538C422.061 54.1932 410.06 50.286 410.06 50.286C403.176 50.8442 304.007 193.272 304.007 193.272Z" fill="#CC7A1F"/>
<path d="M334.707 54.6584C325.962 54.9375 318.613 60.1471 316.938 68.7989L297.03 179.038C295.448 187.597 306.426 196.714 310.798 197.086L381.407 202.854C389.315 203.505 396.385 198.016 397.687 190.202L420.759 67.9616C422.433 58.1005 414.154 48.7976 404.199 49.5418L334.707 54.6584Z" fill="#E89428"/>
<path d="M392.478 81.7299L392.664 81.2648" stroke="white" stroke-width="3.96974" stroke-linecap="round" stroke-linejoin="round"/>
<path d="M382.524 79.9623L382.71 79.4972" stroke="white" stroke-width="3.96974" stroke-linecap="round" stroke-linejoin="round"/>
<path d="M367.732 113.918L367.918 113.453" stroke="white" stroke-width="3.96974" stroke-linecap="round" stroke-linejoin="round"/>
<path d="M359.173 84.2416L359.359 83.7765" stroke="white" stroke-width="3.96974" stroke-linecap="round" stroke-linejoin="round"/>
<path d="M359.825 101.266L360.011 100.801" stroke="white" stroke-width="3.96974" stroke-linecap="round" stroke-linejoin="round"/>
<path d="M348.01 116.058L348.196 115.593" stroke="white" stroke-width="3.96974" stroke-linecap="round" stroke-linejoin="round"/>
<path d="M344.847 98.6612L345.033 98.196" stroke="white" stroke-width="3.96974" stroke-linecap="round" stroke-linejoin="round"/>
<path d="M387.919 92.1491L388.106 91.684" stroke="white" stroke-width="3.96974" stroke-linecap="round" stroke-linejoin="round"/>
<path d="M386.71 104.336C380.384 118.756 364.197 128.431 350.428 126.012C336.66 123.593 330.52 109.918 336.846 95.4982C343.172 81.0787 359.359 71.4037 373.128 73.8224C366.336 89.4513 373.221 102.661 386.71 104.336Z" stroke="white" stroke-width="3.96974" stroke-linecap="round" stroke-linejoin="round"/>
<path d="M313.589 161.363L388.012 163.875" stroke="#F3D5B5" stroke-width="5.17028" stroke-miterlimit="10" stroke-linecap="round"/>
<path d="M329.869 146.757L373.314 148.06" stroke="#F3D5B5" stroke-width="5.17028" stroke-miterlimit="10" stroke-linecap="round"/>
<path d="M310.798 176.806L385.035 180.992" stroke="#F3D5B5" stroke-width="5.17028" stroke-miterlimit="10" stroke-linecap="round"/>
<path d="M401.595 59.1238L409.781 68.5197" stroke="#F3D5B5" stroke-width="1.17487" stroke-miterlimit="10"/>
<path d="M399.827 69.264L411.642 58.3796" stroke="#F3D5B5" stroke-width="1.17487" stroke-miterlimit="10"/>
</svg>
