<svg width="752" height="319" viewBox="0 0 752 319" fill="none" xmlns="http://www.w3.org/2000/svg">
<path d="M195 252.466L195.093 242.227V241.575L322.618 228.73L377.817 233.105L324.573 225.099H324.48C324.294 225.099 324.108 225.006 324.015 225.006C323.642 224.82 323.27 224.634 322.991 224.262C323.177 223.517 323.363 222.214 323.456 222.121L328.483 194.288L342.538 129.036L344.028 121.869L344.586 119.449L344.959 117.68L345.052 117.401V117.308V117.215L346.541 110.233L347.379 106.138L348.961 98.7841L351.102 88.8241L351.568 86.6831L353.15 79.5157L353.522 77.654L357.153 77.3747L363.575 76.9093H363.669L365.158 76.8162H365.251L368.695 76.537L369.533 76.4439L370.371 76.3508L371.581 76.2577L373.349 76.1646H373.629L374.839 76.0715H374.932L375.676 75.9785H375.77L377.166 75.8854L378.469 75.7923L383.309 75.4199L384.24 75.3269H384.706L385.543 75.2338H385.73L516.978 65.7392L543.414 63.7844C543.414 63.7844 543.6 63.7844 544.066 63.7844C546.672 63.9706 556.167 65.0876 555.701 69.928C554.957 78.5848 548.627 118.611 542.111 159.01C535.967 197.081 529.731 235.339 527.683 247.812C527.311 250.232 526.007 253.769 522.098 255.166C519.305 256.096 496.034 261.03 467.923 267.36C425.29 277.04 373.07 288.862 373.07 288.862C371.208 289.234 369.347 289.327 367.485 288.955L247.5 264.939L196.21 254.7C195.745 254.421 195 253.49 195 252.466Z" fill="#899695"/>
<path d="M458.429 256.003L468.295 267.36C425.663 277.04 373.443 288.862 373.443 288.862C371.581 289.234 369.719 289.327 367.858 288.955L247.872 264.939L236.609 250.698L458.429 256.003Z" fill="#93A3A2"/>
<path d="M543.693 63.6914C544.904 63.5052 556.539 64.5292 555.981 69.835C555.236 78.4918 548.906 118.518 542.39 158.917L536.433 124.568L543.693 63.6914Z" fill="#93A3A2"/>
<path d="M322.898 224.169C323.084 223.424 323.27 222.121 323.363 222.028L328.39 194.195L340.211 128.664L342.073 118.704L342.632 115.912V115.819V115.725L343.283 112.374L344.679 105.207L346.355 96.457L348.124 87.2417L348.217 86.8693L349.799 78.5848C349.892 77.9332 350.451 77.4678 351.102 77.3747L356.967 76.9093L363.296 76.4439H363.389L364.693 76.3508H364.786L368.975 76.0716L369.719 75.9785H370.371L371.953 75.8854L373.443 75.7923H373.536L374.28 75.6992H374.373L375.118 75.6061L375.863 75.513L377.259 75.42L378.562 75.3269L383.216 74.9545L384.147 74.8615H384.24L385.171 74.7684H385.357L517.165 65.46L543.6 63.5983H543.694C543.88 63.5983 544.066 63.5983 544.345 63.5983C545.648 63.8775 546.579 65.1807 546.3 66.4839L536.433 124.475L516.606 241.389C516.42 242.506 515.582 243.251 514.558 243.437C514.372 243.53 514.093 243.53 513.814 243.437L324.387 224.82H324.294C323.084 224.634 322.712 225.751 322.619 224.541C322.805 224.634 322.805 224.448 322.898 224.169Z" fill="#CBD3D2"/>
<path d="M196.024 240.644C194.814 240.831 194.721 242.878 196.024 243.158L367.95 274.806C369.812 275.179 371.674 275.086 373.535 274.713L514.837 243.623L322.618 224.727L196.024 240.644Z" fill="#B3BCBB"/>
<path d="M248.058 239.993C247.965 239.993 247.965 240.086 248.058 240.086L384.612 261.681C385.357 261.775 386.102 261.775 386.753 261.681L471.181 246.974L323.084 231.522L248.058 239.993Z" fill="#899695"/>
<path d="M471.088 243.53L247.965 238.131C247.686 238.131 247.406 238.41 247.406 238.69L247.499 240.831C247.499 241.11 247.686 241.389 248.058 241.482L384.799 261.495C385.543 261.588 386.288 261.588 386.939 261.495L471.181 246.881L471.088 243.53Z" fill="#899695"/>
<path d="M247.779 238.224L384.706 258.237C385.45 258.33 386.195 258.33 386.847 258.237L471.088 243.623L322.805 228.823L247.779 238.224Z" fill="#93A3A2"/>
<path d="M332.299 213.557C332.02 215.046 333.044 216.443 334.533 216.536L505.343 233.477C506.646 233.57 507.856 232.732 508.135 231.336L535.316 76.1646C535.595 74.5822 534.292 73.0928 532.616 73.1859L358.828 83.9837C357.618 84.0768 356.687 84.9145 356.501 86.0315L332.299 213.557Z" fill="#E3F7FF"/>
<path d="M359.759 114.143L354.825 141.882C354.639 143.092 355.57 144.302 356.78 144.302L506.925 146.536C507.949 146.536 508.787 145.792 508.973 144.861L514.837 111.816C515.023 110.513 514.093 109.396 512.789 109.396L361.714 112.374C360.783 112.468 359.945 113.119 359.759 114.143Z" fill="#C9E7EE"/>
<path d="M353.336 150.446L352.684 153.983C352.498 155.193 353.429 156.403 354.639 156.403L504.319 160.778C505.342 160.778 506.18 160.127 506.366 159.103L507.204 154.542C507.39 153.331 506.459 152.121 505.249 152.121L355.384 148.77C354.453 148.677 353.522 149.422 353.336 150.446Z" fill="#C9E7EE"/>
<path d="M361.9 102.414L361.341 105.672C361.155 106.976 362.086 108.093 363.389 108.093L514.651 103.718C515.582 103.718 516.419 102.973 516.606 102.042L517.63 96.5501C517.816 95.2469 516.792 94.0368 515.489 94.1299L363.761 100.832C362.831 100.739 362.086 101.484 361.9 102.414Z" fill="#C9E7EE"/>
<path d="M351.102 163.198L350.543 166.549C350.357 167.76 351.288 168.877 352.498 168.97L502.085 174.089C503.108 174.089 504.039 173.438 504.132 172.414L504.784 168.97C504.97 167.76 504.039 166.643 502.829 166.549L353.15 161.616C352.126 161.43 351.288 162.175 351.102 163.198Z" fill="#C9E7EE"/>
<path d="M348.868 175.485L348.31 178.743C348.123 179.954 348.961 181.071 350.264 181.164L499.478 188.703C500.502 188.797 501.433 188.052 501.619 187.028L502.364 182.839C502.55 181.629 501.712 180.512 500.409 180.419L351.102 173.81C349.985 173.717 349.054 174.462 348.868 175.485Z" fill="#C9E7EE"/>
<path d="M346.82 187.307L346.169 190.844C345.982 192.054 346.82 193.171 348.03 193.265L496.686 203.783C497.71 203.876 498.641 203.131 498.827 202.108L499.758 196.988C499.944 195.778 499.106 194.661 497.896 194.568L348.961 185.632C347.937 185.539 347.006 186.283 346.82 187.307Z" fill="#C9E7EE"/>
<path d="M361.249 232.732C364.134 233.198 367.02 234.129 370.092 234.687C443.907 195.405 453.495 133.784 457.87 108.837C439.439 96.2708 415.144 91.2443 394.573 90.2203C387.126 111.257 372.046 175.206 361.249 232.732Z" fill="#C5C8B5"/>
<path d="M315.916 114.329C311.541 139.276 309.028 187.307 361.248 232.732C435.064 193.451 445.769 131.27 450.144 106.324C431.713 93.7575 403.323 86.2177 381.82 87.3347C349.985 89.0102 333.975 97.4809 315.916 114.329Z" fill="#D7DBCA"/>
<path d="M362.458 224.262C317.406 184.422 317.964 139.834 321.501 117.866C341.887 100.18 357.897 95.9915 380.703 94.9676C399.04 94.1299 425.942 101.018 441.58 110.699C436.926 136.576 424.918 189.076 362.458 224.262Z" fill="#68B271"/>
<path d="M391.035 141.324C393.083 143.185 395.038 145.605 396.993 148.398C388.15 157.893 380.145 162.733 372.884 163.012C371.674 163.012 370.464 162.919 369.347 162.733M362.831 160.033C360.411 158.265 357.153 154.821 353.15 149.608C361.9 140.486 369.905 135.832 377.166 135.645C380.051 135.552 382.937 136.204 385.637 137.507M349.054 175.392L400.995 123.824M370.464 153.704C369.626 152.68 369.254 151.377 369.533 149.794C369.998 146.722 372.884 144.116 375.956 144.023C377.259 144.023 378.376 144.395 379.121 145.14L370.464 153.704Z" stroke="white" stroke-width="2.98139" stroke-linecap="round" stroke-linejoin="round"/>
<path d="M295.159 51.218C295.345 56.4307 293.669 61.2711 290.597 65.0876C286.874 69.7418 281.289 72.7205 274.959 72.9997C263.417 73.4651 253.643 64.436 253.178 52.8004C252.712 41.258 261.741 31.4842 273.377 31.0187C282.22 30.6464 289.946 35.8591 293.297 43.3989C294.414 45.8191 295.065 48.4255 295.159 51.218Z" fill="#D4DDDC"/>
<path d="M289.249 65.9157C293.364 61.1823 293.869 54.8846 290.377 51.8494C286.885 48.8142 280.719 50.1909 276.604 54.9243C272.49 59.6577 271.985 65.9554 275.477 68.9906C278.969 72.0258 285.135 70.6491 289.249 65.9157Z" fill="#E84335"/>
<path d="M285.756 62.3811C287.206 60.7127 287.375 58.4854 286.134 57.4062C284.892 56.327 282.71 56.8047 281.26 58.473C279.81 60.1413 279.641 62.3686 280.882 63.4478C282.124 64.527 284.306 64.0494 285.756 62.3811Z" fill="#333333"/>
<path d="M283.717 58.1768C284.357 57.4396 284.437 56.4592 283.893 55.987C283.35 55.5149 282.39 55.7298 281.75 56.467C281.109 57.2042 281.03 58.1845 281.573 58.6567C282.116 59.1288 283.076 58.914 283.717 58.1768Z" fill="white"/>
<path d="M271.613 49.2244C275.214 45.3426 275.75 39.9849 272.811 37.2578C269.871 34.5306 264.568 35.4667 260.967 39.3486C257.366 43.2305 256.83 48.5881 259.769 51.3152C262.709 54.0424 268.011 53.1063 271.613 49.2244Z" fill="#DFE5E4"/>
<path d="M270.584 180.698C275.518 180.047 280.265 181.257 284.081 183.77C288.735 186.842 292.18 191.868 292.924 197.919C294.321 208.81 286.595 218.863 275.704 220.259C264.813 221.655 254.76 213.929 253.363 203.038C252.34 194.754 256.528 186.935 263.324 183.118C265.558 181.908 267.978 181.071 270.584 180.698Z" fill="#D4DDDC"/>
<path d="M287.563 201.803C291.418 199.062 291.741 192.9 288.285 188.04C284.829 183.18 278.903 181.462 275.048 184.203C271.194 186.944 270.87 193.105 274.326 197.966C277.782 202.826 283.708 204.544 287.563 201.803Z" fill="#E84335"/>
<path d="M284.343 196.586C285.852 195.514 285.964 193.082 284.593 191.155C283.223 189.227 280.889 188.534 279.381 189.607C277.872 190.679 277.761 193.111 279.131 195.038C280.501 196.966 282.835 197.659 284.343 196.586Z" fill="#333333"/>
<path d="M279.454 193.435C279.915 193.108 279.951 192.367 279.534 191.78C279.116 191.193 278.405 190.984 277.944 191.311C277.483 191.639 277.447 192.38 277.865 192.967C278.282 193.553 278.993 193.763 279.454 193.435Z" fill="white"/>
<path d="M268.526 198.628C271.743 195.161 272.212 190.366 269.573 187.918C266.935 185.471 262.189 186.298 258.972 189.765C255.756 193.232 255.287 198.027 257.925 200.475C260.563 202.922 265.309 202.095 268.526 198.628Z" fill="#DFE5E4"/>
<path d="M353.057 52.1488C351.754 55.4999 349.426 58.0131 346.541 59.5956C343.004 61.4572 338.722 61.9227 334.626 60.3402C327.272 57.5477 323.642 49.2632 326.435 41.9096C329.227 34.5559 337.512 30.9256 344.865 33.7181C350.45 35.8591 353.895 41.1649 353.988 46.7499C354.081 48.6116 353.801 50.3802 353.057 52.1488Z" fill="#D4DDDC"/>
<path d="M342.389 60.1938C346.421 59.7016 349.37 56.6964 348.978 53.4816C348.585 50.2668 344.999 48.0597 340.968 48.552C336.937 49.0442 333.987 52.0494 334.379 55.2642C334.772 58.4789 338.358 60.686 342.389 60.1938Z" fill="#E84335"/>
<path d="M342.007 57.1469C343.895 56.9163 345.279 55.5297 345.098 54.0499C344.917 52.57 343.24 51.5572 341.352 51.7878C339.464 52.0183 338.08 53.4049 338.261 54.8847C338.441 56.3646 340.118 57.3774 342.007 57.1469Z" fill="#333333"/>
<path d="M339.358 54.2877C340.127 54.23 340.716 53.726 340.674 53.1621C340.632 52.5982 339.974 52.1879 339.205 52.2456C338.436 52.3033 337.847 52.8072 337.889 53.3712C337.932 53.9351 338.589 54.3454 339.358 54.2877Z" fill="white"/>
<path d="M337.446 44.927C339.753 42.4396 340.096 39.006 338.212 37.2578C336.327 35.5096 332.929 36.1089 330.621 38.5963C328.314 41.0837 327.971 44.5174 329.855 46.2656C331.74 48.0138 335.138 47.4145 337.446 44.927Z" fill="#DFE5E4"/>
<path d="M273.47 135.832C276.914 136.576 279.893 138.438 281.848 141.044C284.268 144.209 285.385 148.398 284.547 152.587C282.965 160.313 275.425 165.246 267.699 163.664C259.973 162.081 255.039 154.541 256.622 146.815C257.832 140.951 262.486 136.669 267.978 135.645C269.84 135.459 271.701 135.459 273.47 135.832Z" fill="#D4DDDC"/>
<path d="M279.67 154.811C282.924 153.851 284.584 149.756 283.378 145.663C282.171 141.57 278.554 139.03 275.3 139.989C272.045 140.949 270.385 145.045 271.592 149.138C272.799 153.23 276.415 155.77 279.67 154.811Z" fill="#E84335"/>
<path d="M278.586 150.792C280.065 150.355 280.817 148.483 280.264 146.609C279.712 144.735 278.065 143.57 276.585 144.006C275.106 144.442 274.355 146.315 274.907 148.188C275.459 150.062 277.107 151.228 278.586 150.792Z" fill="#333333"/>
<path d="M275.284 146.981C275.876 146.807 276.179 146.066 275.961 145.326C275.742 144.586 275.086 144.128 274.494 144.303C273.903 144.477 273.6 145.218 273.818 145.958C274.036 146.697 274.692 147.156 275.284 146.981Z" fill="white"/>
<path d="M267.566 147.791C269.874 145.303 270.217 141.869 268.332 140.121C266.448 138.373 263.049 138.972 260.742 141.46C258.434 143.947 258.091 147.381 259.976 149.129C261.86 150.877 265.258 150.278 267.566 147.791Z" fill="#DFE5E4"/>
<path d="M258.763 108.092C252.247 109.303 246.01 104.928 244.8 98.4117C243.59 91.8958 247.965 85.6592 254.481 84.4491C259.414 83.5182 264.255 85.8453 266.768 89.848C266.861 90.0341 267.047 90.2203 267.14 90.4065C267.792 91.5235 268.164 92.7336 268.443 94.1298C269.002 97.1085 268.35 99.9942 266.954 102.321C266.768 102.694 266.489 103.066 266.209 103.438C264.441 105.858 261.834 107.534 258.763 108.092Z" fill="#D4DDDC"/>
<path d="M266.209 103.438C265.092 103.345 264.348 100.367 264.627 96.7362C264.906 93.2921 266.023 90.4996 267.14 90.4065C267.792 91.5235 268.164 92.7336 268.443 94.1299C269.002 97.1086 268.35 99.9942 266.954 102.321C266.768 102.694 266.489 103.159 266.209 103.438Z" fill="#E84335"/>
<path d="M267.845 97.0768C267.984 95.386 267.682 93.9812 267.17 93.9389C266.657 93.8967 266.129 95.2331 265.99 96.9238C265.85 98.6146 266.153 100.019 266.665 100.062C267.177 100.104 267.706 98.7675 267.845 97.0768Z" fill="#333333"/>
<path d="M266.68 95.1204C266.718 94.6593 266.583 94.2718 266.378 94.2549C266.173 94.238 265.976 94.5982 265.938 95.0593C265.9 95.5204 266.036 95.9079 266.24 95.9248C266.445 95.9416 266.642 95.5816 266.68 95.1204Z" fill="white"/>
<path d="M254.833 94.3941C256.686 92.3966 256.966 89.6436 255.459 88.245C253.951 86.8465 251.227 87.332 249.374 89.3295C247.521 91.327 247.24 94.08 248.748 95.4786C250.255 96.8771 252.98 96.3916 254.833 94.3941Z" fill="#DFE5E4"/>
<path d="M339.374 228.73C339.28 235.338 333.882 240.644 327.273 240.644C320.664 240.551 315.358 235.152 315.358 228.543C315.451 223.517 318.523 219.235 322.991 217.466C323.177 217.373 323.363 217.28 323.642 217.28C324.852 216.908 326.156 216.629 327.552 216.722C330.531 216.722 333.23 217.839 335.371 219.7C335.743 219.98 336.022 220.352 336.302 220.631C338.257 222.679 339.467 225.565 339.374 228.73Z" fill="#D4DDDC"/>
<path d="M336.302 220.538C336.023 221.655 332.951 221.748 329.414 220.817C326.063 219.887 323.549 218.304 323.642 217.187C324.852 216.815 326.156 216.536 327.552 216.629C330.531 216.629 333.23 217.746 335.371 219.607C335.65 219.887 335.929 220.259 336.302 220.538Z" fill="#E84335"/>
<path d="M333.056 219.291C333.193 218.796 331.978 218.028 330.343 217.577C328.707 217.126 327.271 217.162 327.134 217.658C326.997 218.153 328.212 218.921 329.848 219.372C331.483 219.823 332.92 219.787 333.056 219.291Z" fill="#333333"/>
<path d="M329.373 217.716C329.414 217.567 329.046 217.336 328.55 217.199C328.054 217.062 327.619 217.072 327.578 217.221C327.537 217.369 327.906 217.601 328.401 217.737C328.897 217.874 329.332 217.864 329.373 217.716Z" fill="white"/>
<path d="M324.765 226.794C326.618 224.797 326.898 222.044 325.39 220.645C323.883 219.246 321.159 219.732 319.305 221.729C317.452 223.727 317.172 226.48 318.68 227.878C320.187 229.277 322.912 228.792 324.765 226.794Z" fill="#DFE5E4"/>
</svg>
