<svg width="24" height="25" viewBox="0 0 24 25" fill="none" xmlns="http://www.w3.org/2000/svg">
<path fill-rule="evenodd" clip-rule="evenodd" d="M16.4792 11.24C16.5418 11.7482 16.5418 12.2564 16.3539 12.7011C16.1035 13.3999 16.2913 17.0846 16.4166 17.974C16.4792 18.2282 16.6671 18.6093 16.8549 18.927L17.0342 19.2886C17.3005 19.8479 17.4868 20.4574 16.6671 20.7693C13.7865 21.7858 13.2229 19.2446 12.8471 17.0211C12.6593 16.2588 12.7219 16.0046 12.4088 15.7505L12.0605 16.0621C11.0403 16.9695 9.74573 18.0376 8.40102 18.0376C6.96072 18.0376 6.58499 17.0846 6.52237 16.5129C5.52043 16.2588 4.95683 14.9882 5.20732 14.0352C4.45586 13.527 4.268 12.5105 4.5811 11.6847C4.268 11.24 3.64178 10.0329 4.268 9.07996C4.76897 8.38114 11.7826 4.5694 12.5967 4.25175C12.6593 3.80705 12.9724 3.42588 13.3481 3.17176L14.9763 2.21882C15.7277 1.77412 16.6671 2.02824 17.0428 2.79058L20.1112 8.0635C20.487 8.82585 20.2365 9.77878 19.5476 10.2235L17.8569 11.1764C17.4185 11.4305 16.9175 11.4305 16.4792 11.24Z" stroke="black" stroke-width="1.5" stroke-linejoin="round"/>
<path d="M12.5 4.50001L16.4791 11.24" stroke="black" stroke-width="1.5" stroke-linecap="round" stroke-linejoin="round"/>
</svg>
